<svg width="240" height="60" viewBox="0 0 240 60" fill="none" xmlns="http://www.w3.org/2000/svg">
<path d="M63.6581 1.3369C63.8353 1.32741 64.0014 1.24794 64.12 1.11596C64.2386 0.98398 64.2999 0.810307 64.2904 0.633145C64.2809 0.455984 64.2014 0.289846 64.0694 0.171281C63.9375 0.0527154 63.7638 -0.00856523 63.5866 0.000920026C63.5866 0.000920026 63.5866 0.000920026 63.5866 0.000920026C60.9102 0.144172 58.2072 0.346873 55.5326 0.602911C53.409 0.806206 51.2761 0.938047 49.1537 1.19221C45.3519 1.64787 41.5589 2.2138 37.7939 2.94776C37.7799 2.95049 37.7659 2.95322 37.7519 2.95595C32.0867 4.06708 26.4554 5.47486 20.9928 7.41066C17.3302 8.71733 13.6919 10.2764 10.3104 12.3033C7.5032 14.0015 4.79202 16.0451 2.74374 18.7836C1.40691 20.574 0.41331 22.7113 0.111127 24.9903C-0.203638 27.2597 0.171877 29.5655 0.965453 31.665C1.08686 31.9884 1.21853 32.3079 1.36019 32.6236C2.59408 35.3864 4.58064 37.7727 6.78389 39.6989C13.9735 45.7821 22.9044 48.7304 31.6166 51.1102C57.1641 57.5044 83.5081 58.5788 109.583 59.1532C111.966 59.1936 114.324 59.2231 116.624 59.2446C139.003 59.4518 161.557 59.1845 183.936 56.8777C194.288 55.7671 204.632 54.2665 214.739 51.4537C218.171 50.4848 221.648 49.3217 224.951 47.858C227.104 46.9002 229.2 45.8165 231.219 44.4685C234.046 42.5697 236.728 40.1416 238.284 36.8789C238.973 35.4258 239.391 33.8806 239.512 32.2563C239.677 30.1488 239.287 28.0291 238.411 26.1215C236.51 22.0316 232.957 19.2159 229.373 17.0079C215.903 9.33399 200.676 6.7409 185.766 4.40604C168.6 1.9484 151.279 0.933608 133.974 0.705572C122.361 0.565819 110.761 0.656918 99.1696 1.05173C94.9194 1.19679 90.7094 1.45254 86.4692 1.77957C81.2365 2.18363 76.0126 2.69503 70.7952 3.23184C68.3996 3.47824 66.0097 3.78271 63.619 4.01115C62.6256 4.10606 61.6426 4.20282 60.6705 4.30106C60.6648 4.30163 60.6596 4.30443 60.656 4.30884C60.6524 4.31326 60.6507 4.31892 60.6513 4.32459C60.6518 4.33026 60.6546 4.33547 60.659 4.33907C60.6635 4.34268 60.6691 4.34438 60.6748 4.34381C60.6748 4.34381 60.6748 4.34381 60.6748 4.34381C61.6469 4.24558 62.6298 4.14883 63.6231 4.05393C66.0139 3.82548 68.4199 3.70506 70.822 3.56083C76.0545 3.24643 81.2934 3.06895 86.5289 2.92954C90.7718 2.81623 94.9772 2.72892 99.2178 2.61153C110.784 2.29245 122.358 2.2867 133.946 2.50133C151.187 2.84017 168.433 3.94258 185.479 6.38347C200.259 8.6792 215.449 11.3503 228.333 18.7141C231.752 20.8064 234.992 23.4676 236.592 26.9499C237.337 28.5767 237.656 30.3214 237.52 32.1072C237.416 33.4865 237.067 34.781 236.478 36.0229C235.159 38.805 232.762 41.0305 230.108 42.8081C228.217 44.071 226.215 45.1091 224.14 46.0317C220.957 47.4427 217.563 48.5807 214.197 49.5306C204.278 52.2926 194.011 53.7886 183.727 54.8907C161.483 57.1841 138.988 57.4542 116.643 57.2466C114.347 57.2251 111.994 57.1957 109.616 57.1554C83.6205 56.5881 57.3238 55.4911 32.1259 49.1782C23.5533 46.851 14.7701 43.9547 8.02596 38.2761C5.96063 36.4869 4.13879 34.3252 3.04025 31.8689C2.91396 31.5881 2.79682 31.3043 2.68895 31.0174C1.9779 29.1362 1.66856 27.1587 1.93327 25.2377C2.18909 23.309 3.02589 21.4782 4.21781 19.8764C6.03928 17.4296 8.56962 15.4867 11.2505 13.8643C14.4788 11.9229 18.0188 10.3984 21.6003 9.11418C26.9438 7.20926 32.4967 5.804 38.0929 4.68255C38.1067 4.67979 38.1205 4.67703 38.1343 4.67427C41.8537 3.9331 45.5971 3.29414 49.3579 2.77085C51.4565 2.47909 53.5502 2.1367 55.6601 1.93472C58.3163 1.68043 61.0008 1.47912 63.6581 1.3369Z" fill="#05030C"/>
</svg>
