<svg width="259" height="58" viewBox="0 0 259 58" fill="none" xmlns="http://www.w3.org/2000/svg">
<path d="M32.9206 44.8595C32.722 44.8272 32.5186 44.8752 32.3554 44.9928C32.1921 45.1105 32.0822 45.2881 32.05 45.4868C32.0177 45.6854 32.0657 45.8887 32.1833 46.052C32.301 46.2153 32.4786 46.3251 32.6773 46.3574C32.6773 46.3574 32.6773 46.3574 32.6773 46.3574C38.4189 47.2898 44.0485 48.1495 49.786 48.9697C56.5283 49.9332 63.2979 50.9099 70.1405 51.7385C70.305 51.7584 70.4694 51.7782 70.6338 51.7979C91.4741 54.2974 112.557 56.0717 133.552 56.9011C158.619 57.8628 183.791 57.6674 208.825 55.1861C219.149 54.1338 229.572 52.6801 239.699 50.352C245.681 48.9503 251.726 47.2667 257.366 44.6802C259.223 43.817 261.08 42.8175 262.714 41.6489C263.347 41.1951 263.913 40.7323 264.412 40.258C264.96 39.7382 265.478 39.1459 265.878 38.5521C267.184 36.7903 267.446 34.0759 266.442 32.1258C265.534 30.1741 263.932 28.6388 262.448 27.4432C257.114 23.3375 250.941 20.9222 244.844 18.6991C232.029 14.2119 218.864 11.2964 205.579 8.84108C182.373 4.64061 158.944 2.21024 135.409 0.88466C125.941 0.360536 116.456 0.0766492 106.97 0.00276269C79.6333 -0.0570578 52.1301 0.799574 25.1286 6.09207C18.9878 7.42493 12.926 8.90028 7.11734 11.7944C4.39868 13.2756 1.16906 15.0801 0.143615 18.7914C-0.686525 22.7093 2.25664 25.6907 4.50593 27.6546C5.61971 28.5975 6.60884 29.3163 7.89281 30.1648C12.1633 32.9275 16.9051 34.7969 21.5699 36.4223C24.9388 37.5802 28.3286 38.5791 31.7408 39.49C33.0611 39.8418 34.2864 40.1547 35.558 40.4683C43.8634 42.5097 52.2588 44.1088 60.6873 45.4808C81.6858 48.8609 102.875 50.8776 124.089 52.0921C147.336 53.3867 170.66 53.6109 193.907 52.4521C197.466 52.2714 200.96 52.0594 204.522 51.8031C212.591 51.2209 220.699 50.0362 228.709 48.7217C229.645 48.568 230.567 48.3785 231.483 48.2018C231.485 48.2013 231.488 48.1995 231.49 48.197C231.492 48.1946 231.492 48.1916 231.492 48.1886C231.491 48.1857 231.49 48.183 231.488 48.1811C231.485 48.1793 231.482 48.1783 231.479 48.1786C231.479 48.1786 231.479 48.1786 231.479 48.1786C230.551 48.2686 229.613 48.339 228.671 48.4382C220.602 49.2877 212.45 49.6409 204.409 50.1742C200.859 50.4092 197.375 50.5992 193.826 50.7576C170.645 51.7701 147.385 51.3884 124.202 50.0972C103.045 48.8863 81.9109 46.8737 61.0074 43.5086C52.6183 42.1432 44.2684 40.5518 36.0362 38.5283C34.7759 38.2175 33.5622 37.9076 32.2556 37.5594C28.8788 36.6581 25.5307 35.6709 22.22 34.5329C17.6413 32.9415 12.9927 31.0895 8.98987 28.4948C7.76392 27.6849 6.82996 27.0043 5.80255 26.1344C3.6413 24.3121 1.46818 21.6908 2.08999 19.2429C2.69207 16.7689 5.45469 14.9102 8.03231 13.5706C13.4954 10.8415 19.4912 9.3541 25.5398 8.04735C52.2371 2.81013 79.7197 1.93689 106.955 2.00075C116.41 2.07439 125.865 2.35743 135.298 2.87964C158.763 4.20094 182.123 6.62569 205.221 10.8067C218.438 13.2481 231.54 16.1561 244.176 20.5819C250.168 22.7561 256.274 25.1884 261.208 28.9937C264.073 31.1834 266.417 34.6045 264.253 37.4568C263.947 37.9151 263.528 38.4022 263.063 38.847C262.641 39.2527 262.147 39.6631 261.58 40.0747C260.095 41.1515 258.34 42.1161 256.559 42.9478C251.142 45.4493 245.18 47.1336 239.274 48.5197C229.268 50.8286 218.906 52.2831 208.637 53.3322C183.729 55.8087 158.625 56.0067 133.625 55.0569C112.683 54.2378 91.6418 52.5346 70.8361 50.0931C70.6721 50.0738 70.5079 50.0546 70.3437 50.0353C63.512 49.2329 56.732 48.4293 50.0007 47.4674C44.2729 46.6486 38.6527 45.7903 32.9206 44.8595Z" fill="#05030C"/>
</svg>
