<svg width="420" height="21" viewBox="0 0 420 21" fill="none" xmlns="http://www.w3.org/2000/svg">
<path d="M83.0599 18.5443C87.667 18.5443 91.401 14.7193 91.401 9.99998C91.401 5.28065 87.665 1.45568 83.0599 1.45568C78.4548 1.45568 74.7188 5.28065 74.7188 9.99998C74.7188 14.7193 78.4528 18.5443 83.0599 18.5443Z" fill="#DDDDDD"/>
<path d="M36.8371 9.99998C36.8371 14.7193 40.5711 18.5443 45.1782 18.5443V1.45568C40.5711 1.45568 36.8371 5.28065 36.8371 9.99998Z" fill="#DDDDDD"/>
<path d="M70.3749 9.99998C70.3749 14.7193 68.5527 18.5443 63.9456 18.5443C59.3385 18.5443 55.6045 14.7193 55.6045 9.99998C55.6045 5.28065 59.3385 1.45568 63.9456 1.45568C68.5527 1.45568 70.3749 5.28065 70.3749 9.99998Z" fill="#DDDDDD"/>
<path fill-rule="evenodd" clip-rule="evenodd" d="M27.1065 1.79506C24.6997 2.83116 22.9418 6.11113 22.9418 9.99998C22.9418 13.8888 24.6997 17.1688 27.1065 18.2049C26.6602 18.4265 26.1574 18.5443 25.5942 18.5443C22.3981 18.5443 19.8081 14.7193 19.8081 9.99998C19.8081 5.28065 22.3981 1.45568 25.5942 1.45568C26.1574 1.45568 26.6602 1.57347 27.1065 1.79506Z" fill="#DDDDDD"/>
<path fill-rule="evenodd" clip-rule="evenodd" d="M6.94959 1.57946C4.13351 2.27019 1.99172 5.77774 1.99172 9.99998C1.99172 14.2222 4.13546 17.7298 6.94959 18.4205C6.64557 18.5024 6.32206 18.5443 5.97517 18.5443C2.67577 18.5443 0 14.7193 0 9.99998C0 5.28065 2.67382 1.45568 5.97517 1.45568C6.32206 1.45568 6.64557 1.49761 6.94959 1.57946Z" fill="#DDDDDD"/>
<path d="M101.401 6.69284V13.3027H104.274C106.252 13.3027 107.265 11.9791 107.265 9.99877C107.265 8.01841 106.254 6.69484 104.274 6.69484H101.401V6.69284ZM103.081 11.7835V8.21006H104.003C105.133 8.21006 105.548 8.99661 105.548 9.99677C105.548 10.9969 105.133 11.7835 104.003 11.7835H103.081ZM111.453 6.69284V13.3027H113.133V10.9889H114.47L115.275 13.3027H116.955L116.023 10.6456C116.637 10.2842 116.963 9.67337 116.963 8.83091C116.963 7.48938 116.095 6.69284 114.604 6.69284H111.451H111.453ZM113.133 9.55359V8.19209H114.38C115.004 8.19209 115.248 8.42366 115.248 8.86685C115.248 9.31004 115.004 9.55159 114.38 9.55159H113.133V9.55359ZM122.868 11.2664L123.824 10.2483H124.078L125.524 13.3027H127.33L125.189 8.72112L127.015 6.69484H125.099L122.868 9.10242V6.69484H121.188V13.3047H122.868V11.2664ZM136.326 8.60134C136.209 7.32369 135.124 6.57506 133.68 6.57506C132.045 6.57506 131.14 7.51933 131.14 8.65723C131.14 9.6574 131.682 10.3421 132.848 10.5358L134.058 10.7394C134.52 10.8233 134.798 10.961 134.798 11.3683C134.798 11.7376 134.446 11.9891 133.867 11.9891C133.288 11.9891 132.764 11.8134 132.664 11.1746H130.947C131.084 12.59 132.068 13.4245 133.795 13.4245C135.629 13.4245 136.488 12.4063 136.488 11.2684C136.488 10.0567 135.693 9.46375 134.644 9.28808L133.461 9.09443C133.074 9.03055 132.838 8.90877 132.838 8.58537C132.838 8.1881 133.218 8.01242 133.66 8.01242C134.167 8.01242 134.51 8.16015 134.609 8.60533H136.326V8.60134ZM140.719 6.69284V13.3027H143.592C145.57 13.3027 146.583 11.9791 146.583 9.99877C146.583 8.01841 145.572 6.69484 143.592 6.69484H140.719V6.69284ZM142.399 11.7835V8.21006H143.321C144.451 8.21006 144.866 8.99661 144.866 9.99677C144.866 10.9969 144.451 11.7835 143.321 11.7835H142.399ZM150.771 6.69284V13.3027H152.451V10.9889H153.788L154.593 13.3027H156.273L155.341 10.6456C155.955 10.2842 156.281 9.67337 156.281 8.83091C156.281 7.48938 155.413 6.69284 153.922 6.69284H150.769H150.771ZM152.451 9.55359V8.19209H153.698C154.322 8.19209 154.566 8.42366 154.566 8.86685C154.566 9.31004 154.322 9.55159 153.698 9.55159H152.451V9.55359ZM164.427 11.0528C164.345 11.6078 163.947 11.9053 163.37 11.9053C162.431 11.9053 161.942 11.1087 161.942 9.99877C161.942 8.88881 162.429 8.09227 163.37 8.09227C163.877 8.09227 164.247 8.30588 164.355 8.74108H166.099C165.883 7.48139 164.896 6.57506 163.37 6.57506C161.383 6.57506 160.225 7.94454 160.225 9.99877C160.225 12.053 161.383 13.4245 163.37 13.4245C164.961 13.4245 165.982 12.4523 166.153 11.0548H164.427V11.0528ZM170.345 6.69284V13.3027H172.025V10.9889H173.362L174.167 13.3027H175.847L174.915 10.6456C175.529 10.2842 175.855 9.67337 175.855 8.83091C175.855 7.48938 174.988 6.69284 173.497 6.69284H170.343H170.345ZM172.025 9.55359V8.19209H173.273C173.896 8.19209 174.14 8.42366 174.14 8.86685C174.14 9.31004 173.896 9.55159 173.273 9.55159H172.025V9.55359ZM180.08 6.69284V13.3027H182.952C184.931 13.3027 185.944 11.9791 185.944 9.99877C185.944 8.01841 184.933 6.69484 182.952 6.69484H180.08V6.69284ZM181.76 11.7835V8.21006H182.682C183.812 8.21006 184.227 8.99661 184.227 9.99677C184.227 10.9969 183.812 11.7835 182.682 11.7835H181.76ZM195.191 8.60134C195.074 7.32369 193.989 6.57506 192.545 6.57506C190.91 6.57506 190.005 7.51933 190.005 8.65723C190.005 9.6574 190.547 10.3421 191.713 10.5358L192.923 10.7394C193.383 10.8233 193.663 10.961 193.663 11.3683C193.663 11.7376 193.311 11.9891 192.732 11.9891C192.153 11.9891 191.629 11.8134 191.529 11.1746H189.812C189.949 12.59 190.933 13.4245 192.658 13.4245C194.492 13.4245 195.351 12.4063 195.351 11.2684C195.351 10.0567 194.556 9.46375 193.507 9.28808L192.324 9.09443C191.937 9.03055 191.701 8.90877 191.701 8.58537C191.701 8.1881 192.081 8.01242 192.523 8.01242C193.03 8.01242 193.373 8.16015 193.472 8.60533H195.189L195.191 8.60134Z" fill="#DDDDDD"/>
<path d="M226.439 13.28V16.444C226.439 16.612 226.495 16.752 226.607 16.864C226.719 16.976 226.859 17.032 227.027 17.032C227.195 17.032 227.335 16.976 227.447 16.864C227.559 16.752 227.615 16.612 227.615 16.444V13.672C227.615 13.3733 227.578 13.1307 227.503 12.944C227.428 12.7573 227.26 12.58 226.999 12.412L224.535 10.676C223.938 10.284 223.518 9.808 223.275 9.248C223.032 8.66933 222.911 7.96933 222.911 7.148V3.2C222.911 2.416 223.182 1.75333 223.723 1.212C224.264 0.670666 224.927 0.399999 225.711 0.399999H228.343C229.127 0.399999 229.79 0.670666 230.331 1.212C230.872 1.75333 231.143 2.416 231.143 3.2V7.12H227.615V3.928C227.615 3.76 227.559 3.62 227.447 3.508C227.335 3.396 227.195 3.34 227.027 3.34C226.859 3.34 226.719 3.396 226.607 3.508C226.495 3.62 226.439 3.76 226.439 3.928V6.784C226.439 7.12 226.495 7.39067 226.607 7.596C226.738 7.80133 226.915 7.97867 227.139 8.128L229.575 9.78C230.135 10.1347 230.536 10.592 230.779 11.152C231.022 11.712 231.143 12.3187 231.143 12.972V17.2C231.143 17.984 230.872 18.6467 230.331 19.188C229.79 19.7293 229.127 20 228.343 20H225.711C224.927 20 224.264 19.7293 223.723 19.188C223.182 18.6467 222.911 17.984 222.911 17.2V13.28H226.439Z" fill="#DDDDDD"/>
<path d="M237.472 20V19.244C237.173 19.5427 236.828 19.7667 236.436 19.916C236.063 20.0467 235.661 20.112 235.232 20.112C234.84 20.112 234.495 20.0653 234.196 19.972C233.897 19.86 233.636 19.6733 233.412 19.412C233.207 19.1507 233.048 18.7867 232.936 18.32C232.824 17.8347 232.768 17.228 232.768 16.5V12.328C232.768 11.7493 232.88 11.2733 233.104 10.9C233.347 10.508 233.711 10.1627 234.196 9.864L237.472 7.792V3.788C237.472 3.62 237.416 3.48 237.304 3.368C237.192 3.256 237.052 3.2 236.884 3.2C236.716 3.2 236.576 3.256 236.464 3.368C236.352 3.48 236.296 3.62 236.296 3.788V7.12H232.768V3.2C232.768 2.416 233.039 1.75333 233.58 1.212C234.121 0.670666 234.784 0.399999 235.568 0.399999H238.2C238.984 0.399999 239.647 0.670666 240.188 1.212C240.729 1.75333 241 2.416 241 3.2V20H237.472ZM237.472 11.124C237.061 11.292 236.763 11.4507 236.576 11.6C236.389 11.7307 236.296 12.0293 236.296 12.496V16.612C236.296 16.78 236.352 16.92 236.464 17.032C236.576 17.144 236.716 17.2 236.884 17.2C237.052 17.2 237.192 17.144 237.304 17.032C237.416 16.92 237.472 16.78 237.472 16.612V11.124Z" fill="#DDDDDD"/>
<path d="M241.64 0.399999H249.088V3.368H247.128V20H243.6V3.368H241.64V0.399999Z" fill="#DDDDDD"/>
<path d="M255.463 20V19.244C255.164 19.5427 254.819 19.7667 254.427 19.916C254.054 20.0467 253.652 20.112 253.223 20.112C252.831 20.112 252.486 20.0653 252.187 19.972C251.888 19.86 251.627 19.6733 251.403 19.412C251.198 19.1507 251.039 18.7867 250.927 18.32C250.815 17.8347 250.759 17.228 250.759 16.5V12.328C250.759 11.7493 250.871 11.2733 251.095 10.9C251.338 10.508 251.702 10.1627 252.187 9.864L255.463 7.792V3.788C255.463 3.62 255.407 3.48 255.295 3.368C255.183 3.256 255.043 3.2 254.875 3.2C254.707 3.2 254.567 3.256 254.455 3.368C254.343 3.48 254.287 3.62 254.287 3.788V7.12H250.759V3.2C250.759 2.416 251.03 1.75333 251.571 1.212C252.112 0.670666 252.775 0.399999 253.559 0.399999H256.191C256.975 0.399999 257.638 0.670666 258.179 1.212C258.72 1.75333 258.991 2.416 258.991 3.2V20H255.463ZM255.463 11.124C255.052 11.292 254.754 11.4507 254.567 11.6C254.38 11.7307 254.287 12.0293 254.287 12.496V16.612C254.287 16.78 254.343 16.92 254.455 17.032C254.567 17.144 254.707 17.2 254.875 17.2C255.043 17.2 255.183 17.144 255.295 17.032C255.407 16.92 255.463 16.78 255.463 16.612V11.124Z" fill="#DDDDDD"/>
<path d="M263.974 0.399999L265.374 9.08V0.399999H268.93V20H265.598L264.226 11.32V20H260.698V0.399999H263.974Z" fill="#DDDDDD"/>
<path d="M283.448 0.399999V20H279.92V11.684H278.744V20H275.216V0.399999H278.744V8.716H279.92V0.399999H283.448Z" fill="#DDDDDD"/>
<path d="M288.601 0.371999V16.444C288.601 16.612 288.657 16.752 288.769 16.864C288.881 16.976 289.021 17.032 289.189 17.032C289.357 17.032 289.497 16.976 289.609 16.864C289.721 16.752 289.777 16.612 289.777 16.444V0.371999H293.305V17.2C293.305 17.984 293.035 18.6467 292.493 19.188C291.952 19.7293 291.289 20 290.505 20H287.873C287.089 20 286.427 19.7293 285.885 19.188C285.344 18.6467 285.073 17.984 285.073 17.2V0.371999H288.601Z" fill="#DDDDDD"/>
<path d="M298.458 13.28V16.444C298.458 16.612 298.514 16.752 298.626 16.864C298.738 16.976 298.878 17.032 299.046 17.032C299.214 17.032 299.354 16.976 299.466 16.864C299.578 16.752 299.634 16.612 299.634 16.444V13.672C299.634 13.3733 299.597 13.1307 299.522 12.944C299.447 12.7573 299.279 12.58 299.018 12.412L296.554 10.676C295.957 10.284 295.537 9.808 295.294 9.248C295.051 8.66933 294.93 7.96933 294.93 7.148V3.2C294.93 2.416 295.201 1.75333 295.742 1.212C296.283 0.670666 296.946 0.399999 297.73 0.399999H300.362C301.146 0.399999 301.809 0.670666 302.35 1.212C302.891 1.75333 303.162 2.416 303.162 3.2V7.12H299.634V3.928C299.634 3.76 299.578 3.62 299.466 3.508C299.354 3.396 299.214 3.34 299.046 3.34C298.878 3.34 298.738 3.396 298.626 3.508C298.514 3.62 298.458 3.76 298.458 3.928V6.784C298.458 7.12 298.514 7.39067 298.626 7.596C298.757 7.80133 298.934 7.97867 299.158 8.128L301.594 9.78C302.154 10.1347 302.555 10.592 302.798 11.152C303.041 11.712 303.162 12.3187 303.162 12.972V17.2C303.162 17.984 302.891 18.6467 302.35 19.188C301.809 19.7293 301.146 20 300.362 20H297.73C296.946 20 296.283 19.7293 295.742 19.188C295.201 18.6467 294.93 17.984 294.93 17.2V13.28H298.458Z" fill="#DDDDDD"/>
<path d="M308.315 13.28V16.444C308.315 16.612 308.371 16.752 308.483 16.864C308.595 16.976 308.735 17.032 308.903 17.032C309.071 17.032 309.211 16.976 309.323 16.864C309.435 16.752 309.491 16.612 309.491 16.444V13.672C309.491 13.3733 309.454 13.1307 309.379 12.944C309.304 12.7573 309.136 12.58 308.875 12.412L306.411 10.676C305.814 10.284 305.394 9.808 305.151 9.248C304.908 8.66933 304.787 7.96933 304.787 7.148V3.2C304.787 2.416 305.058 1.75333 305.599 1.212C306.14 0.670666 306.803 0.399999 307.587 0.399999H310.219C311.003 0.399999 311.666 0.670666 312.207 1.212C312.748 1.75333 313.019 2.416 313.019 3.2V7.12H309.491V3.928C309.491 3.76 309.435 3.62 309.323 3.508C309.211 3.396 309.071 3.34 308.903 3.34C308.735 3.34 308.595 3.396 308.483 3.508C308.371 3.62 308.315 3.76 308.315 3.928V6.784C308.315 7.12 308.371 7.39067 308.483 7.596C308.614 7.80133 308.791 7.97867 309.015 8.128L311.451 9.78C312.011 10.1347 312.412 10.592 312.655 11.152C312.898 11.712 313.019 12.3187 313.019 12.972V17.2C313.019 17.984 312.748 18.6467 312.207 19.188C311.666 19.7293 311.003 20 310.219 20H307.587C306.803 20 306.14 19.7293 305.599 19.188C305.058 18.6467 304.787 17.984 304.787 17.2V13.28H308.315Z" fill="#DDDDDD"/>
<path d="M318.172 10.9V16.444C318.172 16.612 318.228 16.752 318.34 16.864C318.452 16.976 318.592 17.032 318.76 17.032C318.928 17.032 319.068 16.976 319.18 16.864C319.292 16.752 319.348 16.612 319.348 16.444V12.832H322.876V17.2C322.876 17.984 322.605 18.6467 322.064 19.188C321.523 19.7293 320.86 20 320.076 20H317.444C316.66 20 315.997 19.7293 315.456 19.188C314.915 18.6467 314.644 17.984 314.644 17.2V3.2C314.644 2.416 314.915 1.75333 315.456 1.212C315.997 0.670666 316.66 0.399999 317.444 0.399999H320.076C320.86 0.399999 321.523 0.670666 322.064 1.212C322.605 1.75333 322.876 2.416 322.876 3.2V10.9H318.172ZM318.172 7.932H319.348V3.928C319.348 3.76 319.292 3.62 319.18 3.508C319.068 3.396 318.928 3.34 318.76 3.34C318.592 3.34 318.452 3.396 318.34 3.508C318.228 3.62 318.172 3.76 318.172 3.928V7.932Z" fill="#DDDDDD"/>
<path d="M328.169 0.399999V20H324.641V0.399999H328.169Z" fill="#DDDDDD"/>
<path d="M333.259 0.399999L334.659 9.08V0.399999H338.215V20H334.883L333.511 11.32V20H329.983V0.399999H333.259Z" fill="#DDDDDD"/>
<path d="M409.281 9.97958L399.231 0.00480365L389.132 9.97958L379.079 0.00480365L368.98 9.97958L358.951 0.00480365L358.939 0.0168128L358.922 0L349.351 9.48721V20L359.409 10.0204L369.479 20L379.536 10.0204L389.635 19.9952L399.688 10.0204L409.787 19.9952L419.351 10.5032V0.0240183L409.281 9.97958Z" fill="#DDDDDD"/>
</svg>
