<svg preserveAspectRatio="none" width="100%" height="100%" overflow="visible" style="display: block;" viewBox="0 0 281.919 67.0237" fill="none" xmlns="http://www.w3.org/2000/svg">
<path id="Vector 22" d="M72.5039 7.23184C72.6801 7.21103 72.8408 7.12108 72.9507 6.98178C73.0606 6.84248 73.1106 6.66524 73.0898 6.48905C73.069 6.31286 72.979 6.15215 72.8397 6.04228C72.7004 5.93241 72.5232 5.88238 72.347 5.90319C72.347 5.90319 72.347 5.90319 72.347 5.90319C69.2411 6.26999 66.1064 6.70226 63.0099 7.18878C60.5497 7.57532 58.0773 7.89321 55.6233 8.33493C51.226 9.12688 46.8454 10.036 42.5043 11.121C42.4881 11.125 42.472 11.129 42.4558 11.1331C35.9256 12.7729 29.4505 14.725 23.1764 17.2444C18.9767 18.9416 14.8113 20.9083 10.951 23.3929C7.75524 25.4736 4.65158 27.9349 2.42281 31.2308C0.967804 33.3861 -0.0133399 35.9987 0.000137091 38.6928C-0.0034126 40.9204 0.62509 43.0708 1.61748 45.0286C1.99324 45.7717 2.42529 46.49 2.91 47.1837C4.93229 50.0689 7.64894 52.3 10.5668 54.113C19.8853 59.6863 30.4978 61.9671 40.9473 63.7181C71.2817 68.2343 102.01 67.28 132.442 65.7738C134.947 65.6392 137.476 65.4942 139.909 65.3483C166.238 63.7666 192.726 61.6631 218.875 57.3658C230.858 55.3485 242.806 52.9194 254.419 49.0967C258.352 47.7867 262.356 46.2544 266.127 44.4109C268.596 43.1991 270.982 41.8602 273.279 40.2154C276.48 37.9012 279.558 34.9783 281.071 31.0314C281.626 29.5639 281.919 28.0215 281.919 26.4255C281.942 23.6572 280.933 20.9225 279.325 18.7638C276.194 14.5962 271.631 12.1247 267.156 10.1647C250.495 3.47772 232.62 1.95613 215.056 0.739344C195.092 -0.425807 175.116 -0.119667 155.194 1.00194C141.4 1.79232 127.651 2.83365 113.913 4.21164C108.98 4.70677 104.081 5.31389 99.1714 5.99564C93.1004 6.83876 87.0478 7.79296 81.0036 8.77742C78.2279 9.22941 75.4623 9.74004 72.6908 10.176C71.5392 10.3572 70.4003 10.5394 69.274 10.7223C69.2684 10.7232 69.2633 10.7263 69.26 10.7309C69.2567 10.7355 69.2553 10.7413 69.2562 10.7469C69.2571 10.7525 69.2602 10.7576 69.2649 10.7609C69.2695 10.7642 69.2753 10.7656 69.2809 10.7647C69.2809 10.7647 69.2809 10.7647 69.2809 10.7647C70.4071 10.5818 71.5459 10.3996 72.6975 10.2185C75.469 9.78248 78.262 9.45457 81.0507 9.10412C87.124 8.34067 93.2134 7.71868 99.3052 7.13936C104.232 6.67063 109.139 6.23179 114.065 5.76481C127.784 4.46529 141.516 3.51249 155.292 2.79947C175.164 1.79063 195.079 1.57457 214.936 2.73384C232.383 3.92931 250.23 5.50774 266.367 12.0006C270.686 13.8768 274.992 16.293 277.713 19.9445C279.115 21.8373 279.935 24.088 279.921 26.4255C279.92 27.7787 279.676 29.0706 279.202 30.3248C277.924 33.6897 275.15 36.407 272.113 38.5925C269.941 40.1484 267.644 41.441 265.248 42.6163C261.59 44.4055 257.661 45.9111 253.788 47.2009C242.346 50.9684 230.468 53.3891 218.547 55.3948C192.522 59.6723 166.087 61.7745 139.789 63.3538C137.36 63.4995 134.835 63.6443 132.335 63.7787C101.973 65.2854 71.2884 66.2199 41.2621 61.745C30.9403 60.0263 20.4447 57.7905 11.5588 52.5058C8.78127 50.7963 6.24268 48.7292 4.41944 46.1283C3.98193 45.5031 3.59502 44.8599 3.25986 44.1977C2.36685 42.4362 1.83707 40.5784 1.839 38.6933C1.82866 36.4166 2.64472 34.1902 3.94892 32.2497C5.94068 29.2884 8.8658 26.9237 11.9406 24.9231C15.6539 22.5265 19.729 20.5949 23.8534 18.9214C30.0173 16.4349 36.4204 14.4875 42.8862 12.8396C42.9022 12.8355 42.9182 12.8315 42.9342 12.8274C47.2327 11.7367 51.5629 10.7568 55.918 9.89921C58.3476 9.42104 60.7698 8.89504 63.2176 8.51046C66.2974 8.02655 69.4154 7.59659 72.5039 7.23184Z" fill="var(--stroke-0, #05030C)"/>
</svg>
