<svg preserveAspectRatio="none" width="100%" height="100%" overflow="visible" style="display: block;" viewBox="0 0 266.47 59.8401" fill="none" xmlns="http://www.w3.org/2000/svg">
<path id="Vector 23" d="M32.1334 42.9995C31.9359 42.961 31.7312 43.0026 31.5643 43.115C31.3974 43.2275 31.282 43.4017 31.2436 43.5992C31.2051 43.7967 31.2467 44.0015 31.3591 44.1683C31.4716 44.3352 31.6458 44.4506 31.8433 44.4891C31.8433 44.4891 31.8433 44.4891 31.8433 44.4891C37.553 45.6008 43.1528 46.6364 48.8618 47.6359C55.5706 48.81 62.3063 49.9983 69.1197 51.0408C69.2834 51.0658 69.4472 51.0908 69.6108 51.1156C90.3626 54.2665 111.379 56.7003 132.339 58.1868C157.363 59.9331 182.528 60.5261 207.628 58.83C217.98 58.1016 228.444 56.975 238.638 54.9652C244.661 53.7515 250.757 52.2581 256.475 49.8495C258.358 49.0449 260.245 48.104 261.914 46.9871C262.562 46.5534 263.142 46.1086 263.655 45.6502C264.219 45.1477 264.756 44.572 265.174 43.991C266.534 42.2709 266.881 39.5661 265.939 37.5855C265.093 35.6063 263.539 34.0216 262.093 32.7801C256.891 28.5093 250.796 25.9019 244.773 23.4889C232.104 18.6027 219.037 15.2763 205.836 12.4061C182.772 7.4809 159.431 4.31799 135.948 2.25596C126.501 1.43558 117.031 0.854794 107.552 0.483863C80.2299 -0.43207 52.7134 -0.437205 25.5593 4.00706C19.3798 5.14695 13.2748 6.43173 7.37836 9.14247C4.61464 10.5378 1.3301 12.2403 0.18892 15.9177C-0.763513 19.8076 2.08483 22.8798 4.27152 24.9132C5.35522 25.8905 6.32136 26.6399 7.57812 27.5282C11.76 30.4232 16.441 32.4403 21.0525 34.2109C24.3835 35.4738 27.7403 36.5784 31.1224 37.5957C32.431 37.9887 33.6459 38.3397 34.9071 38.693C43.1444 40.9935 51.4856 42.8549 59.867 44.4901C80.7494 48.5262 101.865 51.2055 123.031 53.0838C146.226 55.1058 169.531 56.0603 192.803 55.6302C196.366 55.561 199.865 55.4585 203.433 55.3139C211.516 54.9847 219.658 54.0546 227.705 52.9916C228.645 52.8672 229.573 52.7067 230.493 52.5588C230.496 52.5583 230.499 52.5566 230.501 52.5542C230.503 52.5518 230.503 52.5488 230.503 52.5459C230.503 52.5429 230.501 52.5402 230.499 52.5383C230.497 52.5363 230.494 52.5353 230.491 52.5355C230.491 52.5355 230.491 52.5355 230.491 52.5355C229.56 52.5964 228.62 52.6373 227.676 52.7069C219.584 53.3033 211.425 53.401 203.371 53.6823C199.815 53.806 196.328 53.8868 192.775 53.934C169.574 54.22 146.338 53.11 123.206 51.0934C102.098 49.2205 81.0366 46.547 60.2487 42.5289C51.9065 40.9014 43.6105 39.0493 35.4458 36.769C34.1959 36.4188 32.9925 36.0711 31.6974 35.6821C28.3504 34.6755 25.0349 33.584 21.7615 32.3429C17.2348 30.6089 12.6465 28.6122 8.72694 25.8934C7.52696 25.0455 6.61477 24.336 5.61511 23.4343C3.51199 21.5452 1.42204 18.8571 2.1202 16.4299C2.79947 13.976 5.61894 12.2047 8.23725 10.9465C13.7831 8.38981 19.8225 7.09093 25.9091 5.97426C52.7574 1.57572 80.2539 1.56361 107.474 2.48039C116.922 2.85012 126.363 3.42911 135.775 4.2465C159.188 6.30204 182.46 9.4572 205.416 14.3595C218.55 17.2137 231.554 20.5306 244.045 25.3499C249.967 27.7107 255.993 30.3331 260.805 34.291C263.6 36.5694 265.837 40.0622 263.584 42.8453C263.264 43.2938 262.83 43.7675 262.352 44.1976C261.917 44.5899 261.411 44.9846 260.83 45.3782C259.313 46.408 257.528 47.3172 255.722 48.0927C250.229 50.4232 244.217 51.92 238.271 53.1205C228.197 55.1149 217.795 56.2442 207.499 56.9712C182.525 58.6663 157.428 58.078 132.469 56.3457C111.563 54.8712 90.5855 52.5099 69.8665 49.418C69.7031 49.3936 69.5396 49.3692 69.376 49.3448C62.5729 48.3288 55.8214 47.3132 49.1234 46.141C43.4241 45.1432 37.8336 44.1094 32.1334 42.9995Z" fill="var(--stroke-0, #05030C)"/>
</svg>
