<svg preserveAspectRatio="none" width="100%" height="100%" overflow="visible" style="display: block;" viewBox="0 0 302.441 67.7161" fill="none" xmlns="http://www.w3.org/2000/svg">
<path id="Vector 23" d="M36.3489 48.8127C36.1514 48.7742 35.9467 48.8158 35.7798 48.9283C35.6129 49.0408 35.4976 49.2149 35.4591 49.4125C35.4206 49.61 35.4622 49.8147 35.5747 49.9816C35.6871 50.1485 35.8613 50.2638 36.0588 50.3023C36.0588 50.3023 36.0588 50.3023 36.0588 50.3023C42.5443 51.5651 48.9052 52.7414 55.3899 53.8767C63.0103 55.2104 70.6631 56.5485 78.4024 57.731C78.5884 57.7594 78.7744 57.7877 78.9603 57.8159C102.532 61.3913 126.404 64.1511 150.21 65.839C178.634 67.8218 207.217 68.4952 235.721 66.5685C247.477 65.7411 259.36 64.4611 270.932 62.179C277.77 60.8012 284.688 59.1045 291.169 56.3736C293.303 55.4615 295.44 54.3948 297.326 53.132C298.056 52.642 298.71 52.1401 299.288 51.6238C299.923 51.058 300.526 50.4109 300.994 49.7599C302.516 47.8295 302.9 44.8318 301.848 42.6137C300.901 40.3983 299.15 38.6079 297.515 37.205C291.631 32.3747 284.713 29.4117 277.877 26.6741C263.498 21.1278 248.658 17.3497 233.666 14.0902C207.472 8.49678 180.962 4.90424 154.29 2.56222C143.561 1.63047 132.804 0.970826 122.038 0.54953C91.0078 -0.491026 59.7505 -0.495691 28.9243 4.54988C21.9107 5.84321 14.9799 7.30367 8.30535 10.3726C5.1757 11.9484 1.47603 13.8871 0.211087 17.9814C-0.853568 22.301 2.33054 25.7647 4.80894 28.0649C6.0343 29.1699 7.12817 30.0185 8.552 31.0249C13.2848 34.3017 18.596 36.5917 23.829 38.6006C27.6091 40.0338 31.4196 41.2877 35.2592 42.4426C36.7449 42.8888 38.1242 43.2874 39.5562 43.6885C48.9088 46.3005 58.3813 48.4143 67.8999 50.2714C91.6158 54.8552 115.599 57.8984 139.64 60.0318C165.985 62.3285 192.455 63.4234 218.887 62.9446C222.934 62.8675 226.908 62.7525 230.96 62.5897C240.141 62.2189 249.391 61.2189 258.536 60.0431C259.604 59.9055 260.659 59.7313 261.705 59.5692C261.708 59.5687 261.711 59.5671 261.712 59.5646C261.714 59.5622 261.715 59.5592 261.715 59.5563C261.714 59.5533 261.713 59.5506 261.711 59.5486C261.708 59.5467 261.705 59.5457 261.702 59.5459C261.702 59.5459 261.702 59.5459 261.702 59.5459C260.646 59.621 259.579 59.6756 258.506 59.7584C249.317 60.4676 240.05 60.6353 230.899 60.958C226.858 61.1 222.896 61.1933 218.86 61.2484C192.498 61.5831 166.097 60.3327 139.815 58.0414C115.832 55.9135 91.903 52.8759 68.2816 48.3102C58.8022 46.4608 49.3749 44.3563 40.0949 41.7644C38.6742 41.3664 37.3063 40.9712 35.8342 40.5291C32.0297 39.3848 28.2605 38.144 24.5379 36.7326C19.3899 34.7603 14.1713 32.4906 9.70082 29.3901C8.33378 28.4242 7.29385 27.6154 6.15253 26.586C3.75771 24.4301 1.33198 21.3505 2.14237 18.4936C2.94541 15.6228 6.17999 13.6153 9.16425 12.1766C15.4882 9.26175 22.3534 7.7872 29.2741 6.51707C59.7945 1.51723 91.0318 1.50465 121.96 2.54606C132.696 2.96616 143.423 3.624 154.117 4.55276C180.719 6.8883 207.161 10.4731 233.246 16.0437C248.17 19.2871 262.948 23.0557 277.15 28.535C283.884 31.2205 290.734 34.1984 296.227 38.7159C299.41 41.3009 302.027 45.3742 299.404 48.6142C299.034 49.1328 298.534 49.6778 297.985 50.1713C297.486 50.6214 296.905 51.0732 296.242 51.523C294.508 52.6989 292.473 53.7338 290.416 54.6168C284.161 57.2696 277.325 58.9697 270.565 60.3343C259.114 62.601 247.293 63.8837 235.592 64.7097C207.214 66.6354 178.698 65.9668 150.34 63.9979C126.588 62.3221 102.755 59.6347 79.216 56.1183C79.0303 56.0905 78.8446 56.0628 78.6588 56.035C70.9297 54.8791 63.2611 53.7136 55.6515 52.3819C49.1764 51.2483 42.825 50.0737 36.3489 48.8127Z" fill="var(--stroke-0, #05030C)"/>
</svg>
