<svg preserveAspectRatio="none" width="100%" height="100%" overflow="visible" style="display: block;" viewBox="0 0 250.488 72.0344" fill="none" xmlns="http://www.w3.org/2000/svg">
<path id="Vector 21" d="M168.471 12.4236C168.643 12.4503 168.818 12.4076 168.958 12.305C169.099 12.2024 169.192 12.0483 169.219 11.8765C169.246 11.7048 169.203 11.5295 169.1 11.3893C168.998 11.249 168.844 11.1552 168.672 11.1286C168.672 11.1286 168.672 11.1286 168.672 11.1286C162.344 10.1478 155.956 9.32139 149.534 8.61109C144.774 8.08499 139.956 7.61903 135.151 7.21417C117.194 5.71316 99.1869 4.96825 81.1647 5.16067C65.4643 5.37081 49.7576 6.16249 34.2176 8.71204C26.0699 10.1243 17.8858 11.877 10.3272 15.5272C8.12686 16.622 5.99273 17.9267 4.18968 19.5593C1.65373 21.7763 -0.307292 25.2186 0.0399482 28.8046C0.295218 32.2695 2.25459 35.2574 4.50817 37.6156C11.1005 44.1809 19.5978 47.8688 27.9549 51.1766C50.162 59.4533 73.5138 63.791 96.8567 67.0811C108.018 68.605 119.199 69.769 130.428 70.6085C141.379 71.4243 152.36 71.9161 163.345 72.0189C178.851 72.1381 194.417 71.5967 209.791 69.4206C221.84 67.4795 234.514 65.4155 244.637 57.7076C247.34 55.4776 249.657 52.4289 250.278 48.7998C251.11 44.5343 249.376 40.1739 246.724 36.9982C245.887 35.9627 244.875 34.8774 243.843 33.9507C241.594 31.928 239.045 30.1784 236.441 28.6337C231.756 25.874 227.026 23.758 222.012 21.8131C210.934 17.5673 199.357 14.5583 187.815 12.0583C151.081 4.33356 113.61 1.15015 76.2007 0.105559C73.4211 0.0351477 70.6471 0.0042524 67.8698 0.00040254C59.0328 -0.011658 50.2001 0.250158 41.3741 0.399747C38.9588 0.440731 36.549 0.493624 34.1466 0.558561C34.1424 0.558673 34.1385 0.560426 34.1356 0.563434C34.1328 0.566443 34.1313 0.57046 34.1314 0.574602C34.1315 0.578745 34.1332 0.582673 34.1362 0.585523C34.1392 0.588373 34.1433 0.589912 34.1474 0.5898C34.1474 0.5898 34.1474 0.5898 34.1474 0.5898C36.5498 0.524865 38.9594 0.471974 41.3747 0.430993C50.202 0.28138 59.034 0.562312 67.8541 0.868158C70.6267 0.964351 73.3953 1.06299 76.1706 1.152C113.518 2.44574 150.922 5.82547 187.463 13.6786C198.939 16.2168 210.438 19.2555 221.381 23.4503C226.331 25.3699 231 27.4306 235.564 30.1152C238.099 31.6161 240.561 33.3108 242.693 35.228C243.671 36.1056 244.665 37.0829 245.448 38.04C247.93 41.0014 249.428 44.7776 248.728 48.5288C248.208 51.6873 246.188 54.4308 243.652 56.5251C234.132 63.8173 221.498 66.0056 209.572 67.8992C194.319 70.0599 178.811 70.6052 163.358 70.4877C152.411 70.3866 141.461 69.8976 130.541 69.0854C119.343 68.2495 108.192 67.0899 97.0629 65.5717C73.7951 62.2975 50.4947 57.9591 28.497 49.7613C20.2376 46.5074 11.778 42.8824 5.52351 36.6455C3.38425 34.4157 1.64839 31.6886 1.43377 28.7007C1.14273 25.605 2.77517 22.6707 5.12754 20.5926C6.79229 19.0837 8.82671 17.8363 10.9497 16.781C18.2563 13.2471 26.3738 11.4875 34.449 10.0912C49.8675 7.55888 65.5278 6.76327 81.1809 6.5473C99.1513 6.34703 117.123 7.04761 135.041 8.52775C139.835 8.92699 144.642 9.38895 149.39 9.91371C155.796 10.6222 162.165 11.4463 168.471 12.4236Z" fill="var(--stroke-0, #05030C)"/>
</svg>
