<svg preserveAspectRatio="none" width="100%" height="100%" overflow="visible" style="display: block;" viewBox="0 0 239.299 62.1575" fill="none" xmlns="http://www.w3.org/2000/svg">
<path id="Vector 22" d="M61.6275 6.81139C61.8034 6.78871 61.9632 6.69706 62.0715 6.5566C62.1799 6.41614 62.2281 6.23838 62.2054 6.06242C62.1827 5.88646 62.0911 5.72672 61.9506 5.61833C61.8101 5.50995 61.6324 5.4618 61.4564 5.48448C61.4564 5.48448 61.4564 5.48448 61.4564 5.48448C58.7981 5.82709 56.1178 6.23095 53.4698 6.68589C51.3673 7.04711 49.2502 7.33777 47.1527 7.74962C43.3955 8.48776 39.6553 9.33519 35.9555 10.3481C35.9418 10.3519 35.928 10.3556 35.9143 10.3594C30.3479 11.8902 24.8373 13.7144 19.5344 16.0525C15.9795 17.6289 12.4678 19.4552 9.24697 21.7287C6.57433 23.6317 4.02324 25.872 2.18505 28.7556C0.985578 30.6409 0.154263 32.8464 0.0230075 35.1415C-0.121507 37.4281 0.425056 39.6995 1.37311 41.7338C1.51832 42.0473 1.67347 42.3561 1.83829 42.6603C3.27494 45.3233 5.43405 47.5547 7.77492 49.3112C15.3985 54.8408 24.5245 57.1143 33.39 58.8373C59.3435 63.307 85.6942 62.4122 111.739 61.0389C114.118 60.9013 116.472 60.7548 118.768 60.6045C141.099 59.141 163.571 57.1911 185.715 53.2206C195.956 51.3404 206.159 49.072 216.028 45.5127C219.377 44.2905 222.758 42.8711 225.942 41.165C228.018 40.0491 230.027 38.812 231.94 37.317C234.617 35.2126 237.111 32.5911 238.419 29.2213C238.998 27.7208 239.299 26.1488 239.299 24.52C239.306 22.4061 238.759 20.3214 237.742 18.4845C235.542 14.5478 231.789 12.0052 228.05 10.0708C214.044 3.42364 198.667 1.9742 183.624 0.758671C166.322 -0.410956 148.974 -0.130204 131.7 0.933933C120.109 1.6613 108.548 2.61785 97.0186 3.87668C92.7911 4.33854 88.6119 4.90779 84.4079 5.55037C79.2199 6.34383 74.0488 7.24368 68.8861 8.16839C66.5155 8.59289 64.155 9.07488 61.788 9.48111C60.8045 9.6499 59.8315 9.81975 58.8693 9.99027C58.8637 9.99126 58.8587 9.99444 58.8555 9.99911C58.8522 10.0038 58.8509 10.0096 58.8519 10.0152C58.8529 10.0208 58.8561 10.0258 58.8608 10.029C58.8655 10.0323 58.8712 10.0336 58.8768 10.0326C58.8768 10.0326 58.8768 10.0326 58.8768 10.0326C59.8389 9.86207 60.8118 9.69223 61.7953 9.52346C64.1623 9.11722 66.5526 8.81757 68.9373 8.49446C74.1317 7.79042 79.3428 7.22244 84.5533 6.69267C88.7759 6.26302 92.963 5.86209 97.183 5.42854C108.693 4.24714 120.235 3.37757 131.806 2.72674C149.025 1.77786 166.305 1.59009 183.486 2.75195C198.395 3.93826 213.742 5.46821 227.14 11.8498C230.705 13.6812 234.135 16.0932 235.991 19.4463C236.855 21.013 237.304 22.729 237.301 24.52C237.3 25.9032 237.048 27.2201 236.555 28.5025C235.446 31.3753 233.222 33.7735 230.708 35.7442C228.916 37.1448 226.998 38.3294 224.998 39.4042C221.929 41.0488 218.629 42.437 215.343 43.6355C205.658 47.1301 195.532 49.3881 185.359 51.2546C163.348 55.2018 140.935 57.15 118.637 58.6108C116.346 58.7607 113.997 58.9069 111.624 59.0442C85.6578 60.4187 59.3525 61.2873 33.7537 56.8726C25.0314 55.1918 16.0565 52.959 8.90734 47.7996C6.71423 46.1696 4.73613 44.1498 3.45734 41.7823C3.31043 41.5117 3.17244 41.2375 3.04347 40.9595C2.194 39.1366 1.73793 37.1877 1.85853 35.2523C1.96969 33.3098 2.66752 31.4218 3.73657 29.7354C5.37034 27.1595 7.74863 25.0331 10.3009 23.2152C13.3753 21.0383 16.7917 19.2539 20.2674 17.7059C25.4538 15.4075 30.8863 13.5917 36.3832 12.0557C36.3968 12.052 36.4103 12.0482 36.4239 12.0444C40.0776 11.0277 43.7629 10.1111 47.4741 9.30863C49.5451 8.86105 51.6074 8.36335 53.6963 8.00447C56.3262 7.55265 58.9882 7.15154 61.6275 6.81139Z" fill="var(--stroke-0, #05030C)"/>
</svg>
