<svg preserveAspectRatio="none" width="100%" height="100%" overflow="visible" style="display: block;" viewBox="0 0 250.837 86.1473" fill="none" xmlns="http://www.w3.org/2000/svg">
<path id="Vector 20" d="M210.964 35.9242C211.105 35.9866 211.265 35.9904 211.408 35.9349C211.552 35.8794 211.668 35.7691 211.73 35.6282C211.793 35.4873 211.797 35.3273 211.741 35.1836C211.686 35.0398 211.575 34.924 211.434 34.8616C211.434 34.8616 211.434 34.8616 211.434 34.8616C209.206 33.8746 206.935 32.9055 204.626 31.9548C197.767 29.1302 190.7 26.5014 183.672 24.1153C179.554 22.7173 175.438 21.3976 171.295 20.1419C156.041 15.5247 140.532 11.7207 124.908 8.61345C111.819 6.01644 98.5718 3.90198 85.3046 2.38042C78.4923 1.60132 71.6815 0.970472 64.83 0.554534C61.1822 0.333025 57.4148 0.168399 53.7981 0.0799668C49.5596 -0.0238656 45.3898 -0.0313868 41.2425 0.0858004C38.2132 0.173383 35.3872 0.312771 32.3121 0.556044C27.3191 0.957113 22.1016 1.60928 17.1323 2.78774C11.2693 4.3337 4.56582 6.10164 1.12747 12.0462C-1.1814 16.2561 0.36459 21.3006 2.98542 24.6767C17.1152 40.3756 37.5068 46.7323 56.1876 53.9111C72.2171 59.5872 88.5174 64.3024 104.944 68.4584C114.418 70.8486 123.947 73.0367 133.499 75.0298C137.515 75.8675 141.571 76.685 145.567 77.4533C149.328 78.1763 153.077 78.8811 156.781 79.5287C159.584 80.0185 162.363 80.4794 165.11 80.9196C169.955 81.6955 174.798 82.4193 179.695 83.0629C187.077 84.0298 194.299 84.8255 201.841 85.3819C215.376 86.0686 229.53 87.5873 242.803 82.6103C244.056 82.0054 245.044 81.4589 246.19 80.6601C248.205 79.2463 250.182 77.2046 250.699 74.4796C251.224 71.762 250.168 69.1473 248.837 67.0657C246.018 62.8115 242.24 59.8264 238.334 56.9641C230.469 51.3708 221.935 46.9562 213.288 42.8566C206.14 39.4947 198.871 36.5429 191.509 33.7453C190.463 33.348 189.393 32.9454 188.356 32.5597C183.822 30.8713 179.221 29.3964 174.672 27.7671C170.945 26.4326 167.199 25.1377 163.434 23.8789C163.432 23.8785 163.431 23.8786 163.43 23.8791C163.429 23.8797 163.428 23.8807 163.427 23.882C163.427 23.8832 163.427 23.8845 163.428 23.8857C163.428 23.8868 163.429 23.8877 163.43 23.8881C163.43 23.8881 163.43 23.8881 163.43 23.8881C167.196 25.1469 170.941 26.4419 174.668 27.7763C179.219 29.406 183.66 31.3054 188.131 33.1363C189.153 33.5552 190.208 33.9922 191.238 34.4244C198.489 37.4675 205.614 40.6897 212.688 44.1133C221.243 48.2845 229.681 52.7754 237.342 58.3315C241.138 61.1541 244.79 64.15 247.311 68.0317C248.512 69.9309 249.296 72.108 248.882 74.1257C248.496 76.1514 246.935 77.8474 245.106 79.1158C244.076 79.8278 243.162 80.3309 241.986 80.8927C229.743 85.472 215.35 84.114 201.987 83.3892C194.494 82.8365 187.303 82.0649 179.948 81.1184C175.069 80.4883 170.238 79.805 165.405 79.0521C162.665 78.6251 159.894 78.1694 157.097 77.6953C153.4 77.0689 149.653 76.4157 145.898 75.711C141.909 74.9625 137.859 74.1654 133.853 73.3319C124.323 71.3488 114.817 69.1669 105.365 66.788C88.9782 62.6519 72.7167 57.964 56.7511 52.3225C38.2 45.2655 17.6865 38.6076 4.31143 23.7007C1.8725 20.4985 0.627179 16.3708 2.54484 12.7609C5.31011 7.73013 11.7438 5.67955 17.4726 4.20147C22.3255 3.02505 27.4809 2.35979 32.4247 1.95484C35.4702 1.70904 38.274 1.56807 41.2822 1.48074C45.4007 1.36384 49.5467 1.37076 53.7638 1.47408C57.3623 1.56206 61.1127 1.72981 64.7454 1.95041C71.5685 2.36462 78.3584 2.96539 85.1502 3.73494C98.3777 5.23781 111.592 7.33859 124.65 9.91626C140.237 13.0004 155.709 16.7837 170.925 21.3646C175.058 22.6105 179.166 23.9097 183.277 25.285C190.294 27.6321 197.351 30.2157 204.183 33.0294C206.483 33.9764 208.745 34.9414 210.964 35.9242Z" fill="var(--stroke-0, #05030C)"/>
</svg>
