<svg preserveAspectRatio="none" width="100%" height="100%" overflow="visible" style="display: block;" viewBox="0 0 8.09437 216.897" fill="none" xmlns="http://www.w3.org/2000/svg">
<g id="Frame 64">
<path id="Vector 33" d="M3.69059 3.72728C3.77027 3.54135 3.77283 3.33139 3.69771 3.14358C3.62259 2.95577 3.47593 2.80549 3.29001 2.72581C3.10408 2.64613 2.89412 2.64357 2.70631 2.71869C2.5185 2.79381 2.36822 2.94047 2.28854 3.12639C2.28854 3.12639 2.28854 3.12639 2.28854 3.12639C2.07672 3.65177 1.81329 4.1235 1.69251 4.90993C1.69206 4.91397 1.69162 4.91802 1.69118 4.92207C1.57888 5.43805 1.93727 6.21833 2.2429 6.47325C2.24676 6.47732 2.25062 6.48135 2.25447 6.48537C2.51816 6.75319 2.78945 6.99002 3.20711 7.19199C3.27551 7.22369 3.34904 7.25383 3.43127 7.28067C3.44192 7.28414 3.45266 7.28753 3.46349 7.29083C3.97022 7.48819 4.70275 7.23698 4.98812 6.97077C4.99789 6.96314 5.00757 6.95546 5.01718 6.94773C5.91093 6.18754 6.20974 5.24704 6.45822 4.38516C6.46167 4.37225 6.46517 4.35937 6.46871 4.34649C6.64255 3.62627 6.57604 3.01059 6.32967 2.4601C6.32149 2.44273 6.31298 2.42507 6.30451 2.40788C5.82461 1.41505 4.76698 1.1218 4.14979 1.03043C4.13476 1.028 4.11989 1.02565 4.10518 1.02336C2.78069 0.904368 2.12794 1.54488 1.53095 1.91933C1.51969 1.92732 1.5085 1.93527 1.49739 1.94319C0.901951 2.3881 0.728504 2.94783 0.637773 3.42055C0.634207 3.44129 0.630789 3.4626 0.627691 3.48342C0.534074 3.98625 0.727302 4.59039 0.949242 4.91475C0.962031 4.93514 0.974778 4.95489 0.987669 4.97437C1.55752 5.82855 2.48887 6.22036 3.34324 6.29303C3.36909 6.29524 3.39496 6.29717 3.42085 6.29882C4.3793 6.40728 5.36369 5.72016 5.75382 5.08462C6.19177 4.44709 6.39968 3.77371 6.56648 3.23104C6.57888 3.19155 6.58974 3.15199 6.59921 3.11204C6.76001 2.33358 6.45888 1.82644 6.27775 1.48102C6.2643 1.45725 6.25051 1.43376 6.23638 1.41053C5.62978 0.424461 4.57544 0.107114 3.7733 0.0177731C3.75321 0.0155222 3.73314 0.0134744 3.7131 0.0116273C2.40285 -0.0978793 1.32556 0.581751 0.614414 1.39133C0.602043 1.40556 0.589873 1.41991 0.577908 1.43436C-0.416049 2.79828 0.134586 4.0358 0.316827 4.85489C0.324805 4.88367 0.333232 4.91215 0.342341 4.941C0.481111 5.41686 0.848509 5.90368 1.26064 6.16862C1.28545 6.18537 1.31049 6.20153 1.33562 6.21704C1.78722 6.48676 2.26561 6.60927 2.82811 6.54172C2.85021 6.53871 2.87222 6.53546 2.89412 6.53197C4.53567 6.23301 5.321 4.88521 5.66612 3.67345C5.67953 3.61993 5.69136 3.56426 5.70102 3.50654C5.78995 3.06863 5.66124 2.48775 5.40962 2.13219C5.37766 2.08354 5.34506 2.03854 5.31203 1.99618C4.94393 1.55089 4.56309 1.29149 3.99365 1.12811C3.94359 1.11522 3.89285 1.10412 3.84114 1.09486C3.20326 0.974276 2.59781 1.20864 2.21851 1.45003C2.18832 1.46873 2.15855 1.48782 2.12922 1.50728C1.27604 2.07943 0.705395 2.98991 0.617852 4.06267C0.613617 4.12481 0.613162 4.18702 0.61642 4.24885C0.699192 5.06593 1.13179 5.36635 1.31979 5.58614C1.34265 5.60913 1.36612 5.63205 1.3903 5.6549C1.67407 5.92487 2.09605 6.21011 2.62928 6.28862C2.67026 6.29475 2.71168 6.29964 2.75325 6.30322C3.42827 6.36657 4.02692 6.0482 4.38843 5.72716C4.40993 5.70854 4.43153 5.68927 4.45185 5.67062C4.94476 5.19174 5.24956 4.74636 5.48347 4.05963C5.49122 4.03434 5.49844 4.00949 5.5055 3.98369C5.64467 3.49558 5.65491 2.77594 5.19338 2.18775C5.17249 2.1612 5.15087 2.1353 5.12827 2.10978C4.75035 1.67284 4.17343 1.50616 3.74829 1.51157C3.7235 1.51145 3.69882 1.51176 3.67427 1.51248C2.65101 1.57838 2.08442 2.11282 1.62046 2.54936C1.60388 2.56588 1.58766 2.58267 1.57179 2.59968C0.678875 3.71927 1.04369 4.69059 1.25408 5.42278C1.27067 5.46963 1.28956 5.51484 1.31061 5.55861C1.63295 6.15975 2.05634 6.27928 2.34832 6.3801C2.65972 6.4668 2.92608 6.49465 3.26519 6.46054C3.30007 6.45652 3.33442 6.45154 3.36915 6.44545C4.13921 6.29707 4.52184 5.7853 4.7561 5.47197C4.76697 5.45683 4.7778 5.44153 4.7886 5.42606C4.89759 5.2683 5.00418 5.10073 5.10395 4.87208C5.1808 4.63886 5.37419 4.3526 5.17384 3.70178C5.14988 3.63848 5.12107 3.57783 5.08877 3.52122C4.77412 3.01937 4.42402 2.93341 4.19271 2.85224C3.9489 2.78251 3.74644 2.76375 3.54007 2.76157C3.51472 2.76146 3.4891 2.76173 3.46282 2.76244C3.01458 2.74195 2.31547 3.04505 2.0212 3.44613C2.00504 3.46527 1.98904 3.48494 1.97416 3.50383C1.59318 4.01809 1.45176 4.4602 1.37343 5.01432C1.37136 5.03219 1.36946 5.05007 1.36774 5.06797C1.325 5.54499 1.3746 6.19839 1.89935 6.74815C1.91537 6.76445 1.93164 6.78037 1.94815 6.79591C2.44985 7.25573 3.09429 7.3866 3.70964 7.22345C3.72643 7.21881 3.74313 7.21395 3.75972 7.20887C5.12466 6.67371 5.2433 5.59951 5.42661 4.91939C5.42979 4.90352 5.43283 4.88772 5.43579 4.87156C5.5025 4.52038 5.52696 3.96979 5.22651 3.46464C5.21499 3.44509 5.20309 3.4258 5.19105 3.40711C4.83026 2.8777 4.3943 2.68225 3.98085 2.5525C3.969 2.54905 3.95715 2.5457 3.94529 2.54242C3.06609 2.30062 2.21155 2.52454 1.55736 2.88041C1.54408 2.88762 1.53097 2.895 1.51804 2.90251C0.855488 3.32912 0.739384 3.82436 0.615227 4.18555C0.613077 4.19295 0.610959 4.20037 0.608872 4.20781C0.483987 4.66936 0.434632 5.27913 0.818267 5.88583C0.822542 5.89237 0.826854 5.89887 0.831199 5.90533C1.26923 6.51736 1.85616 6.74008 2.47711 6.75833C2.48077 6.75836 2.48442 6.75837 2.48808 6.75838C3.23147 6.75538 3.78444 6.37287 4.14597 6.01574C4.14622 6.0155 4.14646 6.01526 4.14671 6.01501C4.52417 5.58067 4.87218 5.3104 4.98702 4.33327C4.98712 4.32871 4.9872 4.32413 4.98726 4.31953C5.008 3.93302 4.786 3.46048 4.52806 3.23468C4.27246 2.99533 4.03361 2.89356 3.82009 2.81775C3.81788 2.817 3.81567 2.81625 3.81347 2.8155C3.41284 2.64484 2.63569 2.68023 2.20986 2.99706C2.20487 3.00028 2.19989 3.00352 2.19492 3.00678C1.69093 3.3732 1.25074 3.84259 1.28651 4.75658C1.28735 4.76536 1.28826 4.77416 1.28924 4.78297C1.33601 5.16578 1.48656 5.44456 1.66849 5.67783C1.92958 5.97943 2.22794 6.2825 2.89618 6.33988C2.90617 6.34026 2.91621 6.34054 2.92631 6.34071C3.55657 6.33959 3.91955 5.99135 4.11951 5.76613C4.32745 5.52108 4.44586 5.29093 4.54189 5.04727C4.54319 5.04391 4.54447 5.04055 4.54575 5.03719C4.62758 4.81862 4.69093 4.58328 4.70159 4.28944C4.70404 4.00561 4.68385 3.59423 4.31502 3.17595C4.30729 3.16757 4.29943 3.15927 4.29144 3.15104C3.96565 2.82585 3.61539 2.73991 3.31777 2.71712C3.01271 2.70649 2.72318 2.73061 2.34746 2.97455C2.33884 2.98051 2.33029 2.98672 2.32182 2.99318C1.8263 3.38855 2.086 4.02415 2.72687 4.17683C2.73015 4.17754 2.73297 4.17822 2.73495 4.17873C2.73697 4.17923 2.73825 4.17951 2.73956 4.17951C2.74088 4.17951 2.74216 4.17923 2.74418 4.17873C2.74616 4.17822 2.74898 4.17754 2.75226 4.17683C3.40325 4.04935 3.75894 4.38403 3.49731 4.60799C3.49323 4.61125 3.48912 4.61431 3.48499 4.61717C3.3061 4.72808 3.26194 4.70825 3.19138 4.71116C3.12783 4.70345 3.01712 4.69724 2.85768 4.54263C2.85398 4.53882 2.85035 4.53498 2.8468 4.53113C2.67672 4.32958 2.71047 4.22676 2.70446 4.22889C2.70561 4.22472 2.69904 4.27453 2.67838 4.32648C2.67805 4.32734 2.67772 4.32821 2.67739 4.32907C2.6544 4.39189 2.61338 4.45537 2.60691 4.46066C2.59564 4.48109 2.66669 4.35043 2.96032 4.34296C2.96465 4.34303 2.96892 4.34315 2.97313 4.34331C3.25089 4.37861 3.21075 4.42973 3.23283 4.43483C3.23935 4.44652 3.26055 4.46044 3.27489 4.5607C3.27513 4.56288 3.27536 4.56504 3.27556 4.5672C3.25864 4.8122 3.26166 4.67314 3.29171 4.67689C3.2917 4.67689 3.29168 4.6769 3.29164 4.67693C3.2968 4.69846 3.08967 4.70085 3.17316 4.70817C3.17351 4.70829 3.17385 4.7084 3.17419 4.70852C3.20804 4.71786 3.21042 4.73509 3.14571 4.67735C3.07999 4.63029 2.97625 4.41664 2.98937 4.29414C2.98939 4.29276 2.98941 4.29141 2.98944 4.29008C3.00522 4.14966 2.99416 4.26595 2.9408 4.34037C2.89046 4.42548 2.8139 4.52324 2.73992 4.59616C2.73983 4.59625 2.73974 4.59634 2.73965 4.59643C2.59485 4.74359 2.4807 4.76632 2.49206 4.76034C2.49204 4.76034 2.49203 4.76034 2.49202 4.76034C2.47883 4.77142 2.41528 4.70796 2.48891 4.7899C2.48956 4.79086 2.49021 4.79184 2.49086 4.79284C2.54448 4.89367 2.49863 4.85235 2.53261 4.74764C2.53303 4.74613 2.53346 4.74463 2.5339 4.74312C2.56913 4.57176 2.68997 4.50115 2.52196 4.63003C2.51866 4.63196 2.51526 4.63387 2.51177 4.63576C2.84865 4.45116 3.18663 4.40074 3.41342 4.46838C3.41671 4.46929 3.42 4.47022 3.42328 4.47117C3.51608 4.49075 3.57654 4.56983 3.51132 4.4891C3.50933 4.486 3.50724 4.48263 3.50512 4.47903C3.46248 4.40332 3.4942 4.38133 3.47055 4.511C3.46961 4.51612 3.46861 4.52134 3.46752 4.52678C3.41809 4.7769 3.34441 5.0087 3.2652 5.15648C3.18198 5.31388 3.13251 5.3144 3.17513 5.29826C3.17577 5.29806 3.17639 5.29788 3.17699 5.29771C3.23403 5.28933 3.24044 5.28005 3.31768 5.34107C3.32003 5.34328 3.3224 5.3456 3.32478 5.34802C3.39841 5.43808 3.33799 5.40366 3.35659 5.25944C3.35707 5.25452 3.3576 5.24949 3.3582 5.24435C3.37179 5.0773 3.48301 4.80739 3.54387 4.74003C3.54549 4.73797 3.5469 4.73625 3.54793 4.73504C3.591 4.71409 3.428 4.78059 3.51675 4.75976C3.52117 4.75964 3.52609 4.75958 3.53156 4.7596C3.57845 4.75906 3.63058 4.76861 3.63051 4.76956C3.63863 4.75995 3.53754 4.79008 3.35323 4.51122C3.33532 4.47985 3.31893 4.44545 3.30529 4.40939C3.20406 4.03844 3.30149 4.05279 3.26839 4.08285C3.25268 4.12081 3.2069 4.202 3.15025 4.28238C3.14463 4.29044 3.13889 4.29855 3.13303 4.3067C2.99765 4.50784 2.90413 4.51328 3.02397 4.47744C3.02821 4.4767 3.03237 4.4761 3.03644 4.47563C3.02623 4.47916 2.93609 4.4728 2.9099 4.4626C2.87075 4.46457 2.9482 4.41306 3.11117 4.69248C3.12087 4.71263 3.12973 4.73381 3.13755 4.75589C3.06153 4.5429 3.01587 4.31416 3.01467 4.14909C3.01105 3.97563 3.05905 3.92784 3.03307 3.96234C3.03244 3.96302 3.0318 3.96368 3.03117 3.96431C3.31789 3.66317 3.66752 3.49117 3.73317 3.50966C3.735 3.50961 3.73672 3.50959 3.73834 3.5096C3.78351 3.51363 3.69674 3.50999 3.63268 3.43471C3.62929 3.43087 3.62615 3.4271 3.62325 3.42342C3.56591 3.34493 3.61183 3.33566 3.57832 3.45626C3.57675 3.46201 3.57506 3.46783 3.57316 3.47403C3.51576 3.67632 3.28579 4.03461 3.10113 4.19829C3.09417 4.20468 3.08718 4.21091 3.0807 4.21651C2.95361 4.32469 2.91098 4.31163 2.92491 4.31256C2.92499 4.31257 2.92499 4.31257 2.92485 4.31255C2.92248 4.31314 2.86607 4.30059 2.76235 4.20242C2.75402 4.19456 2.74551 4.18626 2.73684 4.17753C2.54981 4.01518 2.56527 3.88774 2.6117 4.14378C2.61265 4.16178 2.61252 4.18029 2.61128 4.1985C2.63323 3.83441 2.88683 3.39195 3.23365 3.17234C3.24578 3.1643 3.2581 3.15639 3.27062 3.14863C3.43399 3.04915 3.48427 3.06074 3.48915 3.06166C3.49088 3.06197 3.49291 3.0624 3.49548 3.06306C3.53752 3.06491 3.70882 3.17724 3.73654 3.225C3.73893 3.22806 3.74001 3.22973 3.73951 3.22898C3.74731 3.25663 3.72465 3.1589 3.73039 3.1767C3.73004 3.17876 3.72933 3.18244 3.72801 3.18771C3.54585 3.88149 3.0189 4.53289 2.57974 4.55881C2.57275 4.55993 2.56568 4.56097 2.55852 4.56195C2.54521 4.56923 2.42755 4.5486 2.38516 4.51685C2.38272 4.51534 2.38049 4.51389 2.37849 4.51255C2.29335 4.44944 2.2824 4.43361 2.24764 4.33932C2.24583 4.33357 2.24406 4.32761 2.2423 4.32128C1.98424 3.51563 1.96969 2.79111 2.11711 2.70835C2.11877 2.70635 2.12047 2.70435 2.12222 2.70234C2.52594 2.23215 3.10231 1.9491 3.52974 2.00124C3.53676 2.00189 3.54379 2.00261 3.55083 2.0034C4.0668 2.05651 4.42443 2.25176 4.52944 2.44906C4.53264 2.45433 4.53579 2.45969 4.53888 2.46515C4.665 2.6668 4.64106 2.79422 4.655 2.65136C4.65646 2.64518 4.65818 2.6389 4.66015 2.63263C4.36987 3.7344 3.86348 4.42141 3.54828 4.30485C3.53669 4.3041 3.52512 4.30324 3.51358 4.30225C3.1196 4.27149 2.78637 4.08403 2.65396 3.8718C2.64963 3.86526 2.64563 3.85905 2.6419 3.85309C2.57794 3.73594 2.60946 3.80056 2.60394 3.77775C2.60486 3.77155 2.60589 3.76514 2.60696 3.75889C2.6276 3.60025 2.71812 3.5103 2.65674 3.57048C2.66671 3.56338 2.67667 3.5563 2.68661 3.54925C3.17901 3.17461 3.73958 2.94552 3.79895 2.99781C3.80956 2.99945 3.82011 3.00112 3.83059 3.00282C4.06145 3.03914 4.24652 3.09257 4.35387 3.14873C4.46368 3.20833 4.4813 3.23521 4.51212 3.29079C4.51547 3.29758 4.51889 3.30469 4.52224 3.3118C4.63357 3.53798 4.778 3.81002 4.75792 3.93718C4.75587 3.94767 4.75372 3.95813 4.75149 3.96855C4.60528 4.66846 4.316 5.3496 3.95445 5.66094C3.95132 5.66373 3.94827 5.6664 3.94532 5.66897C3.81132 5.75879 3.95371 5.70781 3.92314 5.72534C3.92215 5.72517 3.92104 5.72496 3.91981 5.7247C3.91028 5.7227 3.89435 5.71774 3.87519 5.70999C3.74784 5.65995 3.54496 5.51406 3.38466 5.3608C3.3822 5.35847 3.37978 5.35617 3.37738 5.35389C3.18858 5.14798 3.21522 5.25298 3.20795 5.0841C3.20808 5.08283 3.20822 5.08155 3.20837 5.08024C3.24626 4.76401 3.47825 4.22229 3.69059 3.72728Z" fill="var(--stroke-0, #05030C)"/>
<path id="Vector 26" d="M3.63411 33.2683C3.84101 33.1027 3.97368 32.8618 4.00294 32.5985C4.0322 32.3351 3.95565 32.071 3.79014 31.8641C3.62462 31.6572 3.38369 31.5245 3.12035 31.4952C2.85702 31.466 2.59284 31.5425 2.38594 31.7081C2.38594 31.7081 2.38594 31.7081 2.38594 31.7081C2.19684 31.874 1.92982 32.018 1.62443 32.5097C1.62342 32.5114 1.62241 32.5132 1.62141 32.515C1.36329 32.9406 1.35334 33.5646 1.54691 33.9775C1.54863 33.9815 1.55037 33.9855 1.55213 33.9895C1.83274 34.6469 2.46747 35.0805 3.11332 35.1815C3.11743 35.1822 3.12155 35.1829 3.12567 35.1835C3.7351 35.2515 4.04216 35.0395 4.30017 34.8771C4.30457 34.874 4.30894 34.871 4.3133 34.8679C4.84087 34.4988 5.09727 33.9316 5.20451 33.496C5.20564 33.4916 5.20674 33.4872 5.20783 33.4829C5.29283 33.1944 5.27455 32.6686 4.98816 32.3014C4.97996 32.2903 4.97159 32.2793 4.96308 32.2684C4.69013 31.923 4.34926 31.767 4.11375 31.6801C3.87969 31.5959 3.69684 31.558 3.55583 31.5219C3.55291 31.5211 3.55001 31.5204 3.54713 31.5197C2.91579 31.3689 2.17558 31.3693 1.46845 31.8494C1.46005 31.8553 1.45168 31.8614 1.44335 31.8674C0.700594 32.419 0.602754 33.2931 0.710386 33.8943C0.7118 33.9024 0.713252 33.9104 0.714742 33.9184C0.867755 34.5587 1.17821 34.7653 1.42162 34.9674C1.42905 34.9729 1.43646 34.9783 1.44386 34.9837C2.18768 35.4974 2.92329 35.2855 3.3351 35.1415C3.34262 35.1388 3.3501 35.136 3.35754 35.1332C4.01232 34.8886 4.4041 34.3579 4.61235 33.9142C4.61634 33.9058 4.62026 33.8974 4.62411 33.8891C4.83486 33.3951 4.76986 33.0101 4.61992 32.6452C4.61215 32.6276 4.60387 32.6099 4.59523 32.5923C4.33887 32.0873 3.92812 31.9091 3.6888 31.8151C3.43198 31.7208 3.23377 31.6865 3.06003 31.6541C3.05365 31.6529 3.04731 31.6518 3.04102 31.6507C2.19959 31.5225 1.58544 31.852 1.11708 32.2104C1.10855 32.2171 1.10006 32.2239 1.09161 32.2308C0.594696 32.6206 0.535125 33.266 0.57581 33.5604C0.577251 33.5752 0.578848 33.5898 0.580552 33.6041C0.697409 34.4147 1.19849 34.8401 1.60153 35.1184C1.61195 35.1253 1.62238 35.1322 1.63281 35.1389C2.20568 35.495 2.73729 35.3888 3.04159 35.3188C3.36579 35.2359 3.6012 35.129 3.81642 35.0336C3.82272 35.0308 3.82899 35.0279 3.83524 35.0251C4.48414 34.6842 4.67471 34.3672 4.9468 33.945C4.95278 33.9346 4.95868 33.9241 4.96451 33.9136C5.05299 33.7503 5.15368 33.5302 5.16848 33.215C5.18929 32.9002 5.05267 32.5339 4.89021 32.3296C4.87539 32.3097 4.86052 32.2908 4.84562 32.2726C4.44781 31.7691 3.78712 31.5393 3.30373 31.5192C2.80319 31.4912 2.39288 31.576 1.98944 31.7057C1.98397 31.7075 1.97852 31.7094 1.97309 31.7112C1.44957 31.887 1.13621 32.3376 1.01554 32.671C1.01444 32.6739 1.01335 32.6768 1.01226 32.6797C0.8053 33.21 0.946024 33.7722 1.113 34.0936C1.11308 34.0938 1.11316 34.0939 1.11325 34.0941C1.36895 34.5727 1.60818 34.8421 2.01385 35.1612C2.01566 35.1626 2.01748 35.1639 2.0193 35.1652C2.31674 35.4268 3.02835 35.6203 3.4427 35.5186C3.44782 35.5178 3.45292 35.517 3.458 35.5162C4.29314 35.3759 4.91184 34.8915 5.35029 34.3698C5.3542 34.3651 5.3581 34.3604 5.36198 34.3557C5.64444 34.0071 5.78422 33.6143 5.7997 33.1793C5.80001 33.1674 5.8002 33.1555 5.80028 33.1435C5.80869 32.6713 5.58062 32.2533 5.378 32.0153C5.37062 32.0063 5.36324 31.9975 5.35583 31.9888C4.37969 30.9629 3.34487 30.7431 2.06974 30.8096C2.06669 30.81 2.06363 30.8104 2.06056 30.8109C1.73353 30.847 1.37893 31.0647 1.2059 31.2733C1.02306 31.4826 0.943858 31.6613 0.881443 31.8083C0.880057 31.8117 0.878683 31.8151 0.87732 31.8184C0.495503 32.9471 0.865228 33.6862 1.14318 34.342C1.14525 34.3463 1.14733 34.3506 1.14942 34.355C1.53093 35.1809 2.38381 35.6248 3.02849 35.7676C3.03403 35.769 3.03956 35.7703 3.04507 35.7716C3.68975 35.9114 4.15684 35.6949 4.49465 35.4955C4.50227 35.4909 4.50985 35.4862 4.5174 35.4814C5.32238 34.961 5.64511 34.1657 5.78065 33.461C5.78224 33.4523 5.7838 33.4436 5.78532 33.4349C5.89485 32.7684 5.59859 32.2833 5.40347 32.004C5.19162 31.7108 4.98688 31.5127 4.81104 31.3345C4.80845 31.3319 4.80586 31.3293 4.80329 31.3267C3.91122 30.5208 3.02423 30.6394 2.34758 30.7044C2.34252 30.7051 2.33748 30.7058 2.33244 30.7065C1.99708 30.7477 1.66222 30.9384 1.47016 31.1268C1.27123 31.3161 1.16386 31.4899 1.08174 31.622C1.0791 31.6264 1.0765 31.6307 1.07394 31.6349C0.530714 32.6306 0.77754 33.4499 0.973353 34.1008C0.975671 34.1076 0.978004 34.1145 0.980351 34.1213C1.27712 34.992 2.03711 35.4762 2.65104 35.6919C2.65916 35.6948 2.66724 35.6977 2.6753 35.7005C3.161 35.8742 3.6215 35.7242 3.85958 35.5993C4.11497 35.467 4.27467 35.3299 4.41766 35.2015C4.6964 34.9434 4.89198 34.7015 5.07834 34.4711C5.07858 34.4707 5.07882 34.4704 5.07907 34.4701C5.47076 33.9829 5.54966 33.4062 5.55028 33.0005C5.55028 32.9993 5.55029 32.998 5.55029 32.9968C5.54682 32.541 5.45316 32.0961 5.15367 31.6428C5.15118 31.6392 5.14867 31.6355 5.14614 31.6319C4.409 30.6854 3.52078 30.7262 2.90325 30.7182C2.90007 30.7183 2.89689 30.7185 2.89372 30.7186C2.44612 30.7297 2.06648 30.9739 1.86897 31.1702C1.66018 31.3733 1.54457 31.5571 1.44544 31.7242C1.44335 31.7278 1.44126 31.7314 1.43919 31.735C1.03575 32.4638 0.815464 33.2943 1.12447 34.2837C1.12741 34.2921 1.1304 34.3004 1.13345 34.3087C1.66455 35.454 2.52183 35.5021 3.08918 35.6221C3.09443 35.6228 3.09966 35.6235 3.10489 35.6242C3.79147 35.7132 4.29474 35.3416 4.54231 35.1157C4.80923 34.8705 4.97566 34.6438 5.11198 34.4807C5.11469 34.4774 5.11737 34.4741 5.12004 34.4709C5.39696 34.1229 5.51187 33.7706 5.56258 33.4114C5.56293 33.4088 5.56327 33.4061 5.56361 33.4034C5.58854 33.226 5.58193 32.9518 5.49283 32.7108C5.4059 32.4693 5.28307 32.309 5.18919 32.1972C5.18916 32.1972 5.18913 32.1971 5.18911 32.1971C4.2549 31.1077 2.84999 31.1983 2.02995 31.3331C2.00809 31.3364 1.98635 31.3402 1.96476 31.3443C1.247 31.4956 0.887632 31.9652 0.664462 32.2823C0.437921 32.6202 0.301414 32.9288 0.177139 33.2144C0.167513 33.2368 0.15832 33.2593 0.149565 33.282C-0.253313 34.4519 0.356148 35.2828 0.751203 35.8005C0.768148 35.8215 0.785438 35.842 0.803381 35.8624C1.14445 36.2597 1.63319 36.4482 1.96521 36.5219C1.98583 36.5268 2.00646 36.5313 2.02709 36.5356C3.14752 36.7344 3.96013 36.2381 4.56752 35.7717C4.57996 35.7617 4.59229 35.7517 4.60451 35.7416C5.26515 35.2016 5.55611 34.4136 5.67635 33.7931C5.67981 33.7759 5.68301 33.7587 5.68596 33.7415C5.77354 33.1762 5.64019 32.7304 5.43299 32.3312C5.42734 32.3207 5.42161 32.3102 5.41582 32.2998C4.40036 30.7146 2.80517 30.8787 1.75693 30.953C1.71128 30.9582 1.66539 30.9651 1.61913 30.9739C1.01659 31.0716 0.532953 31.5689 0.346454 31.939C0.326813 31.9745 0.308421 32.0103 0.2913 32.0462C0.0747927 32.5076 0.0487714 32.9605 0.10359 33.3709C0.108134 33.4037 0.113353 33.4362 0.119204 33.4684C0.37652 34.603 1.03698 35.1388 1.58669 35.6407C1.61011 35.6607 1.63387 35.6802 1.65861 35.6995C2.06597 36.0427 2.69582 36.1661 3.06417 36.1534C3.09075 36.1535 3.11723 36.1532 3.14362 36.1524C4.45868 36.0568 5.17668 35.3203 5.77988 34.6704C5.79343 34.6548 5.80677 34.6392 5.81989 34.6235C6.40784 33.9513 6.55807 32.9544 6.41201 32.2177C6.40594 32.1825 6.39871 32.1479 6.39039 32.1139C6.19009 31.4159 5.77831 31.1654 5.491 30.9629C5.47347 30.9516 5.45584 30.9406 5.43813 30.9299C4.43687 30.3795 3.59512 30.527 2.85699 30.6537C2.83367 30.6585 2.81061 30.6637 2.78782 30.6694C1.86334 30.9581 1.62072 31.5277 1.37394 31.9065C1.36663 31.9193 1.35944 31.9322 1.35236 31.9452C0.820534 32.9161 0.965465 33.9775 1.22708 34.7573C1.23136 34.7701 1.23572 34.7829 1.24018 34.7956C1.39941 35.2509 1.68988 35.6417 2.04573 35.9288C2.05524 35.9365 2.06484 35.9441 2.07452 35.9517C2.43383 36.2484 3.03013 36.4408 3.54732 36.3515C3.55669 36.3502 3.56603 36.3487 3.57534 36.3472C4.61612 36.1586 5.17458 35.449 5.5446 34.8723C5.55035 34.863 5.55601 34.8537 5.56158 34.8444C6.11829 33.7487 5.71043 33.0028 5.51758 32.4417C5.51162 32.4274 5.50546 32.4131 5.49909 32.399C5.12766 31.6577 4.56345 31.5148 4.22869 31.392C3.86553 31.2808 3.5598 31.2342 3.26976 31.1886C3.25657 31.1866 3.24341 31.1847 3.23028 31.183C2.67734 31.116 2.20186 31.1945 1.70554 31.4105C1.69354 31.4159 1.68162 31.4215 1.66977 31.4272C0.920826 31.7906 0.627584 32.4857 0.492163 32.9574C0.423508 33.1987 0.383043 33.4251 0.353659 33.642C0.351881 33.6552 0.350246 33.6684 0.348751 33.6815C0.288775 34.3726 0.4922 34.8375 0.721395 35.2663C0.725694 35.2739 0.730025 35.2815 0.734388 35.289C0.984871 35.7139 1.3291 36.0575 1.81763 36.2893L1.99957 36.3526C2.00574 36.3541 2.01191 36.3556 2.01808 36.3571C2.83342 36.5347 3.45842 36.0971 3.8943 35.7304L3.96729 35.6938C3.96898 35.6922 3.97066 35.6905 3.97233 35.6889C4.11422 35.554 4.2176 35.3398 4.23472 35.1489C4.2553 34.9563 4.21618 34.788 4.18881 34.6364C4.18685 34.6266 4.17973 34.615 4.17203 34.6053C4.16416 34.5956 4.15634 34.5887 4.1473 34.5848C4.13825 34.5809 4.12785 34.5799 4.11537 34.5808C4.10307 34.5818 4.08972 34.5846 4.08124 34.5899C4.08124 34.5899 4.08124 34.5899 4.08124 34.5899C3.81726 34.7713 3.50666 34.745 3.38177 34.7028C3.38086 34.7027 3.37994 34.7026 3.37902 34.7025L3.45201 34.6659C2.99374 34.6685 2.61848 34.4556 2.47563 34.4121C2.47433 34.4118 2.47303 34.4115 2.47174 34.4112L2.65368 34.4745C2.60792 34.4564 2.50861 34.3721 2.46378 34.2883C2.4629 34.2868 2.46203 34.2853 2.46116 34.2838C2.36042 34.1181 2.32397 33.9037 2.33397 33.9076C2.33396 33.9077 2.33393 33.9079 2.3339 33.9081C2.35391 33.7587 2.38058 33.6206 2.41334 33.5062C2.48211 33.2535 2.57362 33.1991 2.53278 33.2292C2.53251 33.2294 2.53226 33.2295 2.53202 33.2296C2.6444 33.1753 2.85247 33.1439 2.96121 33.1628C2.96387 33.1632 2.96649 33.1635 2.96905 33.1639C3.2254 33.2027 3.46648 33.2468 3.63269 33.2991C3.81354 33.3408 3.81136 33.4441 3.67763 33.2203C3.67585 33.2163 3.67414 33.2124 3.67248 33.2084C3.85726 33.5884 3.81986 33.9711 3.84522 33.8215C3.8457 33.8207 3.8462 33.8198 3.84671 33.819C3.63331 34.1782 3.35173 34.3776 3.25967 34.3743C3.25861 34.3745 3.25755 34.3746 3.25649 34.3748C3.26958 34.3663 3.34073 34.3968 3.30411 34.3768C3.30339 34.3762 3.30263 34.3756 3.30183 34.375C3.21429 34.3042 3.15445 34.2176 3.12545 34.1338C3.12461 34.1314 3.12378 34.129 3.12298 34.1266C2.94808 33.6107 2.95207 33.1663 3.10464 32.9052C3.10676 32.9013 3.10892 32.8975 3.11112 32.8936C3.23345 32.6386 3.45152 32.5223 3.27027 32.6083C3.26593 32.6094 3.26144 32.6104 3.25682 32.6113C3.75097 32.4987 4.28076 32.5413 4.40353 32.6392C4.4059 32.6406 4.40816 32.6421 4.41031 32.6434C4.52921 32.7057 4.52484 32.8001 4.44955 32.5886C4.4471 32.5786 4.44491 32.5682 4.44305 32.5574C4.50212 32.925 4.44463 33.1498 4.28607 33.343C4.28213 33.3477 4.27809 33.3524 4.27393 33.3572C3.88201 33.8262 3.32682 34.1713 3.08635 34.1552C3.0815 34.1554 3.07677 34.1554 3.07214 34.1554C2.87968 34.1483 2.9254 34.1438 2.89093 34.1268C2.88868 34.125 2.88619 34.123 2.88337 34.1206C2.44778 33.7634 2.09901 33.2991 2.08503 33.1111C2.08412 33.106 2.08335 33.1012 2.08272 33.0966C2.06722 32.9972 2.08848 32.9138 2.09443 32.9069C2.09475 32.9063 2.0949 32.906 2.09486 32.9061C2.15015 32.8239 2.0794 32.9281 1.99501 32.9363C1.98991 32.9373 1.98548 32.9379 1.98188 32.9383C2.81666 32.8177 3.62461 33.0395 3.67015 33.2718C3.67121 33.2737 3.67226 33.2757 3.67331 33.2776C3.71405 33.3446 3.71675 33.442 3.71681 33.403C3.71699 33.4019 3.71721 33.4007 3.71746 33.3995C3.63628 33.8098 3.5008 34.065 3.33034 34.2025C3.32695 34.2053 3.32351 34.2081 3.32004 34.2109C2.97016 34.5031 2.55646 34.625 2.43067 34.5787C2.42786 34.5781 2.42509 34.5775 2.42235 34.5769C2.27649 34.5412 2.2884 34.5236 2.30411 34.5433C2.30454 34.5438 2.30488 34.5442 2.30511 34.5445C2.17656 34.3868 2.07957 34.2243 2.04027 34.1141C1.99951 33.9964 2.01925 33.9907 2.01299 34.003C2.01294 34.0031 2.01291 34.0032 2.01292 34.0032C2.11637 33.761 2.22213 33.5441 2.31781 33.4042C2.4132 33.2523 2.48309 33.2658 2.34238 33.3063C2.33873 33.3071 2.33505 33.3077 2.33136 33.3082C3.05405 33.1809 3.52105 33.2854 3.6671 33.4916C3.66711 33.4916 3.66711 33.4916 3.66712 33.4916C3.67541 33.5001 3.64399 33.4718 3.61008 33.3797C3.57499 33.2878 3.57643 33.1759 3.58109 33.1548C3.58114 33.1544 3.58118 33.154 3.58123 33.1536C3.57788 33.1961 3.54959 33.2409 3.56997 33.2101C3.57017 33.2099 3.57037 33.2096 3.57058 33.2094C3.40664 33.4109 3.2839 33.5614 3.20048 33.6352C3.10537 33.7233 3.16048 33.6229 3.36642 33.6434C3.36383 33.643 3.36124 33.6427 3.35864 33.6423C3.20679 33.6225 3.06307 33.5806 2.99018 33.5441C2.90785 33.5052 2.96163 33.5014 3.00911 33.6201C3.00889 33.6195 3.00865 33.6189 3.0084 33.6182C2.94661 33.4672 2.98392 33.0288 3.16962 32.7339C3.17056 32.7322 3.17149 32.7306 3.17242 32.729C3.21427 32.655 3.25745 32.6049 3.2506 32.6135C3.25241 32.6164 3.13245 32.7119 2.96759 32.7152C2.96935 32.7152 2.97112 32.7151 2.97288 32.7151C3.34547 32.681 3.62109 32.8539 3.50266 32.7682C3.50269 32.7682 3.50272 32.7683 3.50276 32.7683C3.51303 32.7758 3.55619 32.8924 3.55227 32.9883C3.55226 32.9888 3.55226 32.9894 3.55226 32.9899C3.55215 33.1822 3.51165 33.2345 3.51922 33.2215C3.51922 33.2215 3.51922 33.2215 3.51922 33.2215C3.35822 33.4229 3.19866 33.609 3.06896 33.7273C3.00726 33.7852 2.94808 33.823 2.95635 33.8171C2.95094 33.8176 3.11796 33.7384 3.33851 33.8158C3.33484 33.8145 3.33116 33.8132 3.32749 33.8119C3.0227 33.7027 2.89188 33.5553 2.86971 33.4713C2.8683 33.4672 2.86691 33.4631 2.86553 33.459C2.7172 33.0686 2.75056 32.6661 2.78362 32.6689C2.78512 32.6664 2.7866 32.664 2.78806 32.6616C2.83146 32.5882 2.86077 32.5599 2.83795 32.5833C2.82024 32.6054 2.70762 32.6756 2.61262 32.6848C2.61567 32.6844 2.61872 32.684 2.62177 32.6835C3.0451 32.6066 3.43676 32.7308 3.38927 32.7384C3.39177 32.7409 3.39426 32.7434 3.39675 32.7458C3.56397 32.9123 3.70432 33.0611 3.77657 33.1639C3.86051 33.2746 3.79589 33.2671 3.81724 33.0902C3.81654 33.0942 3.81582 33.0982 3.81508 33.1022C3.75556 33.4507 3.57869 33.7242 3.45391 33.7899C3.45232 33.7909 3.45075 33.7919 3.44919 33.7928C3.37681 33.8446 3.34632 33.8016 3.50999 33.8284C3.50718 33.8278 3.50437 33.8271 3.50157 33.8264C3.15032 33.7384 3.01114 33.6176 2.94939 33.4876C2.94806 33.4848 2.94673 33.4821 2.94541 33.4793C2.73382 33.0787 2.68797 32.5804 2.72899 32.5691C2.72929 32.5684 2.72959 32.5676 2.72988 32.5669C2.74121 32.5352 2.75165 32.5386 2.69772 32.6024C2.65184 32.6652 2.47464 32.778 2.34075 32.7892C2.34078 32.7892 2.34084 32.7892 2.34092 32.7892C2.78351 32.7397 3.63531 32.9864 3.83423 33.2838C3.8351 33.2848 3.8359 33.2857 3.83662 33.2866C3.86101 33.3203 3.79942 33.2428 3.80228 33.1303C3.80228 33.1293 3.8023 33.1284 3.80232 33.1275C3.80562 33.1021 3.79898 33.1159 3.82058 33.0844C3.81871 33.0866 3.81683 33.0889 3.81495 33.0912C3.59762 33.3551 3.32949 33.5182 3.1383 33.5439C3.13762 33.544 3.13696 33.5441 3.13633 33.5442C3.07504 33.532 3.28492 33.589 3.20201 33.5548C3.20169 33.5546 3.20136 33.5544 3.20104 33.5541C3.11323 33.4959 2.93465 33.2827 2.90458 33.209C2.90457 33.209 2.90456 33.209 2.90456 33.209C2.88046 33.1516 2.93231 33.2566 2.88272 33.3822C2.88249 33.3828 2.88225 33.3834 2.88202 33.3841C2.88329 33.3908 2.80937 33.5373 2.62475 33.6C2.62295 33.6007 2.62116 33.6013 2.61937 33.6019C2.81551 33.5358 3.04043 33.5023 3.17301 33.513C3.31788 33.5275 3.29912 33.5439 3.30194 33.5412C3.29761 33.5359 3.293 33.5301 3.28812 33.5235C3.2336 33.4611 3.16001 33.273 3.17194 33.1374C3.1796 33.0012 3.21449 32.9526 3.21679 32.9452C3.21572 32.9472 3.21452 32.9493 3.2132 32.9516C3.16144 33.0668 2.93348 33.2642 3.01107 33.205C3.00571 33.2074 3.00038 33.2098 2.99507 33.2122C2.81728 33.2931 2.6547 33.3571 2.56008 33.3797C2.45291 33.4121 2.51332 33.3443 2.716 33.4599C2.71251 33.4577 2.70905 33.4554 2.70561 33.4531C2.55145 33.3603 2.53271 33.2457 2.56451 33.3672C2.56445 33.3667 2.56443 33.3665 2.56443 33.3665C2.56347 33.3662 2.57139 33.3982 2.54827 33.485C2.52857 33.5692 2.44563 33.7103 2.3497 33.783C2.35263 33.7806 2.35556 33.7783 2.35851 33.776C2.52128 33.6371 2.72032 33.6084 2.69279 33.6181C2.69785 33.619 2.70287 33.6199 2.70785 33.6208C2.84109 33.644 2.95078 33.6712 2.98704 33.6858C3.03632 33.6998 2.91825 33.6903 2.80108 33.4716C2.79836 33.466 2.79585 33.4606 2.79356 33.4555C2.75761 33.3524 2.72023 33.2795 2.81095 33.0497C2.80958 33.0527 2.8082 33.0556 2.8068 33.0585C2.72723 33.2279 2.65245 33.2674 2.65752 33.2618C2.65445 33.263 2.6514 33.2641 2.64837 33.2652C2.5588 33.299 2.48562 33.31 2.47635 33.3091C2.46144 33.3067 2.54861 33.3137 2.6137 33.3639C2.61274 33.3632 2.61179 33.3625 2.61084 33.3618C2.56754 33.3472 2.6005 33.2757 2.67907 33.5529C2.67883 33.5516 2.6786 33.5503 2.67836 33.549C2.66731 33.4931 2.6738 33.4238 2.67819 33.4146C2.68524 33.4006 2.65836 33.4577 2.62296 33.4801C2.62315 33.48 2.62337 33.4798 2.62362 33.4796C2.64115 33.4549 2.85359 33.3984 3.06168 33.4579C3.06519 33.4588 3.06868 33.4596 3.07215 33.4605C3.23798 33.5012 3.36478 33.5328 3.42839 33.5569C3.49976 33.5815 3.46096 33.5871 3.39198 33.5029C3.38817 33.498 3.3844 33.4931 3.38067 33.488C3.24267 33.3153 3.24585 33.0541 3.26973 32.9972C3.26927 32.999 3.26882 33.0008 3.26836 33.0026C3.22147 33.1872 3.16703 33.2326 3.16051 33.2359C3.16033 33.2361 3.16016 33.2362 3.16 33.2363C3.15559 33.2537 3.14659 33.1866 3.43189 33.2091C3.43187 33.2091 3.43184 33.2091 3.4318 33.209C3.38821 33.1988 3.37724 33.1834 3.38293 33.1893C3.38316 33.1898 3.38338 33.1903 3.38361 33.1909C3.41445 33.238 3.41589 33.4195 3.36115 33.4976C3.36098 33.4979 3.36082 33.4982 3.36065 33.4985C3.30711 33.5649 3.44543 33.4098 3.63411 33.2683Z" fill="var(--stroke-0, #05030C)"/>
<path id="Vector 27" d="M3.98352 61.8928C4.20058 61.7842 4.36564 61.5939 4.44238 61.3637C4.51912 61.1335 4.50127 60.8822 4.39274 60.6651C4.2842 60.448 4.09389 60.283 3.86366 60.2062C3.63343 60.1295 3.38214 60.1474 3.16508 60.2559C3.16508 60.2559 3.16508 60.2559 3.16508 60.2559C2.8532 60.4277 2.79305 60.5805 2.72985 60.6757C2.67322 60.7777 2.65071 60.8427 2.62991 60.9031C2.59145 61.0208 2.5762 61.1029 2.56262 61.1811C2.53774 61.3328 2.52914 61.4576 2.52345 61.5772C2.51324 61.8152 2.51945 62.0316 2.53115 62.2445C2.55562 62.6694 2.6053 63.0754 2.66855 63.4787C2.66958 63.4852 2.67064 63.4917 2.67173 63.4982C2.69101 63.6129 2.72095 63.7364 2.77035 63.8656C2.87616 64.1641 3.13768 64.4925 3.43027 64.6616C3.72014 64.8366 3.98935 64.8908 4.18266 64.9229C4.19336 64.9246 4.20406 64.9262 4.21475 64.9278C4.64127 64.9865 5.0791 64.9478 5.52233 64.7557C5.53319 64.7509 5.54397 64.746 5.55468 64.741C6.6177 64.131 6.73408 63.4132 7.01421 62.8563C7.01808 62.8468 7.02189 62.8373 7.02563 62.8278C7.23907 62.3742 7.18936 61.6112 6.92111 61.2053C6.9162 61.1968 6.91123 61.1883 6.90619 61.1799C6.13202 60.148 5.42642 60.2015 4.82651 60.0445C4.21618 59.9436 3.63978 59.9224 3.07018 59.9291C3.06034 59.9293 3.05052 59.9295 3.04071 59.9297C1.75167 59.9206 0.769214 60.9633 0.33778 61.7007C0.328246 61.7157 0.31896 61.7308 0.309923 61.746C-0.0708572 62.4127 -0.000274181 63.0198 0.0684721 63.4673C0.0705947 63.4797 0.0728005 63.492 0.0750881 63.5043C0.289755 64.6046 1.07587 65.3011 1.81331 65.7159C1.82679 65.7234 1.84038 65.7308 1.85406 65.7379C2.42318 66.0549 3.11484 65.9194 3.44548 65.7803C3.45437 65.7769 3.46323 65.7735 3.47206 65.77C4.51754 65.3229 5.00911 64.5847 5.45197 63.9343C5.45535 63.929 5.45871 63.9238 5.46205 63.9186C6.00624 63.0958 6.00292 62.0087 5.67047 61.2076C5.66602 61.1964 5.66146 61.1853 5.6568 61.1743C5.04473 60.003 4.20342 59.9211 3.63508 59.6872C3.62234 59.6831 3.60955 59.6791 3.59673 59.6752C3.07967 59.5097 2.45624 59.5872 2.00659 59.8359C1.99647 59.8413 1.98642 59.8467 1.97644 59.8522C1.41409 60.1787 1.10209 60.6109 0.893335 61.1303C0.890783 61.1369 0.88826 61.1436 0.885766 61.1503C0.516588 62.1194 0.805044 63.1125 1.12953 63.7727C1.13294 63.7798 1.13638 63.7869 1.13985 63.794C1.42221 64.333 1.75693 64.6369 2.18792 64.9191C2.19248 64.922 2.19704 64.9248 2.20162 64.9276C2.64234 65.2106 3.24562 65.3051 3.70707 65.2308C3.70989 65.2304 3.71271 65.23 3.71552 65.2296C4.68483 65.0828 5.33477 64.4845 5.78527 63.936C5.7858 63.9354 5.78632 63.9347 5.78685 63.9341C6.29435 63.3293 6.39448 62.4484 6.17536 61.7809C6.17505 61.7799 6.17474 61.7789 6.17443 61.7779C5.92766 61.0507 5.37522 60.8048 5.05759 60.665C4.71146 60.5253 4.41702 60.4652 4.15769 60.4096C4.14561 60.4071 4.13347 60.4047 4.12126 60.4024C3.51959 60.2535 2.7665 60.6191 2.48173 61.0095C2.47755 61.0145 2.47339 61.0194 2.46925 61.0244C1.77171 61.8703 1.67596 62.94 1.92332 63.8598C1.92549 63.8676 1.9277 63.8753 1.92994 63.883C2.08895 64.3904 2.31993 64.7165 2.63251 65.0447C2.63677 65.049 2.64104 65.0533 2.64533 65.0576C2.91426 65.3398 3.45363 65.6541 4.03823 65.5897C4.04386 65.5892 4.04949 65.5886 4.05511 65.5881C4.74263 65.5032 5.11432 65.1128 5.35826 64.8404C5.60509 64.55 5.76543 64.2758 5.90983 64.0111C5.91212 64.0068 5.91439 64.0026 5.91665 63.9983C6.30754 63.2739 6.36713 62.3743 6.03873 61.5868C6.03683 61.5822 6.0349 61.5777 6.03296 61.5731C5.42364 60.4337 4.56336 60.4375 4.00585 60.314C3.98725 60.3115 3.96858 60.3093 3.94987 60.3075C3.5244 60.26 3.13072 60.463 2.94111 60.6255C2.73752 60.7939 2.63019 60.9446 2.53937 61.0763C2.53256 61.0864 2.52589 61.0966 2.51933 61.1068C1.90424 62.3173 2.25105 63.0007 2.37778 63.6994C2.37994 63.7076 2.38214 63.7158 2.38439 63.7239C2.46644 64.1291 2.86918 64.656 3.14324 64.8377C3.14837 64.8417 3.15352 64.8457 3.15869 64.8497C3.47351 65.07 3.75096 65.285 4.39538 65.3227C4.40494 65.3228 4.4145 65.3228 4.42405 65.3227C5.04099 65.3239 5.50437 64.9136 5.70225 64.6377C5.70533 64.6336 5.70839 64.6296 5.71144 64.6255C6.18408 63.9762 6.2032 63.2808 6.15167 62.7443C6.15124 62.7402 6.1508 62.7361 6.15035 62.732C6.13075 62.5532 6.08121 62.3702 6.00594 62.204C5.76617 61.6883 5.3736 61.3935 4.96189 61.2159C4.95081 61.2112 4.93964 61.2068 4.92839 61.2024C4.54607 61.0485 4.13495 61.2274 3.99372 61.4063C3.83234 61.5887 3.80254 61.7629 3.75272 61.8852L3.6878 61.9784C3.68777 61.9809 3.68771 61.9834 3.68761 61.9859C3.67214 62.4143 3.71089 62.8098 3.74741 63.1728C3.74589 63.1812 3.74599 63.1817 3.7461 63.1823C3.77111 63.3238 3.78115 63.4485 3.80965 63.5743C3.81037 63.5774 3.81254 63.5804 3.81527 63.5826C3.81803 63.5848 3.82113 63.586 3.8243 63.586C3.82747 63.586 3.83057 63.5848 3.83332 63.5826C3.83606 63.5804 3.83823 63.5774 3.83895 63.5743C3.86737 63.4495 3.87763 63.322 3.94449 63.2156C3.94476 63.2152 3.94503 63.2147 3.9453 63.2143C4.14451 62.9475 4.44386 62.7319 4.75034 62.5865C4.75212 62.5856 4.75394 62.5848 4.75579 62.584L4.69088 62.6772C4.72779 62.6971 4.79933 62.7791 4.75769 62.8997C4.73463 63.0167 4.46817 63.1714 4.21222 63.0677C4.20489 63.0649 4.19763 63.062 4.19046 63.059C4.21905 63.0676 4.22483 63.0993 4.18437 63.025C4.17426 63.003 4.16679 62.9748 4.16459 62.9533C4.16453 62.9528 4.16448 62.9523 4.16443 62.9518C4.1972 63.2248 4.13555 63.4109 4.1094 63.4315C4.10921 63.4317 4.10903 63.432 4.10884 63.4322C4.07528 63.4687 4.19038 63.3254 4.40432 63.3247C4.40731 63.3247 4.41027 63.3247 4.41322 63.3247C4.58711 63.3468 4.43329 63.3248 4.37869 63.2673C4.37757 63.2665 4.37645 63.2656 4.37536 63.2647C4.25511 63.1549 4.34807 63.2672 4.31069 63.1933C4.31032 63.192 4.30995 63.1906 4.30957 63.1892C4.24326 62.9387 4.19723 62.69 4.1862 62.4841C4.1672 62.2812 4.22829 62.1178 4.19895 62.1889C4.19825 62.19 4.19751 62.1911 4.19673 62.1923C4.22134 62.1534 4.24297 62.1398 4.19963 62.1774C4.16799 62.2095 3.97793 62.3218 3.76019 62.2965C3.75094 62.2957 3.74179 62.2946 3.73275 62.2933C3.91708 62.3181 4.08485 62.3611 4.18029 62.4037C4.28503 62.4476 4.24829 62.469 4.19709 62.3617C4.19676 62.3609 4.19644 62.3601 4.19611 62.3594C4.28143 62.5637 4.27521 62.839 4.15345 63.0585C4.15273 63.0599 4.152 63.0612 4.15127 63.0626C4.0473 63.2563 3.93554 63.4313 3.84302 63.538C3.7509 63.6554 3.692 63.6301 3.85061 63.6005C3.85178 63.6004 3.85295 63.6003 3.85412 63.6002C3.98925 63.5835 4.094 63.6721 4.05352 63.6401C4.05314 63.6397 4.05274 63.6393 4.05233 63.6389C3.95983 63.5504 3.85826 63.3765 3.84835 63.3246C3.84814 63.3239 3.84795 63.3232 3.84778 63.3226C3.74159 62.944 3.81575 62.5095 4.00333 62.3045C4.0045 62.3031 4.00568 62.3017 4.00687 62.3003C4.04735 62.2852 3.83617 62.4029 3.75288 62.3662C3.75133 62.3659 3.74984 62.3656 3.74841 62.3653C3.97989 62.4129 4.17868 62.4632 4.29826 62.5132C4.43592 62.5606 4.36049 62.6071 4.26726 62.3736C4.26717 62.3733 4.26708 62.373 4.26699 62.3728C4.30892 62.5279 4.28742 62.6101 4.23355 62.6773C4.23348 62.6774 4.2334 62.6775 4.23333 62.6776C3.95622 63.026 3.63911 63.2312 3.43471 63.2514C3.43407 63.2514 3.43342 63.2515 3.43278 63.2516C3.3147 63.2634 3.30435 63.2548 3.24624 63.2244C3.24564 63.224 3.24504 63.2236 3.24443 63.2233C3.11458 63.148 2.95343 62.9688 2.9324 62.9114C2.9321 62.9108 2.93182 62.9102 2.93156 62.9097C2.70478 62.4423 2.66242 62.0889 2.75815 61.8478C2.75884 61.8459 2.75955 61.844 2.76026 61.8421C2.79346 61.7375 2.91701 61.607 2.94147 61.6018C2.9417 61.6016 2.94188 61.6015 2.94201 61.6015C2.99712 61.5769 2.98715 61.5824 3.01973 61.5882C3.02055 61.5884 3.0214 61.5887 3.02227 61.5889C3.27084 61.6686 3.49335 61.7536 3.64673 61.839C3.8063 61.9228 3.84573 62.0032 3.81541 61.9498C3.81507 61.949 3.81472 61.9481 3.81437 61.9473C3.95025 62.3006 3.931 62.6086 3.77727 62.8445C3.77623 62.8461 3.77518 62.8477 3.77412 62.8494C3.44798 63.3667 3.02517 63.8122 2.7437 63.9095C2.74141 63.9104 2.73913 63.9113 2.73687 63.9121C2.57835 63.9657 2.68923 63.9135 2.78059 63.9677C2.78224 63.9686 2.78381 63.9694 2.78529 63.9702C2.35615 63.7358 2.07486 63.3917 2.03931 63.1382C2.03873 63.1351 2.03817 63.1319 2.03763 63.1288C1.9886 62.8827 2.03756 62.7263 2.02568 62.7699C2.02534 62.7704 2.02497 62.771 2.02457 62.7717C2.40489 62.1702 2.71959 61.9304 3.08846 61.9272C3.09175 61.9271 3.09507 61.927 3.09842 61.927C3.58205 61.9204 4.06502 61.9429 4.49424 62.0147C4.70722 62.0504 4.90841 62.1011 5.05386 62.1593C5.20269 62.2103 5.26592 62.3036 5.19144 62.2054C5.19054 62.2039 5.18964 62.2024 5.18874 62.2008C5.20144 62.2567 5.20897 62.085 5.21504 62.1326C5.21485 62.1333 5.21464 62.1341 5.21439 62.1349C5.12076 62.3794 5.02146 62.6066 4.92149 62.7775C4.82585 62.9513 4.71307 63.041 4.74209 63.021C4.74261 63.0208 4.74317 63.0206 4.74377 63.0204C4.69274 63.0482 4.57323 63.07 4.46544 63.0578C4.46269 63.0575 4.45994 63.0572 4.45719 63.0569C4.36134 63.0467 4.33849 63.0331 4.37445 63.0586C4.4121 63.081 4.47619 63.1711 4.47732 63.1954C4.48031 63.2064 4.47832 63.2061 4.4766 63.1955C4.4765 63.1949 4.4764 63.1943 4.47629 63.1937C4.42034 62.838 4.37781 62.4826 4.35833 62.1415C4.34879 61.9723 4.34524 61.8041 4.35169 61.6591C4.35471 61.5882 4.36132 61.5195 4.36763 61.483C4.37012 61.466 4.37459 61.4547 4.36625 61.4813C4.36076 61.496 4.35522 61.5178 4.32286 61.5765C4.28345 61.6303 4.25196 61.7434 3.98352 61.8928Z" fill="var(--stroke-0, #05030C)"/>
<path id="Vector 28" d="M3.06293 91.0173C3.10062 90.766 3.03695 90.5101 2.88592 90.3057C2.7349 90.1014 2.5089 89.9655 2.25763 89.9278C2.00636 89.8901 1.75041 89.9537 1.54609 90.1048C1.34176 90.2558 1.2058 90.4818 1.16811 90.7331C1.16811 90.7331 1.16811 90.7331 1.16811 90.7331C1.072 91.4983 0.860481 92.3177 1.12404 93.4166C1.1259 93.4234 1.12778 93.4302 1.12969 93.437C1.16339 93.5566 1.20457 93.6737 1.25224 93.7868C1.5446 94.4718 2.03403 94.9736 2.58147 95.3385C2.59043 95.3444 2.59937 95.3502 2.60827 95.356C2.80091 95.4797 3.02698 95.6141 3.33592 95.705C3.64092 95.7996 4.03518 95.8036 4.32541 95.7299C4.34515 95.7253 4.3644 95.7206 4.38354 95.7156C5.65721 95.3406 6.18805 94.3627 6.56348 93.5922C6.57142 93.5749 6.57928 93.5576 6.58706 93.5402C7.04477 92.5351 7.04727 91.263 6.34983 90.2335C6.33155 90.2072 6.31275 90.1811 6.29358 90.1555C5.25218 88.9475 4.07762 89.017 3.15693 88.9409C3.13204 88.9401 3.10725 88.9395 3.08258 88.9389C2.10156 88.8982 1.09956 89.4015 0.511751 90.1208C0.487487 90.1495 0.463392 90.1789 0.440088 90.2082C-0.0417753 90.8077 -0.0241853 91.5541 0.0691641 92.0121C0.165566 92.497 0.330104 92.8754 0.487897 93.223C0.498881 93.2469 0.509847 93.2705 0.520697 93.2937C0.954383 94.2208 1.79749 94.8334 2.69811 95.0861C2.73592 95.0966 2.77481 95.1068 2.81321 95.1161C3.28693 95.2337 3.72385 95.083 3.97585 94.9432C4.23954 94.7981 4.41185 94.6452 4.56485 94.5005C4.86358 94.2104 5.07586 93.9349 5.27919 93.6691C5.29538 93.6477 5.31149 93.6264 5.3275 93.6051C5.88339 92.8776 6.02315 91.9756 6.04737 91.3015C6.0488 91.2706 6.0501 91.2398 6.05127 91.21C6.07898 90.7579 5.87609 90.2542 5.58269 89.9506C5.53899 89.9032 5.4937 89.8591 5.44728 89.8179C4.27111 88.8054 2.8459 89.2769 2.03963 89.6806C2.01695 89.692 1.99386 89.7038 1.97224 89.715C1.23282 90.104 1.02431 90.8345 0.956392 91.2731C0.885965 91.7465 0.910793 92.1454 0.948724 92.5259C0.950871 92.5463 0.953084 92.5665 0.955356 92.5865C1.07373 93.6316 1.77676 94.35 2.34715 94.7915C2.36538 94.8057 2.3838 94.8199 2.40171 94.8336C2.86663 95.1949 3.47713 95.2382 3.92238 95.1077C3.96569 95.0957 4.00836 95.0822 4.05037 95.0673C4.72843 94.8497 5.29966 94.2119 5.5129 93.6311C5.74616 93.0482 5.78235 92.4825 5.78141 92.0101C5.78141 92.0083 5.78141 92.0065 5.78141 92.0048C5.78791 91.4057 5.43785 90.9307 5.17294 90.6904C4.89559 90.4342 4.63565 90.2877 4.39948 90.1609C4.39879 90.1605 4.3981 90.1601 4.39741 90.1598C3.83887 89.8926 3.42914 89.903 2.94025 90.0095C2.9355 90.0107 2.93074 90.0119 2.92598 90.0132C2.37822 90.1513 1.99679 90.5726 1.81514 90.8794C1.81153 90.8852 1.80796 90.8911 1.80442 90.8969C1.28102 91.8466 1.44916 92.6354 1.57081 93.2905C1.57289 93.3 1.57499 93.3094 1.57711 93.3189C1.69958 93.846 1.95962 94.2178 2.18337 94.5064C2.19095 94.516 2.19864 94.5257 2.2061 94.5351C2.30251 94.6532 2.41516 94.7923 2.63097 94.9474C2.83359 95.1017 3.23978 95.2556 3.59953 95.2069C3.63906 95.2027 3.67716 95.197 3.71444 95.19C4.42349 95.0487 4.80342 94.5536 5.01028 94.2127C5.2243 93.8499 5.33627 93.5162 5.42585 93.1883C5.42918 93.1758 5.43244 93.1634 5.43564 93.1511C5.61673 92.4652 5.54528 91.7285 5.28815 91.1042C5.28047 91.0853 5.27264 91.0666 5.26466 91.0479C5.12648 90.7049 4.81205 90.3607 4.46866 90.1943C4.43615 90.1777 4.40354 90.1623 4.37096 90.1481C4.04003 90.0049 3.6007 89.9452 3.14865 90.156C3.09352 90.1823 3.03953 90.2125 2.98777 90.2464C2.46793 90.5906 2.28676 91.105 2.21296 91.457C2.1389 91.8257 2.14463 92.1362 2.16788 92.4311C2.22663 93.0227 2.34011 93.5184 2.60218 94.1039C2.6044 94.1086 2.60662 94.1132 2.60886 94.1179C2.71639 94.3753 3.03769 94.6394 3.28865 94.7008C3.54162 94.7736 3.71259 94.7521 3.84629 94.7307C4.11 94.6778 4.26297 94.5975 4.44282 94.4667C4.44863 94.4623 4.45443 94.4578 4.46023 94.4532C5.47483 93.5936 5.28904 92.4552 5.12382 91.7678C5.11519 91.7352 5.10533 91.7033 5.09434 91.6721C4.99534 91.3935 4.82481 91.2078 4.67718 91.0875C4.35837 90.8402 4.09228 90.7738 3.80883 90.7369C3.79295 90.7352 3.77707 90.7337 3.76118 90.7325C3.15667 90.6813 2.5816 90.9943 2.2736 91.4242C2.26768 91.4322 2.26186 91.4402 2.25615 91.4482C1.90539 91.9869 1.8635 92.3448 1.80833 92.7848C1.808 92.7886 1.80767 92.7925 1.80735 92.7963C1.79784 92.9356 1.852 93.1605 2.0753 93.3971C2.30567 93.6448 2.66074 93.6593 2.90653 93.4855C2.93596 93.4649 2.96285 93.4469 2.98227 93.4342C3.00195 93.4211 3.01425 93.4121 3.02335 93.4002C3.03245 93.3882 3.03783 93.374 3.04519 93.3515C3.0523 93.3294 3.06249 93.2987 3.07451 93.2648C3.07451 93.2648 3.07451 93.2648 3.07451 93.2648C3.17139 92.9792 3.39275 92.8495 3.56765 92.9163C3.73395 92.9734 3.79375 93.0068 3.79867 92.9602C3.79876 92.9591 3.79885 92.958 3.79896 92.9568C3.80394 92.8092 3.89676 92.5657 3.88189 92.6097C3.8813 92.6105 3.88065 92.6114 3.87993 92.6124C3.84549 92.6626 3.74071 92.737 3.60609 92.7245C3.60235 92.7242 3.59856 92.7239 3.59471 92.7234C3.55848 92.7145 3.53975 92.7288 3.41697 92.638C3.36134 92.5922 3.26924 92.5018 3.20977 92.3358C3.20327 92.3174 3.19739 92.2983 3.19221 92.2788C3.24413 92.4708 3.26185 92.6702 3.24681 92.7851C3.22768 92.9097 3.21687 92.8845 3.2258 92.8821C3.22845 92.88 3.23106 92.878 3.23365 92.8761C3.31458 92.8195 3.35284 92.794 3.49469 92.7638C3.56763 92.7532 3.67497 92.7338 3.86839 92.7887C4.05974 92.833 4.32939 93.0541 4.41093 93.2549C4.41013 93.2533 4.40932 93.2516 4.4085 93.2498C4.29081 92.9983 4.18478 92.5856 4.15881 92.2626C4.14426 92.0997 4.1511 91.9459 4.16926 91.8634C4.18661 91.7699 4.2082 91.8287 4.08076 91.919C4.05742 91.9342 4.03309 91.9479 4.00859 91.9595C3.80262 92.0527 3.65755 92.015 3.57257 91.9797C3.569 91.9782 3.56506 91.9763 3.56078 91.9741C3.51448 91.9561 3.43804 91.8704 3.42762 91.8337C3.43101 91.8416 3.43433 91.8496 3.43758 91.8576C3.54654 92.1256 3.56696 92.3994 3.50164 92.6493C3.4996 92.6571 3.49753 92.665 3.49543 92.6729C3.44113 92.8788 3.36554 93.0719 3.29632 93.1858C3.22421 93.3133 3.19145 93.2654 3.34409 93.2266C3.35841 93.2239 3.37374 93.2216 3.39024 93.2198C3.54449 93.1956 3.7435 93.278 3.78006 93.3129C3.82774 93.3489 3.80161 93.3336 3.76993 93.2915C3.76488 93.2851 3.75979 93.2787 3.75489 93.2725C3.60934 93.091 3.53758 92.9421 3.52642 92.8802C3.52499 92.8739 3.52357 92.8675 3.52218 92.8612C3.41307 92.4223 3.45456 91.9846 3.51411 91.9309C3.51493 91.9296 3.51573 91.9283 3.51653 91.927C3.56927 91.8465 3.53637 91.9202 3.43755 91.9446C3.43748 91.9447 3.43743 91.9447 3.43739 91.9447C3.43875 91.9326 3.56873 91.9638 3.46487 91.9268C3.46534 91.9271 3.46581 91.9273 3.46628 91.9276C3.62579 92.0107 3.75439 92.0975 3.80607 92.1478C3.86716 92.2086 3.78271 92.1444 3.78337 92.0018C3.78337 92.0036 3.78336 92.0054 3.78336 92.0072C3.78699 92.3799 3.74488 92.6744 3.66096 92.8811C3.56897 93.088 3.51459 93.1299 3.38191 93.1843C3.38374 93.1837 3.3857 93.1831 3.38792 93.1825C3.39961 93.1757 3.511 93.1657 3.61432 93.2455C3.6015 93.2358 3.58854 93.2258 3.57592 93.2159C3.16406 92.9007 2.95879 92.5924 2.94068 92.3614C2.93897 92.3463 2.93731 92.3312 2.93572 92.3161C2.90559 92.0369 2.90094 91.7658 2.93049 91.5815C2.95966 91.3765 3.02005 91.4093 2.89129 91.4891C2.90538 91.4818 2.92035 91.4742 2.93495 91.4669C3.21854 91.3236 3.51167 91.2293 3.7275 91.2137C3.95208 91.2012 4.02775 91.2356 4.12125 91.3125C4.11972 91.3111 4.11742 91.3089 4.11442 91.3057C4.0931 91.2913 4.04705 91.1855 4.05476 91.1316C4.05374 91.1577 4.05264 91.1837 4.05147 91.209C4.03013 91.7616 3.93289 92.138 3.72978 92.4053C3.71539 92.4245 3.70106 92.4435 3.6868 92.4623C3.51096 92.6946 3.333 92.9136 3.18123 93.059C3.10786 93.1308 3.03726 93.1808 3.02563 93.1856C3.00456 93.1953 3.1183 93.1338 3.28407 93.1743C3.26796 93.1704 3.25139 93.1661 3.23508 93.1615C2.82545 93.0479 2.47423 92.7678 2.33034 92.4467C2.32107 92.4269 2.31185 92.407 2.30277 92.3873C2.17156 92.1042 2.06873 91.8346 2.03147 91.6358C1.99097 91.4218 2.03822 91.4028 2.0047 91.4509C2.01512 91.4378 2.02588 91.4246 2.03667 91.4119C2.3154 91.0869 2.65216 90.9274 3.03721 90.9364C3.05731 90.9369 3.0774 90.9374 3.09747 90.938C3.85043 90.9383 4.61578 91.1684 4.6937 91.3524C4.69847 91.3587 4.7034 91.3656 4.7084 91.3728C4.93386 91.6965 4.98523 92.2562 4.76397 92.7226C4.75851 92.7348 4.75301 92.7469 4.74748 92.759C4.49965 93.328 4.10378 93.7529 3.88 93.786C3.8768 93.7868 3.87392 93.7876 3.87131 93.7882C3.82981 93.7948 3.87214 93.7986 3.84785 93.8018C3.82658 93.8035 3.74648 93.7771 3.65151 93.7181C3.64702 93.7153 3.6425 93.7126 3.63797 93.7097C3.35054 93.53 3.11743 93.2779 3.01707 93.0385C2.9997 92.9982 2.98534 92.9579 2.97384 92.9171C2.97317 92.9147 2.9725 92.9123 2.97183 92.9099C2.85366 92.5032 2.94724 91.7632 3.06293 91.0173Z" fill="var(--stroke-0, #05030C)"/>
<path id="Vector 29" d="M3.55278 122.55C3.78388 122.461 3.97021 122.284 4.07077 122.058C4.17133 121.832 4.17789 121.575 4.08901 121.344C4.00012 121.113 3.82308 120.926 3.59681 120.826C3.37055 120.725 3.1136 120.719 2.8825 120.808C2.8825 120.808 2.8825 120.808 2.8825 120.808C2.40244 121.013 1.94028 121.095 1.24951 121.643C1.24687 121.646 1.24423 121.648 1.24159 121.651C1.0249 121.84 0.796099 122.164 0.717711 122.514C0.635503 122.863 0.674561 123.153 0.71394 123.362C0.714652 123.365 0.715367 123.369 0.716085 123.373C0.869412 124.137 1.33446 124.741 1.85451 125.154C1.96857 125.245 2.08692 125.328 2.20917 125.405C2.21515 125.408 2.22115 125.412 2.22715 125.416C2.95468 125.836 3.59507 125.62 3.95236 125.501C3.96036 125.498 3.96833 125.495 3.97627 125.492C5.70113 124.626 6.05578 123.422 6.64879 122.324C6.65316 122.315 6.65752 122.305 6.66187 122.296C7.02346 121.614 7.09856 120.283 6.18895 119.551C6.17094 119.536 6.15267 119.521 6.13416 119.506C4.63425 118.365 2.8422 118.742 1.5494 119.481C1.54493 119.484 1.54047 119.486 1.53603 119.489C0.47532 120.145 0.169586 121.276 0.0448133 122.095C0.0440216 122.101 0.0432374 122.106 0.0424605 122.111C-0.111202 123.043 0.374232 123.948 0.947426 124.447C0.953832 124.453 0.960247 124.458 0.966672 124.464C1.58741 124.981 2.19258 124.871 2.54845 124.806C2.55872 124.804 2.56893 124.802 2.57908 124.8C3.7296 124.488 4.19768 123.73 4.61463 123.155C4.61957 123.148 4.62448 123.141 4.62936 123.133C4.97865 122.603 5.25414 121.927 5.14954 121.113C5.14703 121.096 5.14433 121.078 5.14142 121.06C5.09059 120.712 4.86568 120.399 4.67911 120.244C4.48839 120.081 4.32626 120.004 4.1867 119.942C4.16993 119.935 4.15362 119.928 4.13736 119.921C3.29833 119.599 2.53853 119.693 1.85412 119.9C1.83736 119.905 1.82064 119.91 1.80394 119.916C1.08669 120.132 0.639512 120.839 0.516078 121.326C0.371372 121.841 0.365264 122.278 0.41073 122.736C0.41114 122.74 0.411555 122.743 0.411974 122.747C0.477055 123.324 0.814817 123.728 1.03779 123.953C1.0412 123.956 1.04459 123.96 1.04797 123.963C1.31472 124.231 1.70635 124.502 2.2312 124.565C2.24173 124.566 2.25229 124.567 2.26288 124.568C3.59702 124.569 4.00423 123.892 4.47655 123.519C4.48006 123.516 4.48357 123.513 4.48707 123.509C5.02255 122.999 5.38729 122.267 5.36307 121.435C5.36266 121.424 5.36219 121.413 5.36164 121.402C5.32895 120.903 5.06797 120.618 4.90939 120.462C4.73752 120.3 4.59136 120.211 4.45934 120.134C4.45235 120.13 4.44544 120.126 4.43861 120.122C3.36803 119.635 2.76789 119.87 2.13271 119.94C2.12443 119.941 2.11614 119.943 2.10785 119.944C1.26338 120.129 0.947372 120.682 0.728234 121.019C0.723366 121.027 0.718596 121.035 0.713921 121.043C0.212373 121.944 0.41161 122.753 0.53056 123.319C0.532585 123.328 0.534616 123.337 0.536651 123.345C0.626979 123.821 1.05932 124.309 1.4255 124.481C1.44085 124.49 1.45595 124.498 1.47115 124.505C1.95221 124.738 2.38793 124.77 2.85527 124.687C2.87408 124.683 2.89288 124.679 2.91173 124.675C4.12138 124.453 4.99814 123.277 5.23268 122.356C5.23614 122.345 5.23945 122.334 5.24262 122.322C5.43089 121.658 5.07421 121.096 4.77116 120.844C4.76716 120.841 4.76314 120.837 4.75912 120.834C3.76299 120.127 3.1094 120.355 2.54442 120.349C2.54048 120.349 2.53655 120.349 2.53261 120.35C2.08995 120.376 1.51259 120.592 1.15382 121.046C1.15271 121.047 1.1516 121.049 1.1505 121.05C0.40506 122.068 0.668343 123.02 0.871965 123.719C0.872713 123.721 0.873464 123.723 0.87422 123.725C1.14857 124.437 1.5712 124.69 1.95991 124.926C1.96069 124.926 1.96147 124.927 1.96225 124.927C2.15655 125.035 2.44146 125.145 2.76706 125.146C3.09267 125.15 3.38084 125.044 3.57674 124.939C3.57899 124.937 3.58125 124.936 3.5835 124.935C4.28031 124.557 4.73051 123.944 4.98193 123.292C4.98305 123.289 4.98416 123.286 4.98527 123.283C5.16154 122.842 5.07569 122.32 4.91516 122.008C4.91225 122.002 4.90932 121.996 4.90636 121.99C4.67415 121.543 4.37512 121.302 4.02604 121.113C4.01903 121.109 4.012 121.105 4.00494 121.102C3.08397 120.683 2.39158 120.88 1.81982 120.994C1.8137 120.995 1.80759 120.996 1.8015 120.998C1.33404 121.092 0.871127 121.484 0.680462 121.841C0.674035 121.852 0.66775 121.863 0.661604 121.874C0.417208 122.319 0.378292 122.756 0.433197 123.168C0.435179 123.182 0.437298 123.196 0.439553 123.21C0.568196 124.041 1.1566 124.664 1.73533 124.989C1.74701 124.995 1.75868 125.002 1.77036 125.009C2.26731 125.271 2.68226 125.264 3.06468 125.213C3.08196 125.211 3.09935 125.208 3.11658 125.205C4.07013 125 4.49764 124.448 4.87135 124.064C4.87973 124.055 4.88806 124.046 4.89632 124.037C5.32604 123.524 5.35935 123.071 5.38204 122.681C5.38251 122.663 5.3828 122.644 5.3829 122.626C5.40413 122.265 5.21295 121.696 4.87787 121.403C4.85581 121.382 4.83365 121.362 4.81143 121.343C3.9222 120.679 3.25519 120.844 2.67984 120.892C2.66228 120.894 2.64479 120.897 2.62735 120.9C1.92794 121.02 1.59799 121.52 1.44183 121.779C1.43101 121.797 1.42071 121.815 1.41091 121.833C0.914453 122.902 1.27824 123.541 1.42765 124.076C1.43358 124.093 1.43957 124.109 1.44561 124.125C1.68677 124.792 2.22972 125.412 2.99289 125.672C3.0204 125.681 3.04923 125.69 3.07759 125.699C3.73599 125.867 4.135 125.635 4.41738 125.479C4.44349 125.464 4.46882 125.448 4.49358 125.431C5.40506 124.736 5.49881 124.039 5.70442 123.447C5.71008 123.427 5.71564 123.407 5.72112 123.387C5.85826 122.96 5.75255 122.398 5.62247 122.123C5.61176 122.097 5.60128 122.073 5.59131 122.05C5.46608 121.76 5.23403 121.42 4.88517 121.191C4.84854 121.167 4.81107 121.144 4.77298 121.123C4.38012 120.911 4.01667 120.843 3.58549 120.885C3.54045 120.89 3.49462 120.897 3.4479 120.906C3.02892 120.977 2.58955 121.272 2.36455 121.623C2.33634 121.664 2.31041 121.706 2.2866 121.749C1.56714 123.119 2.20643 124.364 2.77479 125.17C2.78031 125.178 2.78572 125.185 2.79101 125.192C2.91878 125.369 3.17238 125.597 3.5008 125.684C3.82717 125.773 4.10683 125.718 4.28988 125.659C4.31126 125.652 4.33135 125.645 4.35125 125.638C5.98764 124.904 6.00642 123.439 6.19974 122.634C6.20175 122.623 6.20365 122.612 6.20543 122.601C6.25769 122.342 6.20985 121.893 5.98261 121.585C5.76398 121.279 5.52727 121.159 5.37905 121.08C5.37004 121.076 5.36102 121.071 5.35198 121.067C4.63552 120.73 3.944 120.857 3.41455 121.091C3.38169 121.106 3.34919 121.121 3.31703 121.137C3.30534 121.143 3.2938 121.149 3.28241 121.155C2.85622 121.396 2.71591 121.696 2.61633 121.903C2.52149 122.119 2.47817 122.299 2.44502 122.471C2.44366 122.478 2.44234 122.485 2.44106 122.493C2.36257 122.863 2.42207 123.513 2.85772 123.939C2.86299 123.945 2.8683 123.95 2.87364 123.955C3.31267 124.377 3.9191 124.535 4.52523 124.33L4.79396 124.186C4.79617 124.184 4.79837 124.183 4.80057 124.181C5.01056 124.022 5.14676 123.789 5.23066 123.54C5.27321 123.415 5.30316 123.286 5.3268 123.153C5.35374 122.998 5.35643 122.957 5.40337 122.633L4.42353 122.371C4.42336 122.373 4.42324 122.376 4.42313 122.378C4.45764 122.659 4.60972 122.911 4.7045 123.175C4.70531 123.177 4.70737 123.18 4.70945 123.182C4.71158 123.184 4.71357 123.185 4.71575 123.186C4.71792 123.186 4.72031 123.186 4.72315 123.186C4.72595 123.185 4.72897 123.184 4.73079 123.183C4.73079 123.183 4.73079 123.183 4.73079 123.183C4.9488 123.018 5.22003 122.841 5.38499 122.695C5.38565 122.695 5.38624 122.695 5.38676 122.695L4.40692 122.433C4.40203 122.288 4.29808 122.405 4.22316 122.406C4.14203 122.427 4.0576 122.446 3.97827 122.462C3.81895 122.496 3.68276 122.521 3.59536 122.587C3.59443 122.588 3.5935 122.589 3.59258 122.589L3.86131 122.445C4.04562 122.392 4.15604 122.423 4.27787 122.534C4.27943 122.535 4.281 122.537 4.28257 122.539C4.42004 122.671 4.41201 122.866 4.40894 122.839C4.40896 122.838 4.40899 122.838 4.40902 122.838C4.42038 122.774 4.43877 122.72 4.44132 122.716C4.43918 122.706 4.43633 122.791 4.22418 122.917C4.21857 122.92 4.21284 122.923 4.207 122.926C4.2157 122.922 4.22444 122.917 4.2332 122.913C4.38208 122.842 4.50925 122.868 4.47811 122.864C4.47791 122.864 4.4777 122.864 4.47749 122.864C4.5068 122.875 4.44506 122.866 4.34185 122.726C4.2323 122.583 4.21437 122.347 4.23277 122.284C4.23327 122.281 4.23378 122.278 4.2343 122.275C4.11979 123.148 3.79354 123.794 3.66279 123.762C3.66698 123.761 3.67166 123.759 3.67717 123.757C3.72101 123.744 3.84792 123.708 4.03153 123.757C4.21668 123.806 4.35009 123.936 4.39053 123.995C4.3879 123.991 4.38517 123.987 4.38232 123.984C4.2054 123.744 4.05655 123.448 4.00021 123.215C3.94246 122.972 3.96637 122.841 4.02743 122.729C4.02533 122.733 4.02261 122.737 4.01916 122.743C3.99651 122.787 3.88521 122.863 3.82739 122.868C3.82176 122.869 3.81737 122.87 3.81397 122.87C3.78259 122.868 3.83308 122.88 3.79231 122.864C3.78894 122.862 3.78543 122.86 3.78196 122.857C3.74496 122.834 3.7401 122.806 3.76273 122.855C3.76794 122.867 3.77238 122.877 3.77609 122.886C3.81316 122.996 3.77886 122.874 3.79542 122.854C3.79115 122.87 3.78684 122.885 3.78249 122.9C3.67314 123.352 3.40529 123.799 3.3942 123.763C3.39035 123.765 3.38677 123.768 3.38356 123.77C3.34636 123.805 3.35739 123.721 3.64394 123.783C3.64124 123.782 3.63815 123.781 3.63492 123.78C3.52628 123.743 3.38811 123.625 3.31968 123.432C3.31537 123.421 3.31115 123.409 3.30701 123.398C3.14919 123.036 3.18653 122.636 3.15313 122.811C3.15681 122.805 3.16029 122.798 3.16354 122.793C3.2204 122.687 3.20065 122.819 2.94043 122.873C2.95055 122.871 2.96063 122.87 2.97069 122.868C3.29271 122.797 3.6517 122.919 3.5026 122.852C3.49999 122.85 3.49695 122.847 3.49354 122.844C3.4306 122.802 3.37187 122.609 3.38488 122.615C3.38486 122.62 3.38478 122.625 3.38465 122.63C3.39069 122.744 3.32012 122.826 3.40896 122.702C3.40225 122.71 3.39556 122.717 3.38889 122.725C3.10844 123.053 2.80049 123.254 2.76996 123.237C2.76737 123.237 2.76474 123.238 2.76212 123.238C2.70253 123.253 2.64333 123.218 2.74243 123.263C2.73834 123.261 2.73426 123.258 2.73018 123.256C2.51034 123.128 2.42447 122.987 2.41198 122.891C2.41177 122.889 2.41156 122.888 2.41138 122.887C2.4029 122.849 2.42371 122.808 2.40243 122.854C2.40271 122.854 2.40294 122.853 2.40313 122.853C2.42222 122.84 2.31533 122.94 2.26629 122.941C2.27074 122.94 2.27519 122.939 2.27963 122.938C2.69015 122.828 3.0844 122.849 3.10285 122.885C3.10328 122.885 3.10372 122.885 3.10415 122.885C3.12569 122.89 3.15608 122.943 3.11393 122.873C3.11375 122.872 3.11357 122.872 3.11337 122.872C3.10132 122.861 3.06271 122.703 3.11502 122.58C3.11461 122.581 3.11419 122.582 3.11377 122.583C3.01108 122.855 2.8207 123.081 2.63679 123.175C2.63674 123.175 2.63669 123.175 2.63665 123.175C2.62899 123.179 2.68984 123.147 2.78276 123.148C2.87567 123.149 2.93455 123.181 2.92667 123.177C2.92666 123.177 2.92664 123.177 2.92663 123.177C2.79149 123.116 2.70125 122.96 2.7679 123.088C2.76804 123.088 2.76818 123.089 2.76832 123.089C2.61265 122.675 2.68216 122.268 2.70389 122.307C2.70392 122.307 2.70394 122.307 2.70396 122.307C2.67224 122.35 2.61616 122.351 2.68919 122.342C2.68974 122.342 2.6903 122.342 2.69087 122.341C2.92221 122.324 3.13597 122.319 3.29519 122.334C3.45608 122.344 3.53639 122.404 3.46079 122.353C3.46024 122.352 3.45968 122.352 3.45912 122.351C3.40991 122.314 3.23265 122.104 3.32169 121.773C3.32319 121.767 3.32474 121.762 3.32635 121.757C3.13828 122.362 2.87604 122.631 2.47356 122.725C2.4724 122.726 2.47117 122.726 2.46988 122.726C2.44189 122.737 2.34797 122.716 2.37539 122.724C2.37447 122.723 2.37375 122.723 2.37321 122.723C2.35668 122.698 2.48198 122.83 2.47989 122.88C2.47833 122.874 2.47679 122.867 2.47527 122.861C2.35973 122.419 2.39203 122.09 2.43511 122.057C2.43758 122.053 2.44004 122.049 2.44249 122.045C2.54465 121.848 2.66406 121.847 2.46244 121.911C2.46887 121.91 2.47528 121.908 2.48168 121.907C2.72007 121.865 2.95312 121.837 3.14837 121.835C3.33919 121.827 3.5061 121.879 3.46042 121.864C3.46317 121.866 3.46586 121.867 3.46851 121.869C3.51762 121.896 3.54769 121.923 3.52748 121.905C3.51824 121.891 3.38852 121.79 3.36615 121.503C3.36623 121.505 3.36631 121.506 3.36637 121.508C3.37407 121.664 3.28601 121.9 3.10822 122.063C3.10533 122.066 3.10245 122.069 3.09957 122.072C2.91864 122.244 2.74196 122.396 2.59832 122.488C2.45434 122.588 2.36333 122.58 2.45741 122.58C2.45873 122.58 2.46004 122.58 2.46134 122.58C2.53223 122.591 2.51633 122.608 2.46607 122.556C2.46448 122.554 2.46291 122.553 2.46137 122.551C2.34821 122.438 2.38421 122.428 2.39706 122.52C2.39687 122.518 2.39668 122.516 2.39648 122.515C2.37085 122.294 2.38813 122.034 2.4328 121.891C2.49029 121.727 2.48025 121.803 2.43134 121.813C2.43995 121.81 2.44857 121.807 2.4572 121.805C2.80753 121.689 3.20229 121.691 3.38668 121.773C3.39034 121.774 3.39361 121.776 3.39655 121.777C3.42115 121.786 3.41921 121.795 3.36411 121.749C3.31286 121.71 3.19324 121.556 3.17012 121.386C3.17049 121.388 3.17086 121.391 3.17122 121.393C3.19368 121.516 3.13454 121.782 2.96717 122.025C2.96341 122.03 2.95963 122.036 2.95586 122.041C2.66048 122.506 2.26644 122.849 2.13995 122.851C2.13711 122.851 2.13433 122.852 2.13161 122.852C2.01288 122.889 2.05861 122.795 2.29611 122.972C2.29367 122.97 2.29124 122.968 2.28881 122.966C2.05587 122.749 1.9941 122.562 2.01908 122.403C2.01964 122.399 2.0202 122.395 2.02077 122.392C2.1075 121.766 2.32719 121.329 2.57676 121.195C2.57891 121.193 2.58109 121.192 2.58328 121.191C3.3491 120.734 4.41586 120.64 4.89363 121.073C4.89509 121.074 4.89643 121.075 4.89766 121.076C4.92097 121.102 4.91495 121.082 4.92488 121.139C4.9314 121.194 4.91412 121.318 4.84841 121.457C4.84465 121.465 4.84088 121.473 4.83711 121.481C4.42501 122.41 3.69478 123.482 3.28277 123.618C3.27893 123.62 3.27513 123.621 3.27138 123.622C3.18124 123.656 3.10981 123.672 3.10046 123.675C3.08564 123.677 3.17078 123.681 3.24189 123.729C3.23892 123.728 3.23595 123.726 3.23299 123.724C3.17252 123.689 3.11442 123.651 3.0598 123.61C2.80466 123.42 2.64282 123.185 2.59295 122.976C2.5926 122.975 2.59226 122.974 2.59192 122.972C2.57061 122.888 2.5773 122.873 2.56113 122.927C2.54613 122.982 2.48955 123.044 2.4962 123.033C2.49629 123.033 2.4964 123.033 2.49652 123.033C2.58617 122.94 3.10701 122.716 3.55278 122.55Z" fill="var(--stroke-0, #05030C)"/>
<path id="Vector 30" d="M1.8364 151.985C2.06911 151.985 2.29229 151.892 2.45684 151.728C2.6214 151.563 2.71384 151.34 2.71384 151.107C2.71384 150.875 2.6214 150.652 2.45684 150.487C2.29229 150.322 2.06911 150.23 1.8364 150.23C1.6395 150.23 1.48099 150.297 1.39133 150.349C1.31686 150.392 1.26563 150.434 1.22553 150.471C1.1532 150.539 1.12861 150.574 1.0991 150.613C1.05574 150.674 1.0329 150.716 1.01536 150.748C0.981133 150.813 0.964117 150.855 0.947027 150.896C0.91539 150.975 0.895341 151.035 0.875971 151.096C0.838263 151.215 0.809701 151.323 0.783372 151.429C0.731144 151.642 0.690225 151.844 0.653256 152.049C0.580402 152.455 0.526935 152.855 0.484937 153.256C0.484574 153.26 0.48422 153.263 0.483876 153.267C0.461771 153.485 0.473428 153.733 0.543157 153.976C0.772632 154.747 1.38921 155.134 1.8786 155.314C1.88255 155.316 1.8865 155.317 1.89046 155.318C2.63 155.566 3.32233 155.5 3.97918 155.238C3.9793 155.238 3.97941 155.238 3.97953 155.237C5.49661 154.731 6.38138 152.834 6.4067 151.599C6.41087 151.563 6.41377 151.527 6.41553 151.491C6.41015 150.579 5.98345 150.163 5.62076 149.793C5.59405 149.769 5.56672 149.745 5.53892 149.723C4.80206 149.193 4.26027 149.293 3.83279 149.285C3.3985 149.305 3.02522 149.36 2.66684 149.408C2.64288 149.411 2.61904 149.415 2.59532 149.419C1.63526 149.555 0.801053 150.21 0.341268 150.924C0.324461 150.949 0.308342 150.974 0.292926 151C-0.30145 152.233 0.177975 152.946 0.330276 153.54C0.338337 153.563 0.346671 153.585 0.355301 153.608C0.553535 154.09 0.812398 154.443 1.25468 154.773C1.27709 154.789 1.29989 154.804 1.32429 154.82C1.54141 154.968 1.90923 155.091 2.226 155.072C2.54307 155.057 2.76431 154.968 2.93481 154.893C2.94985 154.886 2.96479 154.879 2.97963 154.872C4.11793 154.267 4.5449 153.368 4.9213 152.543C4.92526 152.534 4.92916 152.524 4.93301 152.515C5.29604 151.681 5.16582 150.661 4.79482 149.957C4.79002 149.947 4.78515 149.937 4.78019 149.928C4.06829 148.79 3.12281 148.863 2.5242 148.797C2.51252 148.796 2.50086 148.796 2.48922 148.796C1.94963 148.783 1.45747 149.011 1.11794 149.313C1.11109 149.319 1.10431 149.325 1.09759 149.331C0.123574 150.442 0.360788 151.216 0.27522 151.929C0.275094 151.934 0.27498 151.939 0.274879 151.944C0.254985 153.06 0.854405 153.997 1.62231 154.587C1.62301 154.587 1.62372 154.588 1.62442 154.588C1.87893 154.801 2.35096 154.915 2.67731 154.84C3.00768 154.775 3.20846 154.639 3.3623 154.523C3.66235 154.284 3.81618 154.062 3.95883 153.848C3.95992 153.847 3.961 153.845 3.96208 153.843C4.28903 153.336 4.56464 152.791 4.75936 152.188C4.85597 151.886 4.93333 151.572 4.97206 151.22C4.99059 151.043 5.00057 150.859 4.98462 150.643C4.9565 150.423 4.96441 150.192 4.70773 149.78C4.70417 149.774 4.70055 149.769 4.69688 149.764C4.30348 149.235 3.8553 149.031 3.41416 148.886C3.40909 148.885 3.40402 148.883 3.39894 148.882C2.8123 148.725 2.34332 148.702 1.70697 148.877C1.69731 148.88 1.68763 148.883 1.67793 148.886C1.15387 149.019 0.631468 149.594 0.488274 149.965C0.483572 149.975 0.478958 149.985 0.474426 149.995C-0.204769 151.457 0.328327 152.986 1.02774 154.019C1.03044 154.023 1.03316 154.027 1.0359 154.031C1.21043 154.304 1.59423 154.57 1.93414 154.628C2.27446 154.695 2.53087 154.646 2.73598 154.594C2.73827 154.593 2.74055 154.593 2.74283 154.592C3.89682 154.201 4.20989 153.431 4.54037 152.85C4.54041 152.85 4.54045 152.85 4.54049 152.85C4.98428 151.899 4.67653 151.094 4.43746 150.536C4.43646 150.534 4.43547 150.531 4.43447 150.529C4.11245 149.851 3.50981 149.672 3.21947 149.586C3.21655 149.585 3.21364 149.584 3.21074 149.583C2.8196 149.479 2.42534 149.462 1.99432 149.58C1.98756 149.582 1.9808 149.584 1.97405 149.586C1.56079 149.681 1.0472 150.108 0.882026 150.512C0.877529 150.521 0.873112 150.53 0.868775 150.54C0.381743 151.517 0.449816 152.841 0.972433 153.759C0.97245 153.759 0.972468 153.759 0.972485 153.759C1.16258 154.201 1.82241 154.555 2.23485 154.523C2.23767 154.523 2.24048 154.523 2.24329 154.523C3.00812 154.499 3.36303 154.103 3.61253 153.857C3.86164 153.587 4.02676 153.329 4.17587 153.074C4.17671 153.072 4.17754 153.071 4.17838 153.07C4.33375 152.8 4.4627 152.511 4.55304 152.188C4.62552 151.839 4.75258 151.592 4.57982 150.906C4.57638 150.896 4.57276 150.886 4.56897 150.875C4.48941 150.611 4.19777 150.33 3.97823 150.253C3.75829 150.165 3.61504 150.167 3.50928 150.168C3.30065 150.177 3.19637 150.215 3.09464 150.249C2.93565 150.308 2.82344 150.362 2.65794 150.488C2.65529 150.49 2.65266 150.492 2.65003 150.494C2.11503 150.974 2.14679 151.39 2.10709 151.629C2.0881 151.883 2.10114 152.073 2.10951 152.243C2.10975 152.247 2.11 152.252 2.11027 152.256C2.12942 152.5 2.18872 153.034 2.74964 153.395C2.75478 153.398 2.75992 153.401 2.76504 153.404C3.34778 153.691 3.53101 153.583 3.68827 153.606C3.68919 153.606 3.69007 153.606 3.69094 153.606C3.75185 153.607 3.68496 153.586 3.66253 153.537C3.63756 153.488 3.6598 153.427 3.71627 153.362C3.83065 153.232 4.05392 153.074 4.33316 152.862C4.33437 152.861 4.33547 152.861 4.33628 152.86C4.33709 152.859 4.3376 152.859 4.33796 152.858C4.33831 152.858 4.33849 152.857 4.33872 152.856C4.33894 152.855 4.33926 152.854 4.33964 152.853C4.33964 152.853 4.33964 152.853 4.33964 152.853C4.42246 152.511 4.44565 152.229 4.34727 152C4.29703 151.886 4.20964 151.782 4.06955 151.708C3.93253 151.632 3.74741 151.607 3.69107 151.608C3.69012 151.608 3.68919 151.608 3.68827 151.608C3.5677 151.628 3.45472 151.537 3.78663 151.687C3.78961 151.689 3.79263 151.691 3.79566 151.693C3.94285 151.779 4.04343 151.932 4.07263 152.012C4.10559 152.096 4.10318 152.127 4.10451 152.133C4.10452 152.133 4.10453 152.133 4.10454 152.133C4.09583 151.984 4.09286 151.853 4.09868 151.789C4.08682 151.716 4.17864 151.784 3.89774 152.055C3.89637 152.056 3.89499 152.057 3.89361 152.058C3.82112 152.112 3.81487 152.111 3.76651 152.13C3.73383 152.14 3.70147 152.158 3.56629 152.165C3.4969 152.165 3.39142 152.17 3.20527 152.096C3.0199 152.033 2.75635 151.78 2.68883 151.551C2.68711 151.546 2.68552 151.542 2.68405 151.537C2.64468 151.391 2.67004 151.448 2.66139 151.482C2.65763 151.525 2.64618 151.587 2.6279 151.653C2.5912 151.785 2.52878 151.931 2.44817 152.07C2.4476 152.071 2.44703 152.072 2.44646 152.073C2.34739 152.245 2.23794 152.402 2.15081 152.495C2.0679 152.602 2.00009 152.548 2.25826 152.525C2.25895 152.525 2.25965 152.525 2.26035 152.525C2.35265 152.497 2.69119 152.675 2.7391 152.826C2.73911 152.826 2.73911 152.826 2.73912 152.826C2.47777 152.328 2.45996 151.864 2.68278 151.377C2.68272 151.378 2.68263 151.378 2.68251 151.378C2.69464 151.391 2.53834 151.52 2.53875 151.503C2.53885 151.503 2.53896 151.503 2.5391 151.503C2.54885 151.497 2.62814 151.493 2.67706 151.509C2.67837 151.509 2.67967 151.51 2.68095 151.51C2.84515 151.549 2.73558 151.584 2.61708 151.359C2.61765 151.361 2.61823 151.362 2.6188 151.363C2.78505 151.703 2.76839 151.98 2.75368 151.956C2.75368 151.956 2.75368 151.956 2.75368 151.956C2.56351 152.381 2.20924 152.71 2.22172 152.663C2.22175 152.663 2.22178 152.663 2.22182 152.663C2.20516 152.67 2.22648 152.651 2.3402 152.671C2.45333 152.685 2.63302 152.811 2.67891 152.894C2.67972 152.895 2.68052 152.896 2.68131 152.897C2.19831 152.187 2.01397 151.371 2.28587 150.838C2.28753 150.834 2.28914 150.831 2.29072 150.827C2.37673 150.686 2.27299 150.814 2.29737 150.785C2.29817 150.785 2.29907 150.785 2.30005 150.785C2.38353 150.751 2.69323 150.748 2.82511 150.796C2.82678 150.796 2.82844 150.797 2.8301 150.797C2.97228 150.833 3.09341 150.941 3.06342 150.915C3.06162 150.912 3.05988 150.91 3.05818 150.907C2.9465 150.715 2.99867 150.756 2.99243 150.796C2.9963 150.843 2.9948 150.922 2.98547 151.006C2.96703 151.178 2.92121 151.378 2.85717 151.577C2.72843 151.977 2.52904 152.38 2.28447 152.758C2.28394 152.759 2.2834 152.76 2.28287 152.76C2.21802 152.864 2.13755 152.948 2.13863 152.943C2.14311 152.943 2.17391 152.905 2.31731 152.875C2.45681 152.837 2.72869 152.903 2.83334 152.997C2.83364 152.998 2.83394 152.998 2.83424 152.998C2.47744 152.728 2.25625 152.312 2.27247 151.986C2.27251 151.985 2.27254 151.983 2.27258 151.982C2.28055 151.675 2.29987 151.38 2.3434 151.144C2.37767 150.907 2.48615 150.747 2.43811 150.813C2.43747 150.813 2.4368 150.814 2.43611 150.814C2.47521 150.781 2.48003 150.794 2.45011 150.793C2.4496 150.793 2.4491 150.793 2.4486 150.793C2.656 150.8 2.84765 150.829 2.96092 150.868C3.08438 150.908 3.05297 150.931 3.00845 150.852C3.00787 150.85 3.00729 150.849 3.00673 150.848C3.17949 151.203 3.19582 151.481 3.08429 151.757C3.08296 151.76 3.08162 151.764 3.08025 151.767C2.83489 152.373 2.41156 152.945 2.11602 153.07C2.11247 153.072 2.10896 153.073 2.10549 153.075C2.06733 153.094 2.0666 153.08 2.15327 153.075C2.23977 153.066 2.37834 153.116 2.40353 153.139C2.40706 153.141 2.40978 153.143 2.41187 153.144C2.36481 153.117 2.24297 152.966 2.21797 152.885C2.21646 152.881 2.21507 152.877 2.21377 152.873C2.12493 152.624 2.05411 152.388 2.02732 152.211C1.99519 152.029 2.03776 151.961 2.00697 152.027C2.00565 152.029 2.00425 152.031 2.00278 152.034C2.25793 151.655 2.55887 151.447 2.9085 151.392C2.91754 151.391 2.92669 151.389 2.93596 151.388C3.29114 151.34 3.63179 151.293 3.91736 151.281C4.19683 151.252 4.43562 151.355 4.28206 151.276C4.27716 151.272 4.27212 151.268 4.26704 151.263C4.41056 151.372 4.45484 151.584 4.43042 151.398C4.43081 151.391 4.43144 151.384 4.43235 151.377C4.336 152.497 4.01832 153.09 3.22077 153.44C3.22073 153.44 3.22069 153.44 3.22065 153.44C2.99393 153.544 2.66969 153.571 2.49329 153.52C2.49234 153.52 2.49139 153.52 2.49045 153.52C2.29662 153.468 2.22747 153.401 2.23723 153.453C2.23475 153.463 2.22808 153.464 2.23025 153.44C2.23028 153.439 2.23032 153.439 2.23036 153.438C2.26851 153.073 2.31722 152.711 2.38034 152.36C2.41213 152.184 2.44731 152.012 2.48719 151.85C2.50693 151.77 2.52829 151.691 2.54871 151.626C2.55862 151.595 2.56897 151.566 2.57362 151.555C2.57532 151.55 2.57708 151.549 2.5654 151.571C2.5589 151.583 2.54918 151.603 2.51867 151.645C2.49734 151.673 2.47928 151.7 2.4161 151.76C2.38086 151.792 2.33432 151.831 2.26436 151.871C2.18031 151.92 2.02795 151.985 1.8364 151.985Z" fill="var(--stroke-0, #05030C)"/>
<path id="Vector 31" d="M2.66957 181.594C2.87904 181.441 3.0194 181.212 3.0598 180.956C3.10019 180.7 3.0373 180.439 2.88497 180.229C2.73263 180.02 2.50332 179.88 2.24749 179.839C1.99166 179.799 1.73026 179.862 1.5208 180.014C1.32474 180.157 1.11392 180.308 0.886387 180.5C0.663982 180.706 0.39255 180.889 0.149269 181.439C0.148584 181.441 0.1479 181.442 0.147219 181.444C-0.0700358 181.966 0.0818596 182.561 0.258574 182.872C0.438046 183.206 0.636796 183.422 0.826584 183.615C1.14376 183.929 1.45819 184.166 1.7565 184.382C1.7749 184.395 1.79335 184.408 1.81207 184.421C2.31181 184.768 2.93575 184.855 3.39787 184.822C3.4183 184.821 3.43866 184.819 3.45895 184.817C4.97256 184.577 5.51994 183.633 6.07563 182.926C6.08368 182.914 6.09162 182.903 6.09947 182.891C6.53698 182.227 6.67271 181.539 6.65538 180.836C6.655 180.826 6.65456 180.816 6.65406 180.806C6.61467 180.165 6.40324 179.518 5.8126 178.988C5.80497 178.981 5.79731 178.975 5.7896 178.969C5.10158 178.422 4.39675 178.49 3.93068 178.541C3.4418 178.609 3.03883 178.733 2.66165 178.847C2.64868 178.851 2.63576 178.855 2.62287 178.859C1.64465 179.161 0.998877 179.992 0.662762 180.684C0.65888 180.692 0.65504 180.7 0.651241 180.707C0.111627 181.841 0.433457 182.941 0.721395 183.715C0.726208 183.728 0.731152 183.741 0.736225 183.753C0.95557 184.315 1.47639 184.748 2.04613 184.878C2.05756 184.881 2.06898 184.883 2.08037 184.886C2.75122 185.01 3.23292 184.836 3.68207 184.557C3.68835 184.553 3.6946 184.549 3.70081 184.544C4.87022 183.548 4.85921 182.725 5.18434 181.967C5.18577 181.962 5.18719 181.958 5.18861 181.954C5.49198 181.148 5.32959 180.05 4.76247 179.361C4.76046 179.359 4.75845 179.356 4.75643 179.354C4.27495 178.753 3.62229 178.633 3.19218 178.593C2.7393 178.557 2.35784 178.601 2.01044 178.646C1.99659 178.648 1.98279 178.65 1.96905 178.652C1.29248 178.76 0.854167 179.203 0.603397 179.575C0.598279 179.582 0.593214 179.59 0.588203 179.598C-0.114035 180.842 0.232369 181.785 0.397234 182.591C0.398505 182.596 0.399788 182.601 0.401084 182.605C0.643746 183.379 0.977214 183.825 1.58613 184.315C1.58832 184.317 1.5905 184.319 1.5927 184.32C1.8206 184.498 2.2983 184.697 2.74707 184.614C3.18388 184.537 3.41648 184.353 3.59106 184.227C3.59177 184.227 3.59247 184.226 3.59317 184.225C4.41766 183.585 4.84376 182.735 5.12097 181.927C5.12223 181.924 5.12348 181.92 5.12472 181.916C5.26385 181.414 5.49398 180.773 4.97092 179.899C4.96326 179.887 4.95545 179.876 4.9475 179.865C4.67324 179.511 4.42507 179.434 4.23505 179.361C4.0392 179.297 3.87613 179.271 3.68235 179.264C3.67061 179.264 3.65883 179.264 3.64699 179.264C3.41739 179.257 3.10335 179.332 2.87556 179.484C2.64495 179.634 2.51151 179.806 2.41979 179.943C2.41231 179.954 2.4051 179.965 2.39802 179.977C1.79864 181.216 2.15574 181.86 2.29179 182.566C2.29432 182.575 2.29686 182.584 2.29941 182.593C2.49117 183.378 3.25797 184.03 3.96982 184.183C3.98254 184.186 3.99519 184.189 4.00777 184.192C4.467 184.295 4.80922 184.152 5.01665 184.044C5.23139 183.928 5.37186 183.807 5.49609 183.689C5.50561 183.68 5.51501 183.671 5.52432 183.662C6.11729 183.077 6.3551 182.304 6.41946 181.645C6.42076 181.632 6.422 181.62 6.42316 181.607C6.50492 180.734 6.06625 179.952 5.47889 179.485C5.46428 179.473 5.44956 179.462 5.43475 179.45C5.01055 179.131 4.58291 179.105 4.3181 179.097C4.30085 179.097 4.28413 179.097 4.26827 179.097C4.13301 179.098 3.92904 179.1 3.66154 179.213C3.39134 179.324 3.1571 179.567 3.05328 179.749C3.03247 179.784 3.01447 179.816 2.99814 179.848C2.32004 181.234 2.94217 182.556 3.55082 183.403C3.55367 183.407 3.55651 183.41 3.55933 183.414C3.87328 183.865 4.49537 184.128 5.01477 184.071C5.02603 184.07 5.03726 184.069 5.04845 184.068C5.71401 183.989 6.06948 183.579 6.27032 183.323C6.47811 183.045 6.5983 182.798 6.70636 182.565C6.70798 182.562 6.70959 182.558 6.7112 182.555C7.0591 181.771 6.97216 181.039 6.89941 180.493C6.89876 180.488 6.89811 180.484 6.89746 180.479C6.86455 180.145 6.61475 179.749 6.36772 179.577C6.12183 179.393 5.91796 179.33 5.74875 179.282C5.73939 179.279 5.73005 179.277 5.72074 179.275C5.1923 179.16 4.84273 179.168 4.32736 179.294C4.31517 179.297 4.30294 179.301 4.29067 179.305C3.83775 179.394 3.22805 179.965 3.1177 180.432C3.11227 180.448 3.10706 180.464 3.10207 180.48C3.00931 180.776 2.94292 181.1 2.93564 181.452C2.88565 182.18 3.31223 183.049 3.70876 183.451C3.70884 183.451 3.70892 183.451 3.709 183.451C3.91513 183.755 4.55656 183.932 4.85197 183.811C5.16705 183.718 5.30844 183.58 5.4468 183.418C5.45012 183.414 5.4534 183.409 5.45665 183.405C5.60616 183.22 5.51708 182.917 5.35538 182.743C5.1971 182.559 4.99907 182.477 4.99578 182.41C4.99573 182.409 4.9957 182.409 4.9957 182.408C4.99416 182.231 4.94895 182.07 4.91056 181.912C4.90622 181.895 4.89518 181.88 4.87985 181.871C4.86453 181.862 4.84618 181.859 4.82884 181.863C4.81151 181.868 4.7966 181.879 4.78741 181.894C4.77821 181.909 4.77548 181.928 4.77982 181.945C4.77982 181.945 4.77982 181.945 4.77982 181.945C4.81856 182.102 4.8602 182.258 4.86093 182.408C4.86093 182.408 4.8609 182.409 4.86084 182.41C4.85696 182.47 4.64331 182.515 4.4463 182.452C4.24611 182.399 4.09377 182.21 4.15364 182.115C4.15485 182.113 4.15608 182.111 4.15732 182.109C4.2052 182.035 4.23611 181.968 4.42728 181.903C4.52147 181.875 4.67597 181.858 4.84467 181.908C5.0138 181.955 5.15594 182.066 5.22771 182.153C5.22776 182.153 5.22781 182.153 5.22786 182.153C4.95877 181.839 4.94361 181.751 4.9333 181.491C4.93546 181.373 4.95987 181.233 5.0083 181.079C5.00858 181.078 5.0088 181.077 5.00896 181.077C5.04357 181.065 4.83777 181.257 4.86721 181.218C4.86804 181.218 4.86903 181.217 4.87017 181.217C4.92367 181.193 5.18153 181.192 5.22588 181.21C5.2273 181.211 5.2286 181.211 5.2298 181.211C5.25207 181.215 5.23828 181.225 5.15136 181.162C5.06417 181.109 4.92706 180.896 4.91916 180.76C4.91972 180.763 4.92028 180.767 4.92084 180.771C4.99184 181.229 4.97274 181.567 4.89292 181.727C4.89177 181.729 4.89062 181.732 4.88947 181.734C4.8151 181.898 4.73462 182.043 4.67891 182.114C4.61997 182.201 4.62354 182.115 4.84442 182.081C4.84666 182.08 4.84888 182.08 4.85109 182.08C4.93708 182.063 5.10713 182.135 5.16729 182.228C5.16564 182.226 5.16397 182.224 5.1623 182.221C4.74294 181.659 4.60219 181.029 4.77848 180.755C4.77396 180.764 4.76831 180.775 4.76086 180.787C4.72844 180.849 4.5984 180.99 4.45742 181.046C4.31866 181.103 4.25694 181.093 4.26085 181.095C4.2685 181.095 4.27554 181.095 4.28196 181.095C4.38472 181.093 4.34531 181.126 4.21937 181.036C4.22275 181.039 4.22616 181.041 4.22958 181.044C4.38537 181.169 4.44776 181.334 4.43346 181.424C4.43282 181.431 4.43214 181.439 4.43143 181.446C4.39526 181.816 4.2755 182.091 4.11855 182.242C4.11599 182.245 4.11348 182.247 4.11103 182.249C4.08064 182.28 4.05281 182.295 4.07834 182.28C4.09849 182.273 4.22091 182.195 4.46885 182.248C4.46624 182.247 4.46359 182.247 4.46091 182.246C4.28289 182.188 4.2616 182.159 4.22096 182.046C4.21912 182.039 4.21729 182.033 4.21549 182.026C4.14674 181.782 4.09857 181.537 4.08481 181.331C4.06144 181.131 4.12694 180.948 4.08735 181.044C4.0872 181.044 4.08692 181.044 4.08649 181.045C4.08144 181.051 4.05298 181.101 3.95526 181.165C3.85958 181.232 3.7045 181.266 3.63213 181.262C3.63073 181.262 3.6295 181.262 3.62843 181.261C3.61253 181.26 3.62692 181.263 3.6001 181.256C3.57715 181.24 3.49655 181.247 3.32912 181.037C3.3273 181.035 3.32555 181.032 3.32387 181.03C3.23798 180.832 3.32778 181.057 3.2294 181.284C3.22852 181.286 3.22764 181.289 3.22676 181.292C3.03571 181.868 2.73176 182.375 2.38095 182.637C2.3807 182.637 2.38046 182.638 2.38021 182.638C2.32046 182.689 2.29484 182.67 2.43747 182.64C2.59136 182.608 2.7699 182.696 2.76149 182.7C2.76158 182.7 2.76166 182.7 2.76174 182.7C2.61777 182.604 2.35575 182.237 2.33133 182.089C2.33109 182.088 2.33086 182.088 2.33064 182.087C2.14819 181.467 2.15469 180.774 2.25809 180.695C2.25855 180.694 2.25902 180.693 2.25948 180.693C2.3301 180.585 2.36778 180.606 2.27701 180.626C2.27548 180.626 2.27396 180.626 2.27243 180.627C2.56524 180.587 2.83176 180.567 3.0245 180.584C3.22892 180.597 3.25943 180.665 3.18355 180.586C3.18333 180.586 3.18312 180.585 3.1829 180.585C3.3515 180.816 3.3904 181.017 3.2951 181.316C3.29458 181.318 3.29406 181.319 3.29353 181.321C3.1669 181.691 3.04303 182.048 2.90848 182.351C2.7853 182.65 2.59103 182.903 2.58307 182.888C2.58313 182.888 2.5832 182.888 2.5833 182.888C2.54263 182.926 2.41594 182.928 2.50687 182.934C2.50843 182.934 2.51006 182.934 2.51174 182.935C2.53407 182.938 2.57597 182.97 2.58944 183.006C2.58971 183.007 2.58998 183.008 2.59023 183.008C2.34474 182.387 2.29781 181.854 2.44572 181.586C2.44676 181.584 2.4478 181.582 2.44886 181.58C2.68315 181.112 2.94424 180.85 3.23594 180.761C3.24017 180.76 3.24443 180.758 3.24873 180.757C3.59796 180.649 3.92768 180.557 4.19333 180.522C4.46753 180.477 4.59963 180.553 4.51202 180.505C4.51143 180.504 4.51085 180.504 4.51027 180.503C4.54855 180.525 4.65676 180.718 4.65835 180.902C4.6585 180.905 4.65863 180.908 4.65874 180.911C4.67314 181.224 4.57905 181.582 4.4466 181.768C4.44432 181.772 4.44204 181.775 4.43975 181.778C4.05485 182.365 3.45705 182.857 3.28904 182.827C3.28681 182.827 3.28463 182.827 3.2825 182.827C3.07343 182.838 2.99322 182.806 2.9316 182.766C2.92905 182.764 2.92649 182.762 2.92387 182.761C2.65094 182.565 2.39775 182.377 2.20908 182.2C2.09703 182.096 2.01109 181.989 1.98905 181.949C1.96396 181.892 2.02073 182.032 1.9669 182.154C1.96676 182.154 1.96662 182.154 1.96648 182.155C1.91096 182.253 2.00988 182.097 2.15041 181.989C2.29235 181.868 2.47453 181.735 2.66957 181.594Z" fill="var(--stroke-0, #05030C)"/>
<path id="Vector 32" d="M2.39365 212.292C2.3309 212.041 2.171 211.825 1.94913 211.692C1.72726 211.559 1.4616 211.519 1.21058 211.582C0.959564 211.645 0.743758 211.805 0.610637 212.027C0.477515 212.248 0.437983 212.514 0.500737 212.765C0.500737 212.765 0.500737 212.765 0.500737 212.765C0.745567 213.653 0.867859 214.564 1.54606 215.642C1.55073 215.648 1.55543 215.655 1.56016 215.662C1.94666 216.241 2.65015 216.694 3.31053 216.823C3.43895 216.851 3.56567 216.871 3.6891 216.884C3.69998 216.885 3.71079 216.886 3.72152 216.887C5.1242 216.99 6.05065 216.223 6.75897 215.66C6.7701 215.651 6.78123 215.641 6.79234 215.632C7.90312 214.706 8.26492 213.223 8.02261 211.934C8.0186 211.913 8.01444 211.892 8.01012 211.872C7.68115 210.661 6.82652 210.352 6.2743 210.059C5.67563 209.787 5.10793 209.618 4.55785 209.456C4.54774 209.453 4.53765 209.45 4.52756 209.447C3.37782 209.097 1.96185 209.272 0.949584 210.161C0.932812 210.175 0.916244 210.19 0.899881 210.205C-0.148391 211.079 -0.102528 212.72 0.278497 213.594C0.643252 214.554 1.16759 215.302 1.77314 216.014C1.84436 216.096 1.92422 216.172 2.00932 216.239C2.72808 216.767 3.39197 216.672 3.88124 216.593C3.95342 216.579 4.02427 216.562 4.09365 216.543C4.72468 216.364 5.22096 215.999 5.60224 215.575C5.64403 215.529 5.68438 215.481 5.72272 215.433C6.73705 214.032 6.64892 212.619 6.56818 211.362C6.56308 211.307 6.55654 211.253 6.54846 211.199C6.27471 209.622 5.06732 208.877 4.24856 208.32C4.19893 208.288 4.14813 208.257 4.09534 208.228C3.54406 207.907 2.74759 207.816 2.09713 208.111C2.0377 208.136 1.98058 208.165 1.92658 208.194C1.20083 208.62 0.898223 209.176 0.655339 209.717C0.639311 209.755 0.623993 209.793 0.609366 209.831C0.0466582 211.484 0.461189 212.883 0.82344 214.15C0.833018 214.18 0.842883 214.21 0.853304 214.241C1.08392 214.94 1.60142 215.559 2.17485 215.935C2.19901 215.952 2.22325 215.968 2.2484 215.983C2.80147 216.376 3.74258 216.459 4.33367 216.229C4.35511 216.222 4.37643 216.215 4.39764 216.208C5.21057 215.899 5.7763 215.442 6.27831 214.806C6.28684 214.794 6.2953 214.783 6.30369 214.772C7.10164 213.719 7.25797 212.34 7.0591 211.204C7.05618 211.187 7.05301 211.169 7.04957 211.152C6.864 210.326 6.29387 209.992 6.00796 209.785C5.99894 209.779 5.98987 209.773 5.98074 209.767C5.66772 209.558 5.14315 209.318 4.54387 209.417C4.53236 209.419 4.52086 209.421 4.50939 209.423C3.87078 209.537 3.41235 209.972 3.16903 210.399C3.16656 210.403 3.16411 210.407 3.16167 210.412C2.49432 211.806 2.76172 212.807 2.8278 213.796C2.828 213.797 2.8282 213.799 2.8284 213.801C2.92955 214.513 3.23447 215.233 4.13553 215.653C4.14475 215.657 4.15402 215.661 4.16335 215.664C5.14894 215.991 5.80473 215.538 6.24702 215.14C6.25442 215.133 6.26177 215.125 6.26908 215.118C7.32535 213.963 7.15735 212.725 7.06734 211.764C7.06606 211.754 7.06476 211.744 7.06345 211.735C7.01875 211.413 6.90585 211.103 6.69729 210.815C6.47566 210.551 6.21185 210.169 5.42733 210.154C5.3882 210.156 5.34829 210.16 5.30828 210.166C4.86428 210.242 4.66301 210.443 4.51578 210.579C4.37166 210.724 4.28185 210.853 4.20421 210.977C4.05287 211.225 3.95759 211.454 3.87978 211.696C3.87612 211.708 3.87253 211.72 3.86899 211.731C3.71247 212.251 3.67144 212.805 3.79711 213.375C3.80105 213.393 3.80518 213.41 3.80945 213.428C3.85797 213.62 3.92126 213.818 4.05688 214.051C4.19518 214.262 4.41446 214.637 5.04376 214.761C5.10128 214.77 5.15971 214.775 5.218 214.776C5.91989 214.741 6.12116 214.445 6.31856 214.273C6.50212 214.08 6.62201 213.895 6.72476 213.704C6.73422 213.686 6.74341 213.668 6.75249 213.65C6.99344 213.158 7.09138 212.705 7.11142 212.191C7.11202 212.168 7.11238 212.144 7.11246 212.121C7.12873 211.741 6.99068 211.098 6.608 210.699C6.58409 210.672 6.55985 210.646 6.53533 210.621C6.1311 210.231 5.76804 210.071 5.35818 209.93C5.32949 209.921 5.30044 209.912 5.27113 209.904C4.9473 209.791 4.25694 209.738 3.77445 210.035C3.73158 210.058 3.69135 210.083 3.65255 210.108C2.57022 210.913 2.38832 211.836 2.10478 212.601C2.0963 212.627 2.08795 212.654 2.07973 212.68C2.02419 212.857 1.98491 213.036 1.96756 213.242C1.95953 213.346 1.95588 213.456 1.96908 213.595C2.00105 213.745 1.95197 213.875 2.23239 214.283C2.34111 214.435 2.65724 214.685 3.03061 214.692C3.33816 214.71 3.67183 214.587 3.86909 214.442C4.07374 214.296 4.19044 214.147 4.28042 214.019C4.45446 213.762 4.53414 213.553 4.60631 213.356C4.74286 212.965 4.81373 212.618 4.87987 212.293C4.88134 212.285 4.8828 212.278 4.88424 212.271C4.9341 211.935 5.05124 211.479 4.67567 210.841C4.6609 210.819 4.64532 210.796 4.62906 210.774C4.22912 210.296 3.76511 210.021 2.96568 210.246C2.92718 210.26 2.88848 210.276 2.85005 210.295C2.46391 210.484 2.28864 210.784 2.19818 210.976C2.10537 211.181 2.07068 211.339 2.04369 211.485C1.99443 211.772 1.99153 212.004 1.99507 212.229C2.00588 212.673 2.05859 213.074 2.12535 213.47C2.12612 213.474 2.1269 213.479 2.12768 213.483C2.18647 213.885 2.46493 214.309 2.79525 214.525C3.14248 214.741 3.41796 214.868 3.97776 214.806C3.98469 214.805 3.99166 214.804 3.99869 214.802C4.34793 214.744 4.63907 214.515 4.78092 214.336C4.92961 214.154 4.99844 214.002 5.05311 213.871C5.15601 213.61 5.19468 213.41 5.23023 213.222C5.29598 212.848 5.32236 212.525 5.35628 212.228C5.35811 212.212 5.35975 212.195 5.3612 212.179C5.37652 211.961 5.38288 211.731 5.26779 211.403C5.20466 211.242 5.10977 211.034 4.85902 210.829C4.61536 210.616 4.17222 210.523 3.89703 210.588C3.85476 210.595 3.81313 210.605 3.77877 210.615C3.21144 210.818 3.11382 211.006 2.91263 211.204C2.73869 211.406 2.59297 211.618 2.47592 211.915C2.47021 211.93 2.4647 211.945 2.45938 211.96C2.3702 212.212 2.32506 212.485 2.35629 212.793C2.41608 213.089 2.40654 213.493 3.06315 213.91C3.10256 213.931 3.14257 213.949 3.18386 213.965C3.75524 214.166 4.11856 213.964 4.33116 213.849C4.55306 213.714 4.69942 213.568 4.83167 213.394C4.86328 213.352 4.89348 213.308 4.92227 213.26C4.93261 213.244 4.94259 213.227 4.95227 213.209C5.24349 212.684 5.19026 212.182 5.14177 211.87C5.14025 211.861 5.13868 211.852 5.13705 211.842C5.10726 211.679 5.06962 211.492 4.95715 211.253C4.85209 211.025 4.60423 210.685 4.20815 210.525C4.18744 210.516 4.16676 210.508 4.14615 210.501C3.14398 210.26 2.82562 210.609 2.42614 210.802C2.42071 210.805 2.41527 210.808 2.40981 210.812C1.6004 211.323 1.5316 212.28 1.9309 213.022C1.9328 213.026 1.93463 213.029 1.9366 213.032C1.93858 213.035 1.94072 213.037 1.94336 213.038C1.946 213.039 1.94895 213.039 1.95237 213.038C1.95577 213.038 1.95955 213.036 1.96349 213.035C1.96349 213.035 1.96349 213.035 1.96349 213.035C2.7941 212.725 3.28403 212.601 3.47226 212.504C3.47424 212.503 3.47624 212.501 3.47825 212.5C3.54884 212.456 3.61969 212.425 3.65474 212.414C3.68494 212.396 3.69391 212.445 3.46891 212.38C3.45992 212.377 3.45068 212.374 3.44124 212.37C3.25836 212.296 3.16508 212.144 3.15657 212.119C3.14228 212.086 3.15891 212.123 3.16828 212.183C3.16889 212.187 3.16951 212.19 3.17012 212.194C3.19752 212.34 3.15634 212.339 3.21173 212.228C3.21347 212.225 3.21527 212.222 3.21712 212.219C3.22186 212.211 3.22607 212.205 3.23006 212.2C3.24799 212.178 3.25359 212.167 3.3116 212.13C3.3632 212.11 3.52446 211.975 3.91365 212.105C3.94102 212.116 3.96762 212.128 3.99374 212.142C4.41322 212.425 4.31278 212.542 4.34313 212.581C4.34674 212.624 4.34132 212.628 4.34108 212.632C4.34104 212.632 4.341 212.632 4.34097 212.632C4.34127 212.627 4.37614 212.564 4.41458 212.522C4.42831 212.483 4.57541 212.437 4.31865 212.539C4.30085 212.544 4.27771 212.549 4.25236 212.554C4.09002 212.596 3.7689 212.531 3.6143 212.392C3.45376 212.258 3.41792 212.154 3.39472 212.099C3.35831 211.988 3.37501 211.993 3.37095 212.003C3.37086 212.004 3.37075 212.005 3.37061 212.006C3.33485 212.328 3.30709 212.627 3.26379 212.868C3.24356 212.984 3.2141 213.092 3.20126 213.12C3.1972 213.133 3.19404 213.122 3.24381 213.06C3.28687 213.002 3.44408 212.869 3.6382 212.837C3.64175 212.836 3.64523 212.836 3.64863 212.835C3.89268 212.816 3.84398 212.842 3.92994 212.881C3.99707 212.919 4.08838 213.057 4.09671 213.144C4.09606 213.14 4.09541 213.136 4.09477 213.132C4.03897 212.806 3.99902 212.476 3.99267 212.187C3.98925 212.045 3.99712 211.909 4.01093 211.834C4.01635 211.799 4.02698 211.779 4.0112 211.816C3.99626 211.844 3.93585 211.985 3.71684 212.095C3.69568 212.105 3.67467 212.114 3.65417 212.121C3.44092 212.193 3.32504 212.157 3.24319 212.13C3.16149 212.097 3.09416 212.056 3.01783 211.955C3.01221 211.948 3.00689 211.94 3.00193 211.933C2.88403 211.703 2.96324 211.759 2.92515 211.878C2.92376 211.885 2.92237 211.892 2.92097 211.899C2.86113 212.199 2.79834 212.476 2.72326 212.688C2.68831 212.79 2.64253 212.878 2.63652 212.883C2.63602 212.886 2.64639 212.861 2.72076 212.806C2.78899 212.753 2.96391 212.685 3.11128 212.695C3.43923 212.7 3.71514 212.923 3.7967 213.04C4.00694 213.354 3.93822 213.363 3.9575 213.399C3.95948 213.422 3.95785 213.415 3.95908 213.403C3.96092 213.377 3.97015 213.327 3.98466 213.282C3.99205 213.259 3.99947 213.236 4.00693 213.213C4.20834 212.54 4.54279 211.883 4.74934 211.778C4.74931 211.779 4.74811 211.779 4.74567 211.781C4.70513 211.817 4.56225 211.789 4.71576 211.823C4.72617 211.826 4.73692 211.829 4.7478 211.833C4.90374 211.879 5.09103 211.994 5.11406 212.026C5.11561 212.027 5.11665 212.028 5.11726 212.029C5.10892 212.032 5.10715 211.955 5.11443 212.113C5.1144 212.122 5.11427 212.13 5.11404 212.139C5.1104 212.34 5.04699 212.6 4.9694 212.749C4.96654 212.755 4.96366 212.76 4.96074 212.766C4.93042 212.824 4.89101 212.876 4.87886 212.887C4.88212 212.913 4.84127 212.811 5.25389 212.778C5.28756 212.779 5.3216 212.782 5.35491 212.787C5.72883 212.87 5.76401 213.034 5.77551 213.032C5.783 213.047 5.7619 213.004 5.74994 212.952C5.74869 212.947 5.74745 212.941 5.74626 212.936C5.70547 212.759 5.71486 212.524 5.7804 212.313C5.7819 212.308 5.78342 212.303 5.78498 212.298C5.81693 212.196 5.86533 212.089 5.90365 212.028C5.92127 211.999 5.93905 211.981 5.9232 211.997C5.90396 212.007 5.85655 212.094 5.59361 212.143C5.57064 212.147 5.54797 212.149 5.52608 212.15C5.08662 212.127 5.11036 211.993 5.08399 211.994C5.07334 211.977 5.083 211.991 5.08343 212.002C5.08444 212.01 5.08543 212.017 5.0864 212.025C5.20287 212.774 5.08338 213.535 4.86531 213.696C4.86386 213.698 4.86239 213.699 4.86092 213.701C4.77131 213.812 4.63438 213.749 4.88854 213.803C4.88993 213.803 4.89128 213.804 4.89257 213.804C4.98223 213.869 4.81075 213.718 4.81349 213.574C4.8133 213.572 4.81312 213.57 4.81294 213.569C4.70434 212.711 4.69516 211.719 4.8964 211.403C4.89689 211.402 4.89737 211.401 4.89786 211.401C4.93166 211.342 4.94041 211.373 4.86215 211.389C4.86079 211.39 4.85941 211.39 4.85802 211.39C4.77689 211.401 4.77082 211.364 4.88521 211.438C4.88806 211.44 4.89097 211.442 4.89393 211.444C5.14198 211.595 5.14297 211.703 5.08941 211.539C5.08882 211.536 5.08828 211.533 5.08779 211.53C5.21978 212.318 5.10049 213.051 4.69929 213.581C4.69493 213.587 4.69053 213.593 4.68608 213.599C4.45775 213.906 4.04454 214.216 3.73479 214.323C3.72738 214.325 3.72018 214.328 3.71322 214.33C3.48897 214.388 3.48423 214.384 3.31398 214.293C3.30681 214.289 3.29957 214.284 3.29204 214.279C3.01054 214.088 2.83965 213.871 2.74314 213.592C2.73893 213.58 2.7349 213.568 2.73095 213.555C2.38765 212.467 2.19036 211.278 2.47632 210.543C2.48286 210.526 2.4896 210.509 2.49655 210.493C2.60545 210.214 2.82054 209.97 2.88539 209.947C2.88905 209.945 2.89141 209.944 2.89225 209.944C2.95277 209.921 3.00635 209.913 3.12525 209.974C3.136 209.98 3.14698 209.987 3.15832 209.994C3.95126 210.492 4.53484 211.047 4.57236 211.495C4.57495 211.512 4.57705 211.529 4.57871 211.547C4.68221 212.573 4.57127 213.689 4.15802 214.19C4.14382 214.208 4.12929 214.225 4.11464 214.242C3.94134 214.437 3.72995 214.571 3.55621 214.618C3.53715 214.624 3.5186 214.628 3.50065 214.631C3.27777 214.687 3.12644 214.606 3.24754 214.671C3.2585 214.679 3.26966 214.69 3.27875 214.7C2.30779 213.636 1.64345 211.988 2.25201 211.676C2.25799 211.671 2.26413 211.665 2.27043 211.66C2.67591 211.303 3.33707 211.172 3.96933 211.365C3.97895 211.368 3.98856 211.371 3.99817 211.374C4.51833 211.526 5.02256 211.684 5.43974 211.875C5.86779 212.047 6.12299 212.358 6.05427 212.28C6.05627 212.29 6.05822 212.3 6.06012 212.309C6.18727 212.988 5.97658 213.729 5.50705 214.102C5.49777 214.11 5.48852 214.118 5.47929 214.126C4.88442 214.634 4.27098 214.972 3.90787 214.917C3.90253 214.917 3.8972 214.916 3.89188 214.916C3.83155 214.91 3.77563 214.902 3.72371 214.892C3.45646 214.835 3.30573 214.744 3.15673 214.54C3.15495 214.538 3.15317 214.535 3.15137 214.532C2.83735 214.071 2.60866 213.152 2.39365 212.292Z" fill="var(--stroke-0, #05030C)"/>
</g>
</svg>
