<svg preserveAspectRatio="none" width="100%" height="100%" overflow="visible" style="display: block;" viewBox="0 0 79.5247 81.9214" fill="none" xmlns="http://www.w3.org/2000/svg">
<g id="Group 25">
<g id="Vector" filter="url(#filter0_d_0_13)">
<path d="M50.17 80.6214C48.3242 80.6214 45.8786 80.4279 42.7001 80.0293C42.7001 80.0293 37.6319 79.6203 37.6267 79.6203C34.0708 79.3262 31.3214 79.0372 29.2223 78.7392C26.2726 78.3199 24.1088 77.782 22.4478 76.3964C21.2806 75.4237 19.8135 73.6086 19.4322 70.4737L18.168 60.0667H9.62919C7.43049 60.0667 5.57563 59.4784 4.11241 58.3173C1.59703 56.3229 1.22994 53.2912 1.10843 52.2952C0.900328 50.5833 0.840869 48.5321 0.924887 46.0293C0.924887 46.0293 0.833113 42.1475 0.833113 42.1398C0.777532 39.339 0.79175 37.1549 0.877061 35.4636C0.992102 33.1699 1.27906 30.551 3.23862 28.5527C3.58116 28.2031 3.96247 27.8844 4.37222 27.607L12.2467 22.2752C12.637 22.0107 13.0546 21.7836 13.4953 21.5927L12.6732 14.8211C12.3204 11.9184 13.0106 9.58081 14.7233 7.87275C14.7427 7.8534 14.7621 7.83534 14.7815 7.81598C15.0749 7.52959 15.398 7.2677 15.7406 7.03678L23.6098 1.70747C23.6913 1.652 23.7727 1.6004 23.8554 1.54879C25.6172 0.453519 27.5561 0.3 29.2404 0.3C29.9952 0.3 31.7299 0.387725 39.2476 1.02115C39.2618 1.02115 39.2773 1.02373 39.2915 1.02502C43.5299 1.41205 46.8157 1.76553 49.3388 2.10482C53.1804 2.62601 54.9732 3.13946 56.4494 4.13927C56.4571 4.14443 56.4662 4.14959 56.4739 4.15604C57.6424 4.95589 59.6705 6.83682 60.1087 10.449L61.3729 20.8561H69.913C71.9049 20.8561 73.5387 21.2857 74.9076 22.1681C74.9257 22.1797 74.9438 22.1913 74.9606 22.2029C77.887 24.1303 78.2851 27.4097 78.4157 28.4882C78.4997 29.1835 78.5992 30.4388 78.7 36.5692V36.5911C78.7453 40.0008 78.7285 42.6506 78.6483 44.6902C78.5191 47.8806 78.1545 50.0763 76.6745 51.8798C76.6707 51.885 76.6655 51.8901 76.6616 51.8953C76.2855 52.3507 75.855 52.7597 75.3755 53.1157C75.2979 53.1738 75.2191 53.2305 75.1389 53.286C75.1221 53.2976 67.2192 58.6489 67.2192 58.6489C66.847 58.9004 66.454 59.1197 66.0404 59.3042L66.8664 66.1029C67.1766 68.656 66.6311 70.8078 65.2455 72.4991C65.2377 72.5081 65.2299 72.5185 65.2222 72.5275C64.7982 73.0397 64.3032 73.4873 63.746 73.8627L55.8806 79.1895C54.0064 80.4589 51.8452 80.6214 50.1713 80.6214H50.17Z" fill="url(#paint0_linear_0_13)"/>
</g>
<path id="Vector_2" d="M50.1699 74.3644C48.5839 74.3644 46.2857 74.1761 43.3411 73.8032L38.1462 73.384C34.7609 73.104 32.0568 72.8202 30.1076 72.5428C28.0485 72.25 26.8916 71.9481 26.4664 71.5908C26.0372 71.2347 25.7645 70.6039 25.6572 69.7176L23.7248 53.8071H9.6304C8.87294 53.8071 8.34427 53.6793 8.01337 53.4149C7.67729 53.1478 7.45367 52.5337 7.33346 51.5391C7.16284 50.1303 7.11631 48.2842 7.19774 46.055L7.10209 42.0119C7.05039 39.3956 7.06202 37.2979 7.13958 35.7757C7.24557 33.6393 7.52347 33.1245 7.72253 32.9233C7.77165 32.873 7.82853 32.8252 7.89186 32.7827L15.7663 27.4495C15.7663 27.4495 15.7676 27.4495 15.7689 27.4482C15.7741 27.4456 15.778 27.4418 15.7831 27.4392C16.1179 27.2186 16.6272 27.1115 17.3368 27.1115H20.483L18.8983 14.0637C18.7884 13.1555 18.8724 12.5775 19.1542 12.295C19.1852 12.2653 19.2175 12.2395 19.2524 12.215L27.1282 6.88181C27.1282 6.88181 27.1398 6.87407 27.145 6.87149C27.4772 6.65863 28.1623 6.55542 29.239 6.55542C30.0391 6.55542 33.14 6.78377 38.7188 7.25465C42.8099 7.62877 46.1008 7.98096 48.4999 8.30477C50.9713 8.64019 52.4203 8.97045 52.9283 9.3149C53.4544 9.67483 53.7762 10.3095 53.8835 11.1997L55.8159 27.1115H69.9116C70.66 27.1115 71.1809 27.2134 71.5041 27.4211C71.8505 27.6495 72.069 28.2274 72.1917 29.2388C72.2822 29.9884 72.3611 32.4189 72.4322 36.6697C72.4748 39.9245 72.4593 42.5382 72.3843 44.4411C72.2771 47.0703 72.0134 47.6818 71.8234 47.9127C71.7613 47.9888 71.6851 48.0572 71.5959 48.1204C71.5907 48.1256 71.5842 48.1307 71.5778 48.1346C71.5778 48.1346 71.5778 48.1346 71.5765 48.1346L63.6994 53.4691C63.3646 53.6961 62.8748 53.8058 62.2039 53.8058H59.0577L60.6425 66.8536C60.7407 67.6612 60.658 68.212 60.3917 68.5371C60.3516 68.5849 60.3025 68.6287 60.2443 68.67C60.2418 68.6726 60.2392 68.6739 60.2366 68.6752C60.2366 68.6752 60.2353 68.6752 60.234 68.6765L52.3595 74.0084C52.0092 74.2457 51.2932 74.3606 50.1699 74.3606V74.3644ZM15.9537 27.7914L8.10902 33.1039C8.06765 33.1323 8.03017 33.1633 7.99915 33.1955C7.86343 33.3323 7.6243 33.8509 7.52735 35.7963C7.45109 37.3096 7.43816 39.3982 7.48987 42.0054L7.58552 46.0601C7.50538 48.2817 7.54933 50.1071 7.71866 51.4952C7.8505 52.5866 8.08317 52.9788 8.25508 53.1156C8.51101 53.3194 8.97247 53.4226 9.6291 53.4226H23.8954C23.9937 53.4226 24.0764 53.4961 24.088 53.5929L26.0411 69.6737C26.1368 70.4594 26.363 71.0064 26.7146 71.2966C26.9614 71.503 27.759 71.8204 30.1619 72.1623C32.1047 72.4383 34.801 72.7209 38.1785 73.0008L43.3812 73.4201C46.3193 73.7916 48.6007 73.9787 50.1712 73.9787C51.4521 73.9787 51.9511 73.8239 52.1437 73.6936L59.9238 68.4249C59.9367 68.4107 59.9522 68.3991 59.9703 68.3901C60.0259 68.3591 60.0673 68.3282 60.0944 68.2959C60.2844 68.0637 60.3426 67.5825 60.2599 66.9039L58.6493 53.6393C58.6428 53.5839 58.6596 53.5297 58.6971 53.4871C58.7346 53.4458 58.7863 53.4226 58.8419 53.4226H62.2065C62.7894 53.4226 63.2199 53.331 63.4836 53.1517L71.3115 47.8508C71.3192 47.8443 71.327 47.8379 71.3361 47.8327C71.3361 47.8327 71.3373 47.8327 71.3386 47.8314C71.4149 47.7824 71.4782 47.7282 71.5261 47.6702C71.6605 47.5076 71.8996 46.8677 71.9992 44.4282C72.0741 42.5331 72.0896 39.9258 72.047 36.6787C71.9772 32.4408 71.8983 30.0245 71.8091 29.2892C71.6708 28.1526 71.4278 27.8365 71.2947 27.7488C71.1215 27.6366 70.7389 27.5024 69.9142 27.5024H55.6466C55.5484 27.5024 55.4656 27.4289 55.454 27.3321L53.5009 11.25C53.4065 10.4747 53.1416 9.93284 52.7111 9.63871C52.26 9.33296 50.8265 9.01431 48.4495 8.69179C46.0556 8.36927 42.7711 8.01708 38.6865 7.64425C33.1982 7.18111 30.0197 6.94632 29.2416 6.94632C27.9839 6.94632 27.516 7.08952 27.344 7.20949C27.344 7.20949 27.3415 7.21078 27.3402 7.21207C27.335 7.21465 27.3311 7.21852 27.326 7.2211L19.4722 12.5401C19.4554 12.5517 19.4412 12.5633 19.4295 12.5749C19.3235 12.6794 19.1632 13.0097 19.286 14.0211L20.8966 27.2857C20.9031 27.3411 20.8863 27.3953 20.8488 27.4379C20.8113 27.4792 20.7596 27.5024 20.704 27.5024H17.3394C16.697 27.5024 16.2381 27.5966 15.9757 27.7823C15.9757 27.7823 15.9628 27.7914 15.9563 27.794L15.9537 27.7914Z" fill="var(--fill-0, #05030C)"/>
<path id="Vector_3" d="M72.2383 36.6747C72.1685 32.4794 72.0896 30.0102 71.9991 29.2632C71.8867 28.3318 71.685 27.7732 71.3994 27.5849C71.1124 27.3991 70.6161 27.3062 69.9129 27.3062H55.6453L53.6922 11.2241C53.5901 10.3843 53.2992 9.80503 52.8197 9.47606C52.3389 9.14967 50.8912 8.82586 48.474 8.49689C46.0556 8.1705 42.7982 7.82218 38.702 7.44806C33.184 6.98234 30.0313 6.74884 29.239 6.74884C28.0924 6.74884 27.4035 6.86753 27.167 7.09845C26.9317 7.33324 26.8645 7.86733 26.9653 8.70717L29.2235 27.3062H17.3342C16.5419 27.3062 16.008 27.4455 15.734 27.7255C15.4574 28.0041 15.2842 28.9136 15.2066 30.4527C15.1291 31.9905 15.1174 34.0662 15.1691 36.6747L15.2648 40.7295C15.1834 42.9677 15.2286 44.7854 15.3992 46.1839C15.513 47.1166 15.7146 47.6997 16.008 47.9319C16.3002 48.1654 16.7965 48.2816 17.5036 48.2816H31.7699L33.723 64.3624C33.8251 65.2022 34.072 65.7853 34.4649 66.1117C34.8553 66.4381 36.0367 66.74 38.0092 67.0199C39.9791 67.2999 42.6548 67.5785 46.0362 67.8598L51.2401 68.279C54.1911 68.6519 56.4596 68.8376 58.0456 68.8376C59.2775 68.8376 60.0091 68.697 60.2405 68.4184C60.4705 68.1384 60.5403 67.6275 60.4486 66.8806L58.1904 48.2816H70.0796C70.872 48.2816 71.402 48.1203 71.6721 47.7926C71.9397 47.4662 72.1116 46.349 72.1892 44.4358C72.2641 42.5278 72.2796 39.9399 72.237 36.676L72.2383 36.6747Z" fill="var(--fill-0, #05030C)"/>
</g>
<defs>
<filter id="filter0_d_0_13" x="1.87913e-09" y="0" width="79.5247" height="81.9214" filterUnits="userSpaceOnUse" color-interpolation-filters="sRGB">
<feFlood flood-opacity="0" result="BackgroundImageFix"/>
<feColorMatrix in="SourceAlpha" type="matrix" values="0 0 0 0 0 0 0 0 0 0 0 0 0 0 0 0 0 0 127 0" result="hardAlpha"/>
<feOffset dy="0.5"/>
<feGaussianBlur stdDeviation="0.4"/>
<feComposite in2="hardAlpha" operator="out"/>
<feColorMatrix type="matrix" values="0 0 0 0 0 0 0 0 0 0.0666667 0 0 0 0 0.133333 0 0 0 0.2 0"/>
<feBlend mode="normal" in2="BackgroundImageFix" result="effect1_dropShadow_0_13"/>
<feBlend mode="normal" in="SourceGraphic" in2="effect1_dropShadow_0_13" result="shape"/>
</filter>
<linearGradient id="paint0_linear_0_13" x1="41.5032" y1="1.37979" x2="34.2927" y2="162.383" gradientUnits="userSpaceOnUse">
<stop stop-color="white"/>
<stop offset="1" stop-color="#F7F8F8"/>
</linearGradient>
</defs>
</svg>
