<svg preserveAspectRatio="none" width="100%" height="100%" overflow="visible" style="display: block;" viewBox="0 0 131.602 135.6" fill="none" xmlns="http://www.w3.org/2000/svg">
<g id="Group 25">
<g id="Vector" filter="url(#filter0_d_0_15)">
<path d="M83.1638 134.3C80.0844 134.3 76.0045 133.977 70.7018 133.312C70.7018 133.312 62.2465 132.63 62.2378 132.63C56.3055 132.139 51.7188 131.657 48.2168 131.16C43.2958 130.46 39.686 129.563 36.915 127.251C34.9677 125.629 32.5202 122.6 31.884 117.371L29.775 100.009H15.5297C11.8616 100.009 8.76716 99.0271 6.32609 97.0901C2.12969 93.7627 1.51726 88.705 1.31456 87.0435C0.967377 84.1875 0.868181 80.7654 1.00835 76.5901C1.00835 76.5901 0.855243 70.114 0.855243 70.1011C0.762517 65.4286 0.786237 61.7849 0.928561 58.9633C1.12048 55.1367 1.59921 50.7676 4.86835 47.4338C5.4398 46.8506 6.07594 46.319 6.75953 45.8563L19.8965 36.9611C20.5477 36.5199 21.2442 36.1411 21.9796 35.8226L20.6081 24.5255C20.0194 19.683 21.1709 15.7831 24.0282 12.9336C24.0605 12.9013 24.0929 12.8712 24.1252 12.8389C24.6147 12.3611 25.1538 11.9242 25.7253 11.5389L38.8536 2.64808C38.9894 2.55554 39.1253 2.46945 39.2633 2.38336C42.2025 0.556116 45.4371 0.3 48.247 0.3C49.5063 0.3 52.4002 0.446352 64.942 1.5031C64.9657 1.5031 64.9916 1.5074 65.0153 1.50955C72.0862 2.15522 77.5679 2.74493 81.7772 3.31097C88.1861 4.18047 91.177 5.03706 93.6397 6.70504C93.6526 6.71365 93.6677 6.72225 93.6807 6.73302C95.6301 8.0674 99.0135 11.2053 99.7445 17.2316L101.854 34.5936H116.101C119.424 34.5936 122.15 35.3103 124.433 36.7825C124.464 36.8018 124.494 36.8212 124.522 36.8406C129.404 40.056 130.068 45.527 130.286 47.3262C130.426 48.4863 130.592 50.5804 130.76 60.8078V60.8444C130.836 66.5327 130.808 70.9534 130.674 74.3561C130.458 79.6786 129.85 83.3416 127.381 86.3505C127.375 86.3591 127.366 86.3677 127.36 86.3763C126.732 87.136 126.014 87.8183 125.214 88.4123C125.085 88.5092 124.953 88.6039 124.819 88.6964C124.791 88.7158 111.607 97.6432 111.607 97.6432C110.986 98.0629 110.33 98.4288 109.64 98.7365L111.018 110.079C111.536 114.338 110.626 117.928 108.314 120.75C108.301 120.765 108.288 120.782 108.275 120.797C107.568 121.651 106.742 122.398 105.813 123.024L92.6909 131.911C89.564 134.029 85.9585 134.3 83.1659 134.3H83.1638Z" fill="url(#paint0_linear_0_15)"/>
</g>
<path id="Vector_2" d="M83.1637 123.862C80.5177 123.862 76.6836 123.547 71.7713 122.925L63.1046 122.226C57.457 121.759 52.9457 121.285 49.6938 120.823C46.2586 120.334 44.3286 119.83 43.6192 119.234C42.9032 118.64 42.4482 117.588 42.2693 116.109L39.0454 89.5658H15.5318C14.2681 89.5658 13.3861 89.3527 12.8341 88.9115C12.2734 88.466 11.9003 87.4415 11.6998 85.7821C11.4151 83.4319 11.3375 80.3521 11.4734 76.633L11.3138 69.8879C11.2275 65.5232 11.2469 62.0237 11.3763 59.484C11.5532 55.92 12.0168 55.0612 12.3489 54.7255C12.4308 54.6415 12.5257 54.5619 12.6314 54.4909L25.7683 45.5936C25.7683 45.5936 25.7705 45.5936 25.7726 45.5914C25.7812 45.5871 25.7877 45.5806 25.7963 45.5763C26.3549 45.2083 27.2045 45.0297 28.3884 45.0297H33.6371L30.9933 23.262C30.81 21.7468 30.9502 20.7826 31.4203 20.3113C31.472 20.2618 31.526 20.2188 31.5842 20.1779L44.7233 11.2805C44.7233 11.2805 44.7427 11.2676 44.7513 11.2633C45.3055 10.9082 46.4484 10.736 48.2447 10.736C49.5795 10.736 54.7528 11.117 64.0599 11.9025C70.885 12.5267 76.3753 13.1142 80.3776 13.6545C84.5007 14.214 86.918 14.765 87.7655 15.3397C88.6432 15.9401 89.1801 16.999 89.3591 18.4841L92.5829 45.0297H116.099C117.347 45.0297 118.216 45.1997 118.755 45.5462C119.333 45.9271 119.698 46.8913 119.903 48.5787C120.054 49.8291 120.185 53.8839 120.304 60.9755C120.375 66.4056 120.349 70.766 120.224 73.9406C120.045 78.3268 119.605 79.347 119.288 79.7322C119.185 79.8592 119.057 79.9733 118.909 80.0787C118.9 80.0873 118.889 80.096 118.878 80.1024C118.878 80.1024 118.878 80.1024 118.876 80.1024L105.735 89.0019C105.176 89.3807 104.359 89.5636 103.24 89.5636H97.9913L100.635 111.331C100.799 112.679 100.661 113.598 100.217 114.14C100.15 114.22 100.068 114.293 99.9708 114.362C99.9665 114.366 99.9622 114.368 99.9579 114.37C99.9579 114.37 99.9557 114.37 99.9536 114.372L86.8167 123.268C86.2323 123.664 85.0376 123.855 83.1637 123.855V123.862ZM26.081 46.1639L12.9936 55.0268C12.9246 55.0741 12.8621 55.1258 12.8104 55.1796C12.5839 55.4077 12.185 56.2729 12.0233 59.5185C11.896 62.043 11.8745 65.5275 11.9607 69.8772L12.1203 76.6416C11.9866 80.3478 12.0599 83.3932 12.3424 85.709C12.5624 87.5298 12.9505 88.184 13.2373 88.4122C13.6643 88.7522 14.4341 88.9244 15.5296 88.9244H39.3301C39.4939 88.9244 39.632 89.0471 39.6514 89.2085L42.9097 116.036C43.0693 117.347 43.4467 118.259 44.0332 118.744C44.4451 119.088 45.7756 119.617 49.7844 120.188C53.0255 120.648 57.5238 121.12 63.1585 121.587L71.8381 122.286C76.7397 122.906 80.5458 123.218 83.1658 123.218C85.3029 123.218 86.1352 122.96 86.4565 122.742L99.4361 113.953C99.4576 113.929 99.4835 113.91 99.5137 113.895C99.6064 113.843 99.6754 113.791 99.7207 113.737C100.038 113.35 100.135 112.547 99.9967 111.415L97.3098 89.286C97.299 89.1934 97.3271 89.103 97.3896 89.032C97.4521 88.9631 97.5384 88.9244 97.6311 88.9244H103.244C104.217 88.9244 104.935 88.7716 105.375 88.4724L118.434 79.6289C118.447 79.6182 118.46 79.6074 118.475 79.5988C118.475 79.5988 118.477 79.5988 118.479 79.5966C118.607 79.5149 118.712 79.4245 118.792 79.3276C119.016 79.0564 119.415 77.9889 119.581 73.9191C119.706 70.7574 119.732 66.4078 119.661 60.9906C119.545 53.9205 119.413 49.8894 119.264 48.6626C119.034 46.7665 118.628 46.2392 118.406 46.0929C118.117 45.9056 117.479 45.6818 116.103 45.6818H92.3004C92.1366 45.6818 91.9985 45.5591 91.9791 45.3977L88.7208 18.568C88.5634 17.2745 88.1213 16.3706 87.4032 15.8799C86.6506 15.3698 84.2591 14.8382 80.2935 14.3001C76.2998 13.7621 70.8203 13.1745 64.006 12.5525C54.8498 11.7799 49.5472 11.3882 48.249 11.3882C46.1508 11.3882 45.3702 11.6271 45.0834 11.8272C45.0834 11.8272 45.0791 11.8294 45.0769 11.8315C45.0683 11.8358 45.0618 11.8423 45.0532 11.8466L31.9508 20.7202C31.9227 20.7396 31.899 20.759 31.8796 20.7783C31.7028 20.9527 31.4354 21.5036 31.6402 23.191L34.3271 45.3202C34.3379 45.4128 34.3099 45.5032 34.2474 45.5742C34.1848 45.6431 34.0986 45.6818 34.0058 45.6818H28.3927C27.3209 45.6818 26.5554 45.8389 26.1176 46.1488C26.1176 46.1488 26.0961 46.1639 26.0853 46.1682L26.081 46.1639Z" fill="var(--fill-0, #05030C)"/>
<path id="Vector_3" d="M119.98 60.9841C119.864 53.985 119.732 49.8657 119.581 48.6195C119.394 47.0656 119.057 46.1337 118.581 45.8195C118.102 45.5095 117.274 45.3546 116.101 45.3546H92.2983L89.0399 18.5249C88.8696 17.1238 88.3844 16.1574 87.5843 15.6086C86.7821 15.0641 84.3669 14.5239 80.3344 13.9751C76.2998 13.4305 70.8656 12.8494 64.0319 12.2253C54.8261 11.4483 49.5666 11.0588 48.2447 11.0588C46.3319 11.0588 45.1826 11.2568 44.7879 11.642C44.3955 12.0337 44.2833 12.9248 44.4515 14.3259L48.2188 45.3546H28.384C27.0621 45.3546 26.1715 45.587 25.7144 46.0541C25.2529 46.5189 24.9639 48.0363 24.8346 50.6039C24.7052 53.1693 24.6858 56.6323 24.772 60.9841L24.9316 67.7485C24.7957 71.4827 24.8712 74.5152 25.1559 76.8482C25.3456 78.4042 25.682 79.377 26.1715 79.7644C26.6589 80.154 27.487 80.3477 28.6665 80.3477H52.467L55.7253 107.175C55.8957 108.576 56.3076 109.549 56.9631 110.094C57.6144 110.638 59.5853 111.142 62.876 111.609C66.1624 112.076 70.6262 112.541 76.2674 113.01L84.9492 113.709C89.8723 114.331 93.6568 114.641 96.3027 114.641C98.3578 114.641 99.5784 114.407 99.9644 113.942C100.348 113.475 100.465 112.623 100.312 111.376L96.5443 80.3477H116.379C117.701 80.3477 118.585 80.0787 119.036 79.532C119.482 78.9875 119.769 77.1237 119.898 73.9319C120.023 70.7487 120.049 66.4314 119.978 60.9862L119.98 60.9841Z" fill="var(--fill-0, #05030C)"/>
</g>
<defs>
<filter id="filter0_d_0_15" x="3.13495e-09" y="0" width="131.602" height="135.6" filterUnits="userSpaceOnUse" color-interpolation-filters="sRGB">
<feFlood flood-opacity="0" result="BackgroundImageFix"/>
<feColorMatrix in="SourceAlpha" type="matrix" values="0 0 0 0 0 0 0 0 0 0 0 0 0 0 0 0 0 0 127 0" result="hardAlpha"/>
<feOffset dy="0.5"/>
<feGaussianBlur stdDeviation="0.4"/>
<feComposite in2="hardAlpha" operator="out"/>
<feColorMatrix type="matrix" values="0 0 0 0 0 0 0 0 0 0.0666667 0 0 0 0 0.133333 0 0 0 0.2 0"/>
<feBlend mode="normal" in2="BackgroundImageFix" result="effect1_dropShadow_0_15"/>
<feBlend mode="normal" in="SourceGraphic" in2="effect1_dropShadow_0_15" result="shape"/>
</filter>
<linearGradient id="paint0_linear_0_15" x1="68.705" y1="2.10142" x2="56.6758" y2="270.702" gradientUnits="userSpaceOnUse">
<stop stop-color="white"/>
<stop offset="1" stop-color="#F7F8F8"/>
</linearGradient>
</defs>
</svg>
