<svg preserveAspectRatio="none" width="100%" height="100%" overflow="visible" style="display: block;" viewBox="0 0 6 166.983" fill="none" xmlns="http://www.w3.org/2000/svg">
<g id="Frame 64">
<path id="Vector 33" d="M3.45672 2.66072C3.549 2.48071 3.56599 2.27142 3.50396 2.07889C3.44192 1.88636 3.30595 1.72635 3.12594 1.63408C2.94594 1.5418 2.73665 1.52481 2.54411 1.58684C2.35158 1.64888 2.19158 1.78485 2.0993 1.96486C2.0993 1.96486 2.0993 1.96486 2.0993 1.96486C1.96293 2.26009 1.78347 2.47709 1.67196 3.06903C1.66637 3.11285 1.66255 3.15881 1.66139 3.20774C1.65108 3.41651 1.71764 3.69565 1.83592 3.88511C1.9517 4.07749 2.07018 4.1876 2.1582 4.27024C2.18866 4.29814 2.21959 4.32488 2.25129 4.35063C2.45093 4.50704 2.64875 4.64795 2.98982 4.75629C3.00581 4.76103 3.02266 4.76574 3.03956 4.77014C3.08162 4.78109 3.12573 4.79064 3.17175 4.79821C3.54992 4.87575 4.00283 4.71432 4.21987 4.55551C4.23006 4.54877 4.24016 4.54195 4.25018 4.53506C4.88641 4.08053 5.13877 3.47196 5.31761 2.94047C5.33678 2.87728 5.35123 2.81421 5.36157 2.7524C5.43549 2.23497 5.36479 1.8531 5.19675 1.49756C5.14437 1.39779 5.07872 1.30345 5.00441 1.22136C4.44072 0.645454 3.89783 0.620572 3.52943 0.555725C3.464 0.547237 3.39946 0.542425 3.33663 0.540729C2.49693 0.551628 2.06075 0.88331 1.67619 1.09194C1.66449 1.0989 1.65294 1.106 1.64152 1.11321C1.17299 1.41394 0.974548 1.86683 0.905338 2.24782C0.898883 2.28407 0.893621 2.32118 0.889727 2.35974C0.829461 2.82737 1.07721 3.28471 1.23821 3.47186C1.26729 3.50861 1.29739 3.54388 1.3283 3.57765C1.8727 4.14422 2.48506 4.2847 3.04509 4.32495C3.04841 4.32513 3.05173 4.3253 3.05505 4.32546C3.65641 4.38343 4.40035 4.0398 4.7521 3.60096C5.12385 3.17918 5.29744 2.70629 5.41145 2.39612C5.44874 2.29715 5.47456 2.19113 5.48716 2.08768C5.53711 1.45367 5.28808 1.16608 5.17079 0.96612C5.12091 0.892416 5.06613 0.823159 5.00826 0.759381C4.41928 0.151653 3.80389 0.07195 3.30644 0.0106857C3.27423 0.00766879 3.24221 0.00527346 3.21014 0.00346661C2.35968 -0.0385423 1.62315 0.305303 1.06952 0.814437C1.05833 0.824872 1.04725 0.835371 1.03626 0.845934C0.602117 1.23656 0.462808 1.90477 0.505881 2.29879C0.536156 2.71336 0.646605 3.01921 0.722963 3.25548C0.746567 3.32671 0.775467 3.39834 0.810055 3.46897C0.972722 3.81158 1.27268 4.07812 1.52977 4.21837C1.59828 4.257 1.66578 4.28924 1.73271 4.3169C2.0438 4.44112 2.34113 4.4916 2.69927 4.45524C2.73239 4.45147 2.76525 4.44705 2.79782 4.44202C3.84525 4.2784 4.55529 3.48597 4.84011 2.60169C4.86306 2.52512 4.88228 2.43984 4.89329 2.34667C4.95218 1.97186 4.78152 1.5143 4.5895 1.29186C4.51939 1.20299 4.45269 1.13641 4.38773 1.07824C4.10246 0.833805 3.84028 0.701155 3.47689 0.615793C3.40933 0.601243 3.34 0.590364 3.27016 0.583591C2.83397 0.539179 2.43507 0.671082 2.16005 0.815562C2.13955 0.826176 2.11927 0.837022 2.0992 0.848092C1.51617 1.17579 0.984196 1.74063 0.892345 2.61243C0.881638 2.74007 0.892329 2.87168 0.918711 2.98793C1.1178 3.64573 1.39806 3.73568 1.51284 3.86466C1.55549 3.90052 1.60086 3.9361 1.64928 3.97083C1.87147 4.13232 2.17954 4.27771 2.51652 4.31798C2.56817 4.32444 2.62027 4.32863 2.67243 4.3305C3.1336 4.35014 3.55996 4.16922 3.84591 3.9581C3.85761 3.94963 3.86915 3.94111 3.88054 3.93252C4.25928 3.62392 4.48993 3.37488 4.7119 2.84069C4.72329 2.80962 4.734 2.77775 4.74395 2.74485C4.87748 2.37664 4.83173 1.69807 4.4237 1.29187C4.36121 1.22543 4.29265 1.16561 4.22166 1.1141C3.87577 0.868244 3.53854 0.821527 3.27002 0.81799C3.23117 0.817828 3.19272 0.818872 3.15475 0.821024C2.46941 0.874405 2.04606 1.18315 1.70877 1.4534C1.70729 1.45463 1.70581 1.45587 1.70433 1.45711C1.29935 1.77904 1.13517 2.34367 1.14858 2.69657C1.15262 3.06774 1.23758 3.34239 1.34435 3.60198C1.41851 3.77718 1.52476 3.90915 1.62086 4.00123C1.97321 4.31036 2.18817 4.32848 2.38762 4.38027C2.58694 4.41817 2.75629 4.43083 2.97818 4.41172C3.02381 4.40733 3.0693 4.40099 3.11506 4.39254C3.63899 4.29644 3.97765 3.96124 4.15402 3.75501C4.16489 3.74236 4.17577 3.72947 4.18668 3.71628C4.26715 3.61743 4.34968 3.51176 4.43991 3.34013C4.48426 3.25212 4.53351 3.14818 4.57085 2.98183C4.60462 2.82191 4.63572 2.55199 4.49707 2.24079C4.42353 2.07813 4.32086 1.95519 4.22992 1.87093C3.902 1.59219 3.71801 1.58251 3.55708 1.53764C3.39822 1.50478 3.26819 1.49541 3.13512 1.49436C3.11214 1.49428 3.08861 1.49455 3.06438 1.49528C2.75939 1.48729 2.22653 1.65322 1.94237 1.96209C1.93906 1.96536 1.93578 1.96864 1.93252 1.97193C1.58744 2.34567 1.46212 2.65148 1.38474 3.09683C1.38064 3.12638 1.37722 3.1564 1.37454 3.18705C1.33139 3.55286 1.45288 4.1349 1.88617 4.49191C1.94733 4.54396 2.00968 4.58832 2.07194 4.62648C2.4892 4.8695 2.8776 4.90743 3.29677 4.81947C3.3249 4.81296 3.35283 4.80575 3.38048 4.79784C4.33234 4.49653 4.57792 3.68971 4.69285 3.24706C4.70396 3.2007 4.71411 3.15101 4.72236 3.09717C4.77156 2.84117 4.73613 2.3686 4.48532 2.03212C4.41193 1.92829 4.33534 1.84888 4.26166 1.78363C3.96712 1.53347 3.71886 1.45215 3.47501 1.388C3.42792 1.37655 3.38084 1.36668 3.33371 1.35827C2.74264 1.25594 2.2073 1.37664 1.75195 1.58008C1.75013 1.5809 1.74831 1.58173 1.7465 1.58255C1.19557 1.84689 1.01724 2.28006 0.918536 2.54617C0.916294 2.55262 0.914085 2.5591 0.911909 2.56561C0.789323 2.91154 0.756719 3.49301 1.12685 3.96287C1.16 4.00528 1.19423 4.04402 1.22851 4.07924C1.65125 4.48094 2.02973 4.5572 2.44493 4.57391C2.45617 4.57398 2.46739 4.57394 2.4786 4.5738C2.97486 4.56735 3.38752 4.35688 3.67573 4.12578C3.68703 4.11676 3.69817 4.1077 3.70924 4.09852C3.85806 3.97405 3.98425 3.84367 4.10763 3.67454C4.22118 3.48924 4.38269 3.3439 4.42332 2.80563C4.42333 2.80513 4.42333 2.80464 4.42334 2.80414C4.44973 2.36768 4.12713 1.92639 3.91417 1.79092C3.69198 1.62992 3.52555 1.57785 3.37595 1.53274C3.37593 1.53274 3.37591 1.53273 3.37589 1.53273C3.0921 1.43998 2.59043 1.42931 2.22654 1.61634C2.19594 1.63081 2.16649 1.64589 2.13784 1.66162C1.78023 1.90053 1.34893 2.13115 1.32094 3.0266C1.3228 3.05736 1.32576 3.08808 1.32991 3.11904C1.38706 3.49442 1.54832 3.71119 1.7033 3.88087C1.93843 4.11513 2.19003 4.29261 2.6459 4.34371C2.67434 4.34603 2.7039 4.34749 2.73386 4.34791C3.16156 4.35382 3.48707 4.15112 3.67177 3.98324C3.86377 3.80763 3.97643 3.63619 4.06898 3.45068C4.0762 3.4359 4.0833 3.42083 4.09015 3.40579C4.16364 3.23996 4.22905 3.05237 4.23861 2.78463C4.25005 2.53373 4.1698 2.09122 3.80863 1.78311C3.79134 1.76822 3.77396 1.7541 3.75657 1.74071C3.44616 1.51451 3.21102 1.48717 2.99697 1.47034C2.7786 1.4659 2.58663 1.47256 2.28252 1.61914C2.25855 1.63151 2.23323 1.6472 2.20906 1.66521C1.79294 1.95661 1.97407 2.6256 2.60351 2.71861C2.60689 2.71904 2.60971 2.71946 2.61167 2.71977C2.61368 2.72007 2.61492 2.72024 2.6162 2.72024C2.61749 2.72024 2.61873 2.72007 2.62073 2.71977C2.6227 2.71946 2.62552 2.71904 2.6289 2.71861C2.6289 2.71861 2.6289 2.71861 2.6289 2.71861C2.93715 2.69595 3.17548 2.78678 3.28602 2.93028C3.40118 3.07244 3.36047 3.27404 3.24341 3.36484C3.22866 3.37711 3.21342 3.38716 3.19927 3.39447C3.02232 3.47715 2.97577 3.46428 2.89854 3.46597C2.82521 3.45669 2.73451 3.46413 2.53791 3.32408C2.52695 3.31565 2.51585 3.30663 2.50465 3.29699C2.26888 3.09483 2.23522 2.82411 2.24123 2.73279C2.24607 2.62673 2.26468 2.59702 2.27168 2.57794C2.27231 2.57654 2.27295 2.5752 2.27357 2.57392C2.28256 2.55847 2.28479 2.5456 2.33592 2.4974C2.3811 2.45594 2.52638 2.34786 2.76229 2.35007C2.7781 2.35029 2.79332 2.35106 2.80762 2.35222C3.0346 2.38236 3.07612 2.43661 3.15392 2.50686C3.20072 2.56185 3.27499 2.63649 3.31028 2.85387C3.31264 2.87147 3.31431 2.8889 3.31536 2.90625C3.3255 3.15645 3.23265 3.27925 3.19776 3.32761C3.15512 3.37931 3.14057 3.38859 3.09943 3.41306C3.09377 3.41617 3.08747 3.41941 3.08048 3.42271C2.99509 3.47286 2.82192 3.46091 2.83216 3.45537C2.83216 3.45537 2.83216 3.45537 2.83216 3.45537C2.83254 3.45318 2.81435 3.45931 2.7183 3.39157C2.63126 3.34672 2.40517 3.05102 2.42553 2.77377C2.42553 2.77346 2.42554 2.77316 2.42554 2.77286C2.45668 2.4572 2.50025 2.51165 2.48803 2.50447C2.48196 2.51372 2.45463 2.54386 2.43415 2.56023C2.43248 2.56162 2.43086 2.56293 2.42928 2.56419C2.38539 2.59956 2.3876 2.57797 2.45324 2.57591C2.45461 2.57589 2.456 2.57589 2.45739 2.5759C2.50486 2.58771 2.50208 2.54681 2.66013 2.68544C2.67299 2.69865 2.6868 2.71417 2.70106 2.73241C2.86369 2.94273 2.82495 3.15746 2.80692 3.19897C2.80655 3.20006 2.80619 3.20113 2.80582 3.20218C2.81448 3.15933 2.81564 3.27735 2.57331 3.4015C2.57394 3.40121 2.57457 3.40093 2.5752 3.40065C2.73813 3.32559 2.90092 3.30791 2.98304 3.32531C2.99008 3.32656 2.99681 3.32798 3.00332 3.32957C3.02033 3.32988 3.02917 3.35377 2.93907 3.28128C2.9163 3.261 2.88642 3.23153 2.8522 3.18325C2.74176 3.03974 2.7361 2.8196 2.74734 2.79474C2.74857 2.78672 2.74956 2.78254 2.74985 2.78131C2.72653 2.88331 2.69061 2.95948 2.68341 2.96781C2.66999 2.98098 2.74023 2.89886 2.83118 2.87678C2.83645 2.87528 2.84162 2.87394 2.84662 2.87279C2.94474 2.85748 2.98201 2.85064 3.11597 2.9229C3.13592 2.93513 3.15782 2.95049 3.1812 2.97037C3.35082 3.1089 3.37503 3.32739 3.36499 3.36106C3.36465 3.365 3.36425 3.36835 3.36386 3.37119C3.3493 3.40341 3.40488 3.30877 3.35028 3.37981C3.34963 3.38046 3.34897 3.38112 3.34829 3.3818C3.29631 3.45133 3.09979 3.50477 3.12379 3.49244C3.1245 3.49242 3.12591 3.49239 3.12801 3.4924C3.14174 3.49209 3.15884 3.49521 3.14383 3.49248C3.12528 3.47891 3.08747 3.5143 2.8698 3.33458C2.80953 3.27875 2.7333 3.18962 2.67704 3.06522C2.57179 2.82728 2.60117 2.6415 2.61805 2.55902C2.63829 2.47078 2.65638 2.44108 2.66427 2.42401C2.68075 2.3942 2.66841 2.41812 2.64741 2.44237C2.64453 2.44586 2.64145 2.4495 2.63821 2.45328C2.57257 2.53132 2.60529 2.45709 2.75227 2.42771C2.76398 2.42555 2.77547 2.42396 2.78657 2.42289C2.8094 2.42199 2.77663 2.42173 2.77972 2.42107C2.78481 2.43224 2.80027 2.38775 3.0044 2.5597C3.06002 2.613 3.13189 2.69928 3.18419 2.82275C3.15402 2.75595 3.14417 2.68114 3.14663 2.69661C3.15552 2.69727 3.11507 2.89202 2.9893 2.98716C2.98888 2.98751 2.98847 2.98786 2.98805 2.9882C3.14351 2.851 3.30167 2.80386 3.26778 2.81587C3.26618 2.81596 3.26413 2.81603 3.26171 2.81602C3.25154 2.81368 3.18152 2.82305 3.04756 2.73078C3.02092 2.71147 2.99375 2.68788 2.96884 2.66139C2.80352 2.50403 2.80278 2.21217 2.83147 2.1664C2.8331 2.161 2.83463 2.15651 2.83598 2.15284C2.85785 2.12601 2.72695 2.3119 2.6777 2.3371C2.67649 2.33801 2.67541 2.3388 2.67448 2.33947C2.64268 2.36069 2.67997 2.33035 2.7441 2.33374C2.75095 2.33398 2.75779 2.33454 2.76443 2.33537C2.80496 2.33959 2.83261 2.35962 2.81376 2.3472C2.81022 2.34466 2.80517 2.3408 2.79888 2.33552C2.70035 2.28059 2.74092 2.17681 2.86832 2.55063C2.88354 2.61734 2.89032 2.69781 2.88379 2.77474C2.86982 2.8125 2.92653 2.66273 3.06427 2.59762C3.06899 2.59501 3.07384 2.59242 3.07883 2.58983C3.1429 2.55734 3.1288 2.57752 3.07705 2.57228C3.06973 2.57158 3.06257 2.57043 3.05645 2.5691C3.02937 2.55858 3.08421 2.58716 3.05812 2.56966C3.05158 2.56362 3.03997 2.55347 3.01825 2.52612C2.97014 2.48183 2.88098 2.25796 2.90903 2.11232C2.91321 2.07698 2.91998 2.04873 2.92621 2.02794C2.90802 2.09574 2.80329 2.27816 2.72585 2.34539C2.64174 2.42438 2.58344 2.45147 2.49244 2.46744C2.4863 2.46839 2.47992 2.46925 2.47327 2.47001C2.51173 2.46854 2.4817 2.4673 2.49552 2.4702C2.49847 2.47143 2.50345 2.47361 2.51173 2.47827C2.50509 2.47162 2.57373 2.52168 2.60452 2.59028C2.61104 2.60359 2.61601 2.61617 2.61953 2.6268C2.54299 2.40317 2.50253 2.24065 2.49968 2.16865C2.50402 2.08198 2.49231 2.23113 2.42111 2.28621C2.42479 2.28267 2.42854 2.27911 2.43236 2.27555C2.63088 2.08741 2.91276 1.98175 3.09777 1.99835C3.10525 1.99877 3.11267 1.99933 3.12011 2.00002C3.38375 2.01462 3.58029 2.13156 3.52836 2.1018C3.525 2.09811 3.5206 2.09269 3.51622 2.08621C3.57213 2.14552 3.49009 2.15631 3.50405 1.84381C3.51003 1.79442 3.52282 1.74168 3.54092 1.69377C3.42685 2.01741 3.33582 2.18712 3.25632 2.27625C3.16881 2.35476 3.2328 2.32032 3.15303 2.32982C3.15259 2.3298 3.15214 2.32977 3.15169 2.32975C2.95749 2.32665 2.78413 2.22662 2.80241 2.22888C2.80289 2.22941 2.80376 2.2304 2.80491 2.23185C2.78869 2.20009 2.90365 2.37975 2.87768 2.5603C2.8763 2.57401 2.87448 2.58663 2.87241 2.59825C2.86847 2.61331 2.85605 2.7029 2.70891 2.80225C2.70553 2.8044 2.7021 2.8065 2.69864 2.80856C3.00279 2.61448 3.30263 2.51942 3.28261 2.53805C3.28085 2.538 3.27734 2.53781 3.27251 2.53718C3.52042 2.55593 3.64678 2.66331 3.52218 2.56121C3.50849 2.54615 3.49677 2.52492 3.49025 2.50305C3.53812 2.52087 3.61082 2.57664 3.62395 2.49327C3.62655 2.48332 3.63003 2.47162 3.63476 2.45887C3.55906 2.8047 3.39839 3.08467 3.27867 3.17922C3.27677 3.18087 3.27488 3.1825 3.27299 3.18409C3.22969 3.21063 3.35606 3.16241 3.41383 3.18541C3.42001 3.187 3.42458 3.18863 3.42744 3.18996C3.42835 3.19044 3.42884 3.19083 3.42896 3.19111C3.42306 3.1983 3.30815 3.14682 3.22142 3.08616C3.20674 3.07632 3.19205 3.06647 3.17776 3.05677C3.13319 3.02762 3.12331 3.01709 3.14614 3.06202C3.17042 3.10498 3.19105 3.20887 3.18635 3.24383C3.18614 3.25258 3.18552 3.25868 3.18505 3.26236C3.1774 3.24226 3.32048 2.91574 3.45672 2.66072Z" fill="var(--stroke-0, #05030C)"/>
<path id="Vector 26" d="M3.35076 25.1851C3.57926 25.051 3.74512 24.8316 3.81186 24.5752C3.87859 24.3188 3.84073 24.0464 3.70661 23.8179C3.57248 23.5894 3.35308 23.4235 3.09666 23.3568C2.84025 23.29 2.56782 23.3279 2.33932 23.462C2.33932 23.462 2.33932 23.462 2.33932 23.462C2.20781 23.5555 2.05255 23.5717 1.70594 23.9675C1.70518 23.9685 1.70442 23.9695 1.70365 23.9705C1.57842 24.1296 1.4549 24.3845 1.44205 24.669C1.42593 24.9533 1.51774 25.209 1.62102 25.3796C1.64665 25.4226 1.67415 25.4637 1.70314 25.5028C2.10445 26.003 2.52258 26.1022 2.91327 26.1611C2.94915 26.1652 2.9838 26.1677 3.0171 26.1689C3.37393 26.1743 3.58626 26.0852 3.78552 25.9889C3.78862 25.9873 3.79171 25.9857 3.7948 25.9841C4.17309 25.8046 4.51236 25.3756 4.61884 25.0184C4.63738 24.9641 4.65401 24.9034 4.66595 24.835C4.75367 24.5106 4.5492 23.9682 4.314 23.79C4.25604 23.7359 4.19788 23.6912 4.14249 23.6538C3.86881 23.4769 3.68174 23.4411 3.53557 23.4027C3.40433 23.3722 3.30278 23.356 3.22408 23.3413C3.21776 23.3402 3.21144 23.339 3.20513 23.3379C2.7996 23.2734 2.39096 23.2596 1.88346 23.4553C1.82844 23.4779 1.77201 23.504 1.71401 23.5351C1.47397 23.6587 1.19593 23.913 1.06119 24.2385C0.92357 24.5635 0.91995 24.8811 0.985884 25.1639C0.987663 25.1714 0.989496 25.1788 0.99138 25.1863C1.10826 25.5868 1.28569 25.7171 1.39854 25.8257C1.51876 25.9281 1.61753 25.9873 1.71572 26.0401C1.71986 26.0423 1.724 26.0445 1.72815 26.0467C2.2994 26.319 2.70925 26.2171 3.00807 26.158C3.04222 26.15 3.07542 26.1414 3.10776 26.1325C3.49213 26.0335 3.87057 25.7646 4.09174 25.4525C4.11837 25.4162 4.1434 25.3793 4.16692 25.3421C4.4324 24.9222 4.36495 24.4454 4.21021 24.1572C4.189 24.1161 4.16559 24.0764 4.13971 24.0376C3.78853 23.5751 3.52371 23.5649 3.36083 23.4985C3.19043 23.4499 3.06722 23.4323 2.95722 23.416C2.92938 23.4121 2.90272 23.4085 2.8772 23.4052C2.40181 23.349 2.02131 23.4535 1.68334 23.6064C1.60904 23.6409 1.5365 23.6791 1.46512 23.7215C1.25197 23.8341 0.972037 24.1507 0.907174 24.4707C0.857121 24.6798 0.869699 24.85 0.889839 24.9775C1.07891 25.7589 1.48747 25.8933 1.72227 26.055C1.76687 26.0796 1.81072 26.1019 1.85424 26.1225C2.64956 26.4196 2.96081 26.1884 3.24737 26.1372C3.31584 26.1167 3.3792 26.0961 3.43854 26.0764C3.78119 25.9551 3.96386 25.805 4.14443 25.6416C4.21974 25.57 4.28886 25.4986 4.37084 25.3912C4.46425 25.2562 4.65763 25.0085 4.61994 24.5348C4.57914 24.1512 4.3553 23.8975 4.22757 23.7855C3.4784 23.1977 2.89735 23.3343 2.44739 23.3731C2.34124 23.3891 2.23858 23.4092 2.13272 23.4349C2.04335 23.4567 1.94975 23.4887 1.85699 23.5335C1.59952 23.654 1.36809 23.8827 1.24345 24.129C1.1321 24.3326 1.0774 24.6279 1.11227 24.8633C1.15046 25.1431 1.25472 25.3253 1.34119 25.4567C1.53049 25.7242 1.67378 25.8356 1.84815 25.9685C1.92474 26.0241 2.00549 26.0769 2.10188 26.129C2.25622 26.2135 2.46872 26.2945 2.68647 26.3234C2.86331 26.3483 3.02684 26.3413 3.15728 26.3257C3.54942 26.2795 3.91901 26.138 4.23238 25.938C4.35306 25.8612 4.46664 25.7758 4.57511 25.6794C4.65306 25.61 4.72714 25.5293 4.79274 25.4374C4.93813 25.2315 5.04654 24.9754 5.05167 24.6535C5.05415 24.4798 5.01412 24.3023 4.95482 24.1631C4.83185 23.881 4.6798 23.7422 4.56596 23.6402C3.86275 23.0883 3.28235 23.0416 2.6938 22.9839C2.54273 22.9763 2.41038 22.9698 2.19611 22.9895C2.18232 22.9909 2.16848 22.9926 2.15459 22.9945C1.95165 23.0183 1.69521 23.1169 1.51264 23.2671C1.32743 23.4157 1.22322 23.576 1.15695 23.6948C0.779033 24.4623 1.06429 25.0019 1.21411 25.3283C1.26115 25.4191 1.3108 25.5023 1.36235 25.5809C1.72075 26.107 2.19262 26.2781 2.53639 26.3801C2.64619 26.4107 2.75132 26.4333 2.85265 26.4512C3.0522 26.4858 3.23064 26.4787 3.38754 26.4552C3.59155 26.4239 3.76355 26.3653 3.92127 26.293C4.33677 26.1079 4.70401 25.7373 4.88858 25.3282C4.94685 25.203 4.99196 25.0741 5.0244 24.9386C5.09816 24.6504 5.03746 24.3344 4.95181 24.1479C4.86593 23.9538 4.77321 23.8398 4.69445 23.748C4.5356 23.5704 4.41105 23.4776 4.30214 23.3925C4.25411 23.3558 4.20956 23.323 4.16901 23.2932C3.53744 22.8775 3.10718 22.926 2.71937 22.9157C2.60247 22.9186 2.48979 22.9264 2.3794 22.9379C2.21014 22.9545 2.01843 23.0083 1.85346 23.0958C1.59404 23.2313 1.43092 23.4182 1.34518 23.5218C0.848229 24.1331 0.991623 24.8436 1.12672 25.1983C1.15226 25.2675 1.17991 25.3327 1.20902 25.3948C1.56095 26.0712 2.05274 26.226 2.39572 26.3559C2.46266 26.378 2.52834 26.397 2.59319 26.4138C3.1764 26.5456 3.53 26.3362 3.74577 26.2241C3.96838 26.0951 4.11555 25.9711 4.24913 25.8568C4.2985 25.814 4.34473 25.7723 4.3885 25.7323C4.6563 25.5022 4.84302 25.0906 4.86963 24.7909C4.87914 24.7146 4.88276 24.6437 4.88314 24.5789C4.88403 24.2083 4.76048 23.8559 4.51979 23.5653C4.50008 23.5417 4.47957 23.5185 4.45825 23.4959C3.74958 22.8699 3.31543 22.9851 2.92129 22.9421C2.8682 22.9415 2.81599 22.942 2.76442 22.9434C2.32971 22.9463 1.93606 23.1987 1.75229 23.3913C1.68538 23.4574 1.63108 23.5208 1.58416 23.5803C1.25547 24.0093 0.94839 24.6791 1.3187 25.5008C1.32992 25.5232 1.34166 25.5451 1.35384 25.5663C1.69314 26.0898 2.01712 26.1515 2.24032 26.2448C2.47318 26.3216 2.66759 26.3533 2.85887 26.375C2.87293 26.3765 2.88692 26.378 2.90083 26.3793C3.77323 26.4326 4.18591 25.9142 4.37507 25.7694C4.38656 25.7591 4.39714 25.7496 4.40657 25.7412C4.64933 25.5249 4.81144 25.2394 4.87557 24.9235C4.8777 24.9129 4.8798 24.9018 4.88172 24.891C4.92257 24.7158 4.89866 24.3622 4.7694 24.1358C4.64724 23.9086 4.53107 23.8138 4.45373 23.7434C4.44338 23.7345 4.43298 23.7257 4.42253 23.717C3.59047 23.0918 2.85439 23.2021 2.30016 23.2346C2.25624 23.2389 2.21396 23.2435 2.17472 23.2479C1.30131 23.3653 0.932826 23.9941 0.740824 24.2911C0.723667 24.3192 0.70733 24.3467 0.691871 24.3731C0.400766 24.8126 0.504082 25.4919 0.675191 25.7642C0.839839 26.0726 1.01275 26.24 1.17451 26.3912C1.19998 26.4143 1.22603 26.4364 1.25245 26.4574C1.59535 26.7227 1.90801 26.781 2.12497 26.8224C2.12701 26.8227 2.12905 26.8231 2.1311 26.8234C2.82925 26.9309 3.38209 26.7358 3.84331 26.4996C3.88956 26.4752 3.93512 26.4498 3.97994 26.4236C4.43548 26.1786 4.81796 25.6311 4.92955 25.1927C4.93526 25.1735 4.94071 25.1544 4.94585 25.1356C5.08714 24.5632 4.88371 24.1631 4.69113 23.8894C4.67685 23.8699 4.66224 23.8508 4.64734 23.8322C4.15904 23.2612 3.63295 23.1694 3.23755 23.0915C2.82898 23.0266 2.46807 23.029 2.11664 23.0505C2.07511 23.0532 2.03349 23.0563 1.99327 23.0596C1.70233 23.0782 1.32246 23.2104 1.05765 23.454C0.973656 23.5288 0.901301 23.6096 0.840929 23.6897C0.605259 23.9957 0.514716 24.4017 0.550527 24.7332C0.555216 24.7826 0.562153 24.8308 0.571037 24.8778C0.701413 25.4562 0.981375 25.6958 1.18345 25.8986C1.39689 26.0944 1.59717 26.2306 1.79253 26.3539C1.79559 26.3558 1.79865 26.3577 1.80172 26.3596C2.1354 26.5735 2.55019 26.638 2.80483 26.6404C2.83125 26.6411 2.85657 26.6414 2.8813 26.6415C3.67162 26.6301 4.23794 26.3055 4.7033 25.9589C4.75262 25.9211 4.80083 25.8824 4.84801 25.8427C5.30846 25.5232 5.63021 24.6292 5.45332 24.0711C5.45138 24.0623 5.4494 24.0537 5.44739 24.0451C5.32834 23.5988 5.09783 23.4285 4.95989 23.3111C4.8113 23.1966 4.69187 23.1352 4.58133 23.082C4.58078 23.0817 4.58023 23.0815 4.57968 23.0812C3.86758 22.7802 3.38409 22.8497 2.90961 22.8883C2.84863 22.8953 2.78833 22.9034 2.72858 22.9123C2.24282 22.9852 1.89956 23.2634 1.69615 23.4817C1.63624 23.5457 1.58414 23.6084 1.53774 23.6683C1.00821 24.2987 1.13716 25.2583 1.37222 25.7026C1.38145 25.7229 1.39102 25.7429 1.40093 25.7625C1.5907 26.1314 1.85735 26.349 2.1087 26.5005C2.14057 26.5194 2.17318 26.5374 2.20647 26.5544C2.515 26.7153 2.88698 26.7767 3.21365 26.7393C3.21459 26.7392 3.21552 26.7391 3.21646 26.739C3.85903 26.6734 4.38723 26.3033 4.7156 25.9209C4.72533 25.9098 4.73498 25.8985 4.74437 25.8874C5.06851 25.5305 5.116 24.9619 5.04453 24.6741C4.98107 24.3633 4.87675 24.1686 4.78293 23.9979C4.69708 23.8464 4.59161 23.7339 4.49713 23.6532C4.04164 23.3073 3.81719 23.3204 3.59641 23.2594C3.38252 23.217 3.20129 23.196 3.02968 23.1765C3.01544 23.1749 3.00126 23.1734 2.98717 23.1721C2.64106 23.1431 2.34735 23.1736 2.0205 23.264C1.99028 23.2727 1.95957 23.2822 1.92823 23.2927C1.46174 23.4254 1.02653 23.8947 0.889831 24.2661C0.809416 24.4553 0.767502 24.6264 0.738998 24.7801C0.733131 24.8122 0.728513 24.8439 0.72504 24.8751C0.684715 25.5111 0.916497 25.8036 1.09687 26.0642C1.14847 26.1312 1.203 26.1919 1.25909 26.247C1.48752 26.4679 1.72613 26.6053 2.00305 26.7014L2.14747 26.7385C2.2051 26.7488 2.26184 26.7567 2.31761 26.7626C2.80895 26.81 3.1735 26.4818 3.44444 26.2185C3.44875 26.2143 3.453 26.21 3.4572 26.2056L3.51811 26.1831C3.60817 26.0924 3.69014 25.9403 3.7074 25.7912C3.72684 25.6413 3.68741 25.5109 3.65399 25.4045C3.65109 25.396 3.64347 25.3851 3.63618 25.3761C3.62869 25.3669 3.62214 25.3604 3.61459 25.3559C3.60705 25.3515 3.59816 25.3489 3.58651 25.3468C3.57506 25.3448 3.5618 25.3435 3.55302 25.345C3.55302 25.345 3.55302 25.345 3.55302 25.345C3.32096 25.4033 3.12803 25.2246 3.06611 25.1451L3.12703 25.1226C3.12263 25.1208 3.11829 25.1191 3.11401 25.1176C2.83185 25.0191 2.61398 24.7875 2.5281 24.7757C2.51696 24.7745 2.50705 24.7731 2.49846 24.7715L2.64288 24.8086C2.6495 24.8124 2.63564 24.8009 2.65945 24.8218C2.66488 24.8271 2.67194 24.8347 2.6802 24.8455C2.6578 24.838 2.71858 24.8047 2.71084 25.096C2.70926 25.1102 2.70712 25.125 2.70434 25.1402C2.71364 25.088 2.72513 25.0552 2.72702 25.0516C2.7466 25.0387 2.62582 25.1802 2.56011 25.1882C2.56354 25.187 2.56801 25.1856 2.57317 25.1841C2.63329 25.1654 2.74671 25.1547 2.80136 25.1615C2.80363 25.1617 2.80581 25.1619 2.80788 25.1621C2.95803 25.1788 3.09869 25.1972 3.20236 25.2182C3.29547 25.2244 3.39968 25.3121 3.19883 25.1719C3.15614 25.1354 3.0966 25.0747 3.04433 24.9825C3.08191 25.0453 3.09381 25.0972 3.08229 25.0507C3.06499 25.0236 3.07484 24.7493 3.21858 24.5974C3.21578 24.6007 3.21292 24.604 3.21007 24.6073C3.10338 24.728 3.03116 24.7501 3.00202 24.7525C3.00208 24.7525 3.00215 24.7525 3.00221 24.7525C3.02415 24.7487 3.08118 24.756 3.11692 24.7759C3.12082 24.7779 3.12452 24.7799 3.12799 24.782C3.11194 24.7746 3.13695 24.7743 3.18499 24.8629C3.18734 24.8676 3.18967 24.8724 3.19196 24.8775C3.1576 24.8043 3.15533 24.7573 3.15682 24.7777C3.16123 24.7955 3.13296 24.8789 3.11745 24.8917C3.13282 24.8718 3.14553 24.8571 3.15459 24.8474C3.19144 24.8075 3.15506 24.8671 3.0247 24.8883C3.06328 24.8825 3.10155 24.8774 3.13932 24.8731C3.41886 24.832 3.73359 24.8753 3.7271 24.8882C3.72722 24.8883 3.72734 24.8883 3.72746 24.8884C3.75068 24.8987 3.76177 24.9094 3.73035 24.886C3.70764 24.8591 3.58626 24.8027 3.5024 24.5025C3.50244 24.5027 3.50247 24.5028 3.50249 24.5029C3.47476 24.5217 3.56912 24.2674 3.56158 24.3138C3.53736 24.3342 3.51276 24.354 3.48794 24.373C3.25584 24.5567 2.9882 24.6515 2.88715 24.6435C2.87688 24.6434 2.8675 24.6433 2.85893 24.6431C2.76282 24.6382 2.81804 24.6355 2.85177 24.6597C2.85204 24.6599 2.8523 24.6601 2.85255 24.6602C2.72379 24.58 2.60875 24.4958 2.54034 24.432C2.46601 24.3757 2.48038 24.3092 2.53437 24.507C2.53654 24.5185 2.53835 24.5309 2.53962 24.5442C2.55082 24.6317 2.52238 24.7826 2.43639 24.8925C2.42553 24.907 2.4087 24.9264 2.38624 24.9464C2.31476 25.0151 2.19138 25.0519 2.15881 25.0508C2.18755 25.0484 2.21703 25.0462 2.24617 25.0443C2.49108 25.0282 2.73224 25.0331 2.91472 25.0633C3.10065 25.0837 3.19106 25.1805 3.08756 25.0809C3.08494 25.0777 3.0823 25.0742 3.07967 25.0706C3.04927 25.0186 2.95149 24.9072 3.01878 24.6078C3.01744 24.6127 3.01611 24.6173 3.01481 24.6217C2.97493 24.7242 3.00633 24.6669 2.96919 24.7C2.94992 24.7113 2.93041 24.7222 2.91087 24.7325C2.71472 24.8405 2.51059 24.8681 2.46495 24.8535C2.4648 24.8534 2.46465 24.8534 2.4645 24.8534C2.38376 24.8428 2.39251 24.8179 2.49514 24.8928C2.5025 24.8986 2.50999 24.905 2.51744 24.9117C2.45904 24.8617 2.4253 24.8056 2.45087 24.8481C2.46182 24.8706 2.49185 24.9305 2.49829 25.043C2.50701 25.1538 2.46649 25.3029 2.41606 25.3827C2.42684 25.3643 2.43721 25.3469 2.44711 25.3307C2.50484 25.234 2.55523 25.1745 2.56087 25.1709C2.57213 25.1646 2.48968 25.2263 2.39705 25.2335C2.43233 25.2296 2.46501 25.226 2.49687 25.2229C2.88525 25.1677 3.2071 25.2663 3.14977 25.2573C3.14938 25.2569 3.14896 25.2566 3.14852 25.2562C3.13412 25.2404 3.07794 25.2063 2.99457 25.0535C2.90498 24.9011 2.88902 24.6354 2.91436 24.5421C2.9151 24.538 2.91588 24.5338 2.91667 24.5299C2.93926 24.4194 2.99291 24.3256 3.07855 24.2484C3.06388 24.2614 3.05026 24.2737 3.03754 24.2851C2.93416 24.3802 2.87367 24.4263 2.86921 24.4274C2.85906 24.4307 2.96606 24.3758 3.09348 24.3906C3.08711 24.39 3.08074 24.3893 3.07441 24.3886C2.98931 24.3798 2.90816 24.362 2.87674 24.3508C2.84081 24.3544 2.89251 24.2905 3.08629 24.5709C3.0929 24.5824 3.09936 24.5944 3.10559 24.6068C3.20716 24.8632 3.10607 24.8558 3.15447 24.8158C3.16031 24.8083 3.16209 24.8071 3.15589 24.8133C3.15087 24.8261 2.99504 24.9415 2.81863 24.9407C2.84579 24.94 2.87238 24.9398 2.89808 24.9401C2.9927 24.9408 3.07894 24.9509 3.11981 24.9609C3.16251 24.9648 3.13917 24.9955 3.0041 24.8662C2.99765 24.8593 2.99153 24.8524 2.98571 24.8454C2.91543 24.7589 2.88593 24.6721 2.88513 24.5673C2.88515 24.5653 2.88524 24.5573 2.88696 24.5435C2.88558 24.4921 2.95899 24.3211 3.03931 24.2585C3.00434 24.2905 2.97114 24.3203 2.93983 24.3475C2.85764 24.4196 2.78079 24.4753 2.75567 24.4886C2.72685 24.5151 2.79196 24.4192 3.09267 24.4792C3.06745 24.4727 3.04357 24.4656 3.022 24.4585C2.89409 24.4299 2.89103 24.336 3.01807 24.5465C3.01094 24.5313 3.00533 24.5178 3.00132 24.5069C2.9889 24.4762 2.99522 24.4657 2.99538 24.5187C2.99809 24.5668 2.96373 24.7055 2.88696 24.7927C2.91453 24.758 2.87967 24.8134 2.7803 24.8658C2.71805 24.8993 2.63969 24.9204 2.58592 24.9252C2.6491 24.9187 2.71082 24.9145 2.76845 24.9131C2.95204 24.895 3.13583 24.9823 2.98575 24.9032C3.02426 24.9315 3.05878 24.957 3.08874 24.9799C3.15526 25.0296 3.20414 25.0768 3.19214 25.0653C3.18626 25.057 3.15946 25.0332 3.11794 24.941C3.07676 24.8555 3.03393 24.6547 3.08097 24.4746C3.08065 24.4762 3.07897 24.4812 3.07766 24.4839C3.0691 24.4952 3.09082 24.4729 3.08432 24.4787C3.07405 24.4838 3.06837 24.4831 3.08929 24.4796C3.1053 24.4774 3.13918 24.4732 3.19812 24.4832C3.1512 24.475 3.10911 24.4655 3.0739 24.4557C2.951 24.4268 2.94793 24.3734 3.03244 24.4841C3.01457 24.4569 2.99965 24.4313 2.98858 24.4099C2.96689 24.3699 2.96249 24.3408 2.96846 24.3706C2.97353 24.3943 2.98336 24.5219 2.9058 24.6611C2.89335 24.6824 2.85591 24.7505 2.75827 24.8294C2.66272 24.9093 2.51364 24.9651 2.42137 24.9746C2.41498 24.9755 2.40873 24.9762 2.40263 24.9769C2.4097 24.9753 2.50329 24.9734 2.57516 24.9784C2.886 24.987 3.25196 25.1212 3.26131 25.1535C3.24564 25.1365 3.18399 25.0968 3.11206 24.9354C3.07806 24.8563 3.05194 24.7439 3.0537 24.6355C3.05719 24.4661 3.10927 24.3591 3.16639 24.2767C3.19235 24.2403 3.22018 24.2105 3.24709 24.1865C3.22132 24.2095 3.19071 24.2327 3.15962 24.2524C3.07711 24.3048 2.99612 24.3328 2.92131 24.3416C2.9092 24.343 2.92805 24.3397 2.96257 24.3445C3.00561 24.3497 3.05005 24.3694 3.04969 24.3701C3.04916 24.3699 3.03696 24.3627 3.02446 24.3534C2.99793 24.3382 2.95202 24.2798 2.99883 24.3412C3.01964 24.3748 3.07118 24.448 3.09421 24.6101C3.11562 24.7456 3.07987 24.9372 3.01566 25.0518C2.96095 25.1623 2.84404 25.2785 2.72462 25.3333C2.68197 25.3539 2.64119 25.3675 2.60591 25.3761C2.64923 25.3655 2.69856 25.3558 2.74454 25.3489C2.94796 25.2973 3.11754 25.414 2.89685 25.2759C2.83404 25.2214 2.6653 25.0436 2.63333 24.7483C2.60711 24.3831 2.74658 24.2376 2.77634 24.1871C2.79007 24.1697 2.78177 24.1808 2.77503 24.1866C2.76024 24.2051 2.7201 24.2149 2.80859 24.1803C2.75953 24.1966 2.71417 24.2112 2.67321 24.2235C2.52299 24.2952 2.34992 24.2073 2.7091 24.3166C2.70067 24.3126 2.69327 24.3088 2.68752 24.3056C2.63557 24.3049 2.7374 24.2173 2.86194 24.6565C2.87026 24.7114 2.88102 24.8062 2.84847 24.9435C2.80816 25.1556 2.60457 25.381 2.48639 25.4388C2.49823 25.4318 2.51158 25.4247 2.52516 25.4184C2.58721 25.3868 2.65477 25.3873 2.61989 25.3866C2.63991 25.3892 2.6588 25.3918 2.67642 25.3943C2.74437 25.4035 2.79927 25.4154 2.80179 25.4168C2.80849 25.4016 2.72475 25.4595 2.47823 25.1475C2.46232 25.1236 2.44804 25.0994 2.43506 25.0743C2.3426 24.9045 2.28603 24.5805 2.47714 24.2759C2.47783 24.2748 2.47878 24.2733 2.4801 24.2715C2.48679 24.2563 2.54901 24.2104 2.57895 24.2057C2.56798 24.2088 2.55763 24.2114 2.54804 24.2137C2.46005 24.2442 2.44057 24.185 2.64701 24.2724C2.64842 24.2732 2.64984 24.2739 2.65126 24.2747C2.65552 24.2775 2.66374 24.2793 2.70311 24.3123C2.73639 24.3516 2.83868 24.3986 2.92811 24.6951C2.9287 24.6974 2.92927 24.6997 2.92983 24.7021C2.94885 24.7866 2.95386 24.89 2.89718 25.0268C2.84207 25.1633 2.71883 25.2673 2.65887 25.2957C2.65021 25.3003 2.64459 25.3027 2.64139 25.3041C2.61976 25.3066 2.75243 25.2822 2.85774 25.3055C2.85947 25.3058 2.8612 25.3061 2.86293 25.3065C2.96039 25.3242 3.03571 25.3375 3.07896 25.3479C3.12565 25.3556 3.13311 25.377 3.02591 25.3108C3.00435 25.2962 2.97845 25.2766 2.95031 25.2504C2.79457 25.1425 2.63107 24.7119 2.69757 24.492C2.70571 24.4454 2.71666 24.406 2.72806 24.3726C2.72377 24.3571 2.81997 24.2279 2.87539 24.2101C2.87577 24.2099 2.87616 24.2097 2.87656 24.2095C2.90404 24.2 2.9263 24.1723 3.08908 24.1721C3.10443 24.1727 3.12113 24.1739 3.13918 24.1759C3.13872 24.1864 3.15069 24.1342 3.3076 24.3121C3.31791 24.3259 3.32801 24.341 3.33757 24.357C3.38803 24.4396 3.44769 24.5927 3.43735 24.7738C3.42947 24.955 3.34919 25.1114 3.28695 25.1892C3.28658 25.1897 3.28621 25.1902 3.28584 25.1907C3.12528 25.3608 3.23544 25.2407 3.35076 25.1851Z" fill="var(--stroke-0, #05030C)"/>
<path id="Vector 27" d="M3.45256 46.8367C3.66122 46.7127 3.8121 46.511 3.87202 46.2758C3.93194 46.0407 3.89599 45.7913 3.77207 45.5827C3.64815 45.374 3.44641 45.2231 3.21124 45.1632C2.97607 45.1033 2.72673 45.1392 2.51807 45.2632C2.51807 45.2632 2.51807 45.2632 2.51807 45.2632C2.19254 45.4834 2.18392 45.6103 2.13061 45.6937C2.08998 45.7811 2.07535 45.8321 2.06151 45.8788C2.03599 45.9702 2.02639 46.0304 2.01767 46.0874C2.00196 46.1964 1.99652 46.2821 1.99264 46.3645C1.98568 46.5271 1.9883 46.6716 1.99386 46.8132C2.00561 47.0956 2.03127 47.3632 2.06418 47.6288C2.06837 47.6624 2.07223 47.6956 2.07601 47.7297C2.07834 47.7489 2.08095 47.7681 2.08386 47.7873C2.11437 47.983 2.18214 48.2451 2.38713 48.4994C2.58926 48.7568 2.9058 48.9084 3.11058 48.9581C3.16499 48.9726 3.21399 48.9829 3.25539 48.9906C3.58492 49.0503 3.93604 49.0176 4.27178 48.862C4.29379 48.8517 4.31571 48.8408 4.33749 48.8294C4.82595 48.5474 4.95578 48.2464 5.08917 48.0213C5.21146 47.7888 5.28891 47.5856 5.36015 47.3928C5.36663 47.3751 5.37316 47.3576 5.37978 47.3402C5.50086 47.035 5.53328 46.5666 5.39757 46.2219C5.37533 46.1604 5.35052 46.1025 5.32427 46.0483C4.8241 45.1905 4.23751 45.1636 3.84256 45.0458C3.4234 44.9604 3.05026 44.9455 2.68417 44.9502C2.63336 44.9511 2.5836 44.9538 2.53191 44.9587C1.44384 45.0803 0.963997 45.9296 0.715397 46.3799C0.66376 46.4765 0.624318 46.5734 0.594512 46.6665C0.459851 47.1111 0.497308 47.4445 0.533372 47.7259C0.540377 47.7743 0.548843 47.8222 0.558818 47.87C0.709501 48.5931 1.18115 49.1428 1.69428 49.4811C1.76025 49.5248 1.83501 49.5663 1.917 49.6014C2.40996 49.8191 2.90903 49.6598 3.1153 49.5608C3.19054 49.5269 3.26027 49.4896 3.32496 49.4505C3.99136 49.0118 4.21856 48.5459 4.46559 48.1251C4.50131 48.0595 4.5336 47.9929 4.56304 47.924C4.83127 47.2919 4.79509 46.6363 4.61038 46.079C4.5949 46.0328 4.57752 45.9877 4.55819 45.9434C4.15342 45.1241 3.54939 44.9738 3.19987 44.8162C3.11232 44.7826 3.0181 44.7556 2.91936 44.7378C2.5243 44.6598 2.09073 44.7776 1.81483 44.9592C1.69815 45.0329 1.60629 45.1108 1.5271 45.189C1.26397 45.4555 1.1202 45.7266 1.01993 46.0285C0.994406 46.108 0.973138 46.1887 0.956223 46.2698C0.818045 46.9359 0.982068 47.538 1.16285 47.9862C1.18071 48.0304 1.19961 48.0725 1.21929 48.1127C1.3963 48.4592 1.59502 48.69 1.89305 48.9188C1.93467 48.9496 1.97898 48.9796 2.02596 49.008C2.34545 49.2133 2.81468 49.2833 3.14505 49.2187C3.22821 49.205 3.3092 49.1856 3.38656 49.1616C4.072 48.9292 4.39029 48.5036 4.64321 48.1521C4.70455 48.0623 4.75836 47.9666 4.80307 47.8682C5.01604 47.3909 5.01642 46.9177 4.9077 46.4886C4.87831 46.3754 4.83288 46.2613 4.77517 46.1577C4.23548 45.3574 3.72064 45.4038 3.44612 45.2962C3.25993 45.2487 3.02754 45.2387 2.80951 45.2923C2.37464 45.3993 2.12019 45.6751 1.98019 45.8704C1.91192 45.9662 1.85228 46.0663 1.80139 46.1678C1.49219 46.8143 1.48431 47.4124 1.61307 48.0135C1.63178 48.093 1.65422 48.1663 1.67898 48.2354C1.78008 48.5085 1.9003 48.7174 2.08337 48.942C2.13204 49.0003 2.18811 49.0604 2.25711 49.1217C2.45189 49.3064 2.87106 49.5268 3.31028 49.4698C3.48053 49.4515 3.63719 49.399 3.76208 49.3369C4.19644 49.1032 4.32818 48.8654 4.46124 48.6795C4.58446 48.4893 4.66654 48.3211 4.74009 48.1605C4.77181 48.0906 4.80026 48.0192 4.82523 47.9466C5.00225 47.4206 5.0079 46.8795 4.82293 46.3369C4.80136 46.2758 4.77585 46.2158 4.74631 46.1572C4.31886 45.3936 3.69137 45.3005 3.31809 45.2222C3.04032 45.1698 2.71862 45.2562 2.54144 45.3658C2.14375 45.6222 2.08875 45.8061 1.99653 45.9433C1.93448 46.0529 1.89232 46.1571 1.86112 46.2534C1.65606 47.0326 1.79629 47.4453 1.87627 47.9005C1.8841 47.9357 1.89305 47.9718 1.90353 48.0091C1.96362 48.2877 2.23054 48.6869 2.41217 48.8334C2.43539 48.855 2.45899 48.8759 2.48317 48.8963C2.6978 49.0522 2.86787 49.246 3.45642 49.2888C3.57734 49.2903 3.70486 49.2729 3.82184 49.2383C4.3015 49.0828 4.48104 48.8009 4.60053 48.6275C4.63759 48.5693 4.67035 48.5104 4.69913 48.4517C4.93283 47.954 4.92503 47.5402 4.89964 47.1851C4.89653 47.1498 4.89231 47.1148 4.88682 47.0792C4.86659 46.9475 4.82858 46.8132 4.77309 46.6863C4.61265 46.3244 4.34857 46.0589 4.01149 45.8882C3.89757 45.831 3.75663 45.7885 3.61555 45.7768C3.21734 45.748 2.98238 45.9572 2.89864 46.0986C2.80721 46.25 2.80609 46.3825 2.80458 46.4863L2.74496 46.5877C2.76297 46.6206 2.7771 46.6509 2.78316 46.6771C2.85449 46.9821 2.95626 47.2516 3.03335 47.4904C3.03483 47.5051 3.03764 47.5124 3.04046 47.5196C3.07745 47.6127 3.08721 47.6923 3.11576 47.7733C3.11674 47.776 3.11915 47.7786 3.12188 47.7806C3.12465 47.7825 3.12751 47.7836 3.1304 47.7836C3.1333 47.7836 3.13616 47.7825 3.13892 47.7806C3.14166 47.7786 3.14406 47.776 3.14505 47.7733C3.17359 47.6931 3.18335 47.6111 3.24013 47.5441C3.24447 47.5391 3.2489 47.5341 3.25342 47.5292C3.41602 47.3735 3.65362 47.2522 3.89423 47.1827C3.91493 47.1768 3.94398 47.175 3.97723 47.176L3.91761 47.2774C3.95664 47.3244 4.00209 47.4036 3.96638 47.5128C3.93774 47.6125 3.77075 47.7899 3.443 47.7674C3.32799 47.7579 3.2125 47.7229 3.12203 47.6773C3.03973 47.6343 2.98813 47.5845 2.94158 47.4849C2.92681 47.4512 2.91693 47.4154 2.9122 47.3842C2.9109 47.3758 2.90995 47.3678 2.90927 47.3601C2.92592 47.5036 2.89229 47.6128 2.9053 47.5717C2.90745 47.5673 2.91072 47.5613 2.9153 47.5541C2.93024 47.5439 2.97036 47.4197 3.25904 47.3211C3.32841 47.3005 3.40636 47.2899 3.47761 47.2909C3.80879 47.324 3.75048 47.3725 3.77114 47.3688C3.77184 47.3693 3.77244 47.3699 3.7732 47.3706C3.73835 47.3246 3.84068 47.4717 3.8272 47.469C3.8274 47.4698 3.82716 47.469 3.82667 47.4668C3.75348 47.1876 3.75662 46.8235 3.76229 46.868C3.75901 46.8779 3.75202 46.8979 3.73471 46.9286C3.73257 46.9103 3.77993 46.9351 3.53915 47.0969C3.43141 47.1657 3.19275 47.2324 2.99495 47.1939C3.15654 47.2052 3.12686 47.3084 2.96207 47.0565C2.95297 47.0384 2.94518 47.02 2.93883 47.002C2.96518 47.0702 2.96934 47.2111 2.93602 47.2962C2.93158 47.3091 2.92653 47.3218 2.92082 47.3344C2.87341 47.4393 2.82395 47.533 2.788 47.5875C2.76093 47.6433 2.70567 47.6452 2.87752 47.5454C2.92806 47.5201 3.00433 47.4932 3.09199 47.4838C3.32431 47.4522 3.5394 47.5793 3.58292 47.6269C3.60197 47.6439 3.61225 47.6557 3.61812 47.6626C3.60287 47.6466 3.56518 47.5811 3.55976 47.561C3.5579 47.5559 3.55745 47.5535 3.55812 47.5563C3.51335 47.3825 3.54171 47.136 3.58767 47.0631C3.59442 47.0496 3.601 47.0389 3.6074 47.0299C3.58886 47.0539 3.50165 47.1776 3.27521 47.2353C3.16381 47.263 3.04413 47.2562 2.96413 47.2353C3.08162 47.2637 3.16164 47.29 3.18376 47.3008C3.21223 47.31 3.12926 47.2973 3.02832 47.1276C3.00499 47.0858 2.98601 47.038 2.97448 46.9934C2.98661 47.0331 2.97334 47.0743 2.9841 47.0414C2.98637 47.0364 2.98966 47.0305 2.99304 47.0256C2.88189 47.2018 2.7359 47.2855 2.79552 47.253C2.80199 47.251 2.81063 47.2488 2.8205 47.2472C2.8508 47.2353 2.99992 47.2539 3.05937 47.2979C3.0683 47.3033 3.07568 47.3084 3.08154 47.3127C3.06991 47.3084 3.01009 47.2355 3.01404 47.2346C3.0141 47.2347 3.01475 47.236 3.01593 47.2389C2.906 46.9717 2.88818 46.7794 2.91212 46.678C2.91493 46.6646 2.91831 46.6518 2.92235 46.6392C2.92694 46.6177 2.95483 46.5835 2.93287 46.6088C2.92494 46.6165 2.91085 46.6301 2.87902 46.6503C2.83483 46.6835 2.68759 46.7306 2.56492 46.7041C2.53489 46.6987 2.50799 46.6908 2.48566 46.6822C2.75753 46.7672 2.84235 46.9211 2.72681 46.7423C2.72288 46.7333 2.71928 46.724 2.7161 46.7145C2.77454 46.8874 2.76511 47.0565 2.72563 47.1391C2.72116 47.1495 2.71629 47.1596 2.71073 47.1698C2.55844 47.4659 2.33071 47.7325 2.29069 47.741C2.28892 47.742 2.29004 47.7412 2.29456 47.7392C2.25702 47.7526 2.46466 47.6604 2.70316 47.7645C2.73999 47.7802 2.77148 47.798 2.79645 47.8146C2.62184 47.6994 2.53117 47.5563 2.51463 47.4613C2.51315 47.4542 2.51188 47.4471 2.51081 47.4397C2.4895 47.3156 2.50805 47.226 2.49742 47.2757C2.49415 47.2859 2.48808 47.302 2.4775 47.3218C2.56642 47.1531 2.65545 47.0261 2.71064 46.9726C2.77226 46.9163 2.74215 46.9496 2.72034 46.9478C2.71883 46.948 2.71791 46.948 2.71771 46.948C2.97904 46.9433 3.23731 46.9603 3.43376 47.0016C3.63564 47.0166 3.72598 47.2 3.52565 46.9184C3.52417 46.9153 3.52167 46.9098 3.51876 46.9018C3.49524 46.8559 3.52296 46.7239 3.53906 46.7191C3.53498 46.7334 3.53078 46.7474 3.52638 46.7613C3.47903 46.9114 3.42799 47.0485 3.38405 47.139C3.34988 47.2317 3.27602 47.2542 3.4424 47.1497C3.44663 47.1476 3.45075 47.1457 3.45476 47.144C3.51545 47.119 3.55027 47.1217 3.5807 47.1289C3.57283 47.1281 3.5727 47.1283 3.57859 47.1304C3.59703 47.1339 3.73302 47.1937 3.81147 47.3014C3.89143 47.4074 3.89381 47.4808 3.89295 47.487C3.89283 47.4879 3.89265 47.4884 3.89244 47.4885C3.88785 47.4595 3.88379 47.4312 3.88021 47.4025C3.8521 47.1765 3.83115 46.9512 3.82244 46.7391C3.81815 46.634 3.81715 46.5302 3.82091 46.4458C3.82262 46.4046 3.82629 46.3661 3.82826 46.3537C3.82874 46.3487 3.83032 46.3482 3.82162 46.38C3.81625 46.3973 3.81111 46.4197 3.78414 46.478C3.74427 46.5338 3.75138 46.6331 3.45256 46.8367Z" fill="var(--stroke-0, #05030C)"/>
<path id="Vector 28" d="M3.12244 69.2908C3.15982 69.0395 3.09584 68.7836 2.94457 68.5795C2.7933 68.3753 2.56713 68.2396 2.31582 68.2023C2.0645 68.1649 1.80863 68.2289 1.60449 68.3801C1.40035 68.5314 1.26466 68.7576 1.22728 69.0089C1.22728 69.0089 1.22728 69.0089 1.22728 69.0089C1.17192 69.4843 1.02191 70.0035 1.20694 70.8085C1.20896 70.816 1.21102 70.8235 1.21313 70.8311C1.23713 70.9171 1.26625 71.0012 1.29977 71.0825C1.51244 71.5902 1.86108 71.9516 2.24729 72.2146C2.2556 72.2202 2.26388 72.2257 2.27213 72.2312C2.40854 72.32 2.57465 72.4238 2.81951 72.4984C3.06052 72.5762 3.38816 72.5812 3.61549 72.5228C3.63246 72.5189 3.64879 72.5148 3.66499 72.5106C4.65506 72.2087 4.99995 71.4995 5.2545 70.987C5.25996 70.975 5.26536 70.963 5.2707 70.951C5.59429 70.2293 5.60745 69.3168 5.09608 68.5462C5.081 68.5241 5.06494 68.5015 5.04868 68.4796C4.2287 67.5365 3.42152 67.6334 2.82367 67.5726C2.80797 67.5722 2.79236 67.5718 2.77683 67.5714C2.05209 67.5396 1.30507 67.9251 0.888102 68.4471C0.872613 68.4656 0.857273 68.4846 0.842372 68.5035C0.448213 69.0004 0.473762 69.5957 0.540581 69.925C0.610947 70.2785 0.723669 70.5333 0.825631 70.7607C0.832348 70.7754 0.839002 70.7899 0.845579 70.804C1.16546 71.4918 1.77904 71.9391 2.43313 72.1222C2.45822 72.1292 2.48421 72.136 2.50978 72.1422C2.93055 72.2474 3.30918 72.1086 3.50776 71.9961C3.71835 71.8779 3.84302 71.7631 3.95195 71.6593C4.16303 71.4513 4.29957 71.2699 4.42957 71.0988C4.4384 71.087 4.44716 71.0753 4.45586 71.0636C4.86553 70.5227 4.95679 69.8657 4.97214 69.4263C4.97298 69.4078 4.97375 69.3892 4.97443 69.3716C4.9982 68.9951 4.8254 68.5662 4.58202 68.3164C4.54811 68.2797 4.51315 68.2455 4.47747 68.2136C4.08032 67.8386 3.4579 67.6984 3.02757 67.7481C2.58334 67.789 2.2449 67.9257 1.94108 68.0775C1.92913 68.0836 1.91751 68.0896 1.90624 68.0955C1.27734 68.4338 1.13023 69.0304 1.08102 69.3453C1.03125 69.6923 1.05069 69.9632 1.07588 70.2181C1.07703 70.2288 1.07819 70.2395 1.07938 70.2501C1.17023 71.0502 1.69913 71.5764 2.08219 71.8744C2.0925 71.8825 2.10266 71.8903 2.11266 71.898C2.51455 72.2134 3.04311 72.2428 3.40958 72.1276C3.43779 72.1193 3.46562 72.1102 3.49309 72.1004C4.02074 71.9316 4.46781 71.4177 4.61956 70.989C4.78922 70.558 4.8095 70.1569 4.80924 69.8489C4.80925 69.8455 4.80924 69.8422 4.80922 69.8388C4.81075 69.333 4.51662 68.9415 4.3151 68.7585C4.1022 68.5611 3.91717 68.4587 3.75753 68.3719C3.75196 68.3689 3.7464 68.366 3.74084 68.3631C3.2737 68.1473 2.96792 68.1604 2.57092 68.2488C2.56618 68.2501 2.56145 68.2514 2.55673 68.2527C2.0883 68.3782 1.78495 68.7379 1.65155 68.9691C1.65077 68.9704 1.64998 68.9717 1.6492 68.9731C1.24222 69.7343 1.38722 70.2847 1.46496 70.7322C1.46575 70.7357 1.46654 70.7393 1.46733 70.7428C1.56394 71.1596 1.76172 71.4341 1.91489 71.6336C1.91846 71.6382 1.92199 71.6427 1.92546 71.6471C1.99812 71.7359 2.08471 71.848 2.27461 71.9839C2.45062 72.12 2.83889 72.2584 3.15961 72.2034C3.18329 72.2002 3.20585 72.1966 3.22845 72.1923C3.84075 72.0662 4.13539 71.6508 4.28732 71.3996C4.44496 71.1272 4.51984 70.8941 4.58096 70.6678C4.58243 70.6621 4.58389 70.6565 4.58533 70.6509C4.71839 70.1428 4.66426 69.5993 4.47689 69.1443C4.47214 69.1326 4.46731 69.121 4.4624 69.1094C4.34906 68.8228 4.07653 68.5232 3.78508 68.3849C3.7618 68.3732 3.73838 68.3622 3.71513 68.352C3.4261 68.2256 3.02626 68.1696 2.61412 68.3748C2.57345 68.3955 2.53362 68.4186 2.49517 68.4439C2.04891 68.7439 1.91149 69.17 1.85556 69.4356C1.80009 69.7169 1.80605 69.9378 1.82199 70.1448C1.86433 70.5607 1.93499 70.8824 2.12357 71.3084C2.12486 71.3112 2.12617 71.314 2.12748 71.3167C2.22861 71.5633 2.54245 71.8233 2.78522 71.8812C3.02947 71.9505 3.18951 71.928 3.31222 71.9077C3.55402 71.857 3.68519 71.7858 3.84777 71.6649C3.85004 71.6632 3.85231 71.6614 3.85457 71.6596C4.24746 71.3597 4.43823 70.8628 4.46954 70.5166C4.50771 70.1575 4.46152 69.8743 4.39367 69.6063C4.38602 69.5771 4.37731 69.5486 4.36763 69.5206C4.27817 69.265 4.12393 69.096 3.99388 68.9889C3.71315 68.7695 3.49296 68.7172 3.25551 68.6853C3.24118 68.6838 3.22686 68.6825 3.21254 68.6814C2.69501 68.6376 2.21063 68.9103 1.95879 69.2658C1.95276 69.274 1.94689 69.2822 1.94116 69.2903C1.66062 69.7319 1.64434 69.973 1.60145 70.2985C1.60117 70.3017 1.6009 70.305 1.60064 70.3082C1.594 70.4117 1.64968 70.5985 1.86103 70.7992C2.0794 71.0108 2.40883 71.0002 2.62699 70.8057C2.65463 70.7814 2.6788 70.7611 2.69594 70.747C2.71333 70.7327 2.72402 70.7234 2.73272 70.712C2.74143 70.7007 2.74763 70.688 2.75703 70.6674C2.76617 70.6473 2.77951 70.6187 2.79585 70.5857C2.79585 70.5857 2.79585 70.5857 2.79585 70.5857C2.92249 70.3219 3.17004 70.2219 3.35451 70.322C3.53098 70.412 3.59002 70.4809 3.59215 70.4697C3.59216 70.4696 3.59218 70.4694 3.5922 70.4691C3.58602 70.4328 3.65181 70.3038 3.57578 70.4393C3.5739 70.442 3.57192 70.4447 3.56983 70.4476C3.48481 70.5694 3.28825 70.6937 3.05921 70.6735C3.05273 70.673 3.0462 70.6724 3.03962 70.6717C2.95418 70.6571 2.88602 70.655 2.72531 70.5325C2.65171 70.4717 2.5454 70.3617 2.47997 70.1756C2.47295 70.1554 2.46661 70.1346 2.46102 70.1133C2.48445 70.1972 2.48714 70.2833 2.48467 70.2875C2.47766 70.3022 2.51305 70.1674 2.61379 70.0935C2.61521 70.0924 2.61663 70.0913 2.61804 70.0902C2.7199 70.016 2.78024 69.9795 2.94657 69.9434C3.03168 69.9301 3.15223 69.9091 3.35957 69.9675C3.56533 70.0149 3.84719 70.2481 3.93233 70.4596C3.93216 70.4592 3.93197 70.4588 3.93178 70.4584C3.88682 70.3665 3.82284 70.1263 3.81296 69.9768C3.80562 69.9007 3.81208 69.8347 3.81291 69.8368C3.81267 69.827 3.79885 69.9704 3.59453 70.1124C3.57056 70.1282 3.54572 70.1426 3.52047 70.1554C3.26065 70.2827 3.04639 70.2393 2.91114 70.1811C2.90319 70.1776 2.89497 70.1738 2.88662 70.1696C2.78113 70.1229 2.65724 69.985 2.62301 69.8897C2.62405 69.8922 2.62507 69.8946 2.62607 69.8971C2.66574 69.9962 2.66899 70.0799 2.65032 70.153C2.64963 70.1557 2.64895 70.1583 2.64825 70.161C2.62156 70.2663 2.58185 70.3606 2.56593 70.3852C2.54689 70.4255 2.58817 70.2911 2.85512 70.2294C2.86809 70.2269 2.88126 70.2248 2.89528 70.2229C3.08786 70.187 3.34509 70.283 3.41694 70.3446C3.5014 70.4065 3.50141 70.4215 3.49431 70.4098C3.49249 70.4075 3.49069 70.4052 3.48892 70.4029C3.41232 70.3088 3.40348 70.2584 3.41741 70.3077C3.417 70.3058 3.41658 70.3039 3.41617 70.3021C3.35054 70.0701 3.41488 69.8603 3.36541 69.9962C3.36528 69.9964 3.36516 69.9966 3.36503 69.9968C3.3743 69.9865 3.28279 70.1263 3.09192 70.1777C3.0901 70.1782 3.08829 70.1787 3.08648 70.1792C2.98885 70.1922 3.01336 70.2169 2.82568 70.1393C2.82345 70.1381 2.82119 70.1369 2.81891 70.1357C2.90208 70.1786 2.95545 70.2205 2.94427 70.2121C2.94267 70.2148 2.81114 70.0755 2.81121 69.8502C2.8112 69.8487 2.81119 69.8473 2.8112 69.8459C2.81404 70.0601 2.78738 70.1908 2.76357 70.249C2.72929 70.3082 2.79321 70.2185 2.81968 70.2192C2.82745 70.2165 2.83537 70.2139 2.84351 70.2115C2.94029 70.1782 3.15518 70.1768 3.33164 70.3149C3.32589 70.3105 3.32019 70.3061 3.31454 70.3016C3.08966 70.1294 3.05772 70.0176 3.06491 70.0268C3.06416 70.0201 3.06343 70.0134 3.06272 70.0068C3.04533 69.8519 3.04582 69.7069 3.05641 69.6454C3.06 69.6159 3.06825 69.6126 3.04495 69.6601C3.02518 69.7043 2.94168 69.8119 2.83133 69.8665C2.83682 69.8636 2.84244 69.8607 2.84817 69.8578C2.99182 69.783 3.13515 69.7421 3.1935 69.7393C3.26204 69.7412 3.16857 69.7332 3.14527 69.7027C3.13566 69.6941 3.12572 69.6844 3.11556 69.6735C3.0418 69.6035 2.96649 69.4223 2.9779 69.2937C2.97735 69.308 2.97676 69.3223 2.97614 69.3358C2.96388 69.6567 2.91155 69.7925 2.85337 69.8702C2.84605 69.88 2.83878 69.8898 2.83156 69.8994C2.72836 70.0376 2.62521 70.1633 2.55913 70.2267C2.52888 70.2576 2.50416 70.2695 2.54504 70.2453C2.57557 70.2264 2.7541 70.1444 2.98435 70.2014C2.97933 70.2001 2.97403 70.1988 2.96877 70.1973C2.81349 70.1548 2.6919 70.0469 2.65791 69.9628C2.65281 69.9518 2.64778 69.9409 2.64283 69.9301C2.56698 69.7666 2.51518 69.62 2.50317 69.5502C2.48764 69.4634 2.53027 69.5853 2.412 69.7398C2.41551 69.7353 2.41911 69.7309 2.42272 69.7266C2.53522 69.6002 2.61249 69.5696 2.73109 69.5689C2.74215 69.5692 2.75318 69.5695 2.76417 69.5698C3.1946 69.5556 3.58033 69.7541 3.44405 69.6701C3.44426 69.6704 3.44474 69.6711 3.44541 69.6721C3.49548 69.7396 3.53637 69.9527 3.44509 70.139C3.44209 70.1457 3.43909 70.1524 3.43607 70.159C3.30916 70.4717 3.08869 70.6299 3.15751 70.582C3.15879 70.5817 3.1604 70.5813 3.16239 70.5808C3.18672 70.5714 3.29892 70.5757 3.33865 70.5968C3.38167 70.616 3.3608 70.6207 3.32165 70.597C3.31916 70.5956 3.31665 70.5941 3.31413 70.5926C3.18795 70.5169 3.09492 70.4098 3.06967 70.3463C3.06491 70.3355 3.06124 70.3253 3.05841 70.3153C3.05813 70.3143 3.05784 70.3132 3.05756 70.3122C3.01231 70.1882 3.0482 69.7471 3.12244 69.2908Z" fill="var(--stroke-0, #05030C)"/>
<path id="Vector 29" d="M3.26776 93.781C3.48864 93.6691 3.65601 93.474 3.73306 93.2387C3.81011 93.0034 3.79053 92.7471 3.67863 92.5262C3.56672 92.3054 3.37166 92.138 3.13635 92.0609C2.90104 91.9839 2.64476 92.0035 2.42388 92.1154C2.42388 92.1154 2.42388 92.1154 2.42388 92.1154C2.12452 92.287 1.79737 92.3609 1.30574 92.8828C1.26212 92.9349 1.22023 92.9917 1.18175 93.0524C0.885266 93.5077 0.904061 94.0365 0.944555 94.3036C0.946519 94.3175 0.948611 94.3314 0.950831 94.3452C1.03703 94.8862 1.29124 95.3923 1.66231 95.7895C1.7426 95.8755 1.82867 95.957 1.92106 96.0336C1.92712 96.0386 1.9332 96.0436 1.9393 96.0486C2.20015 96.2761 2.65059 96.378 2.92669 96.3384C3.21279 96.3077 3.38954 96.2283 3.53514 96.1609C3.58163 96.1385 3.62785 96.1132 3.66805 96.0891C4.91315 95.0981 4.96398 94.3015 5.3349 93.4493C5.33621 93.4456 5.33753 93.4418 5.33884 93.4381C5.52303 92.8779 5.65613 92.1396 5.14902 91.3575C5.09599 91.2811 5.03606 91.2075 4.97006 91.1386C4.54402 90.6587 3.75028 90.3596 3.11495 90.4364C2.47057 90.5004 1.97788 90.7317 1.51042 91.0935C1.41657 91.1689 1.33189 91.2507 1.25681 91.3351C0.657679 92.0584 0.599111 92.7264 0.516838 93.3022C0.511775 93.3474 0.507927 93.3924 0.505271 93.4379C0.463323 94.0907 0.69905 94.7457 1.10592 95.2254C1.1093 95.2294 1.11268 95.2334 1.11607 95.2374C1.30791 95.478 1.67094 95.6634 1.95116 95.6911C2.23553 95.7264 2.44057 95.6804 2.60574 95.6333C2.65024 95.6201 2.69361 95.6052 2.73495 95.589C3.70685 95.1073 3.8253 94.5591 4.09185 94.1239C4.10825 94.0915 4.12406 94.059 4.1394 94.026C4.34303 93.5819 4.46957 93.0873 4.41661 92.513C4.41473 92.4945 4.4126 92.4757 4.41027 92.4571C4.36877 91.9615 3.94184 91.5456 3.70813 91.4304C3.68794 91.4186 3.66829 91.4077 3.64905 91.3974C2.95438 91.0392 2.27721 91.1618 1.7747 91.3768C1.65884 91.4272 1.55025 91.4927 1.45532 91.5665C0.901547 92.038 0.849606 92.4898 0.775477 92.829C0.71899 93.1802 0.717036 93.4814 0.74273 93.8028C0.745642 93.8363 0.749478 93.8696 0.754279 93.903C0.806358 94.291 1.00374 94.6247 1.1555 94.8216C1.15973 94.8272 1.164 94.8328 1.16831 94.8384C1.34558 95.0556 1.6157 95.3736 2.19421 95.4642C2.25019 95.4714 2.30599 95.4751 2.36083 95.4754C3.04339 95.4452 3.30103 95.1456 3.5112 94.9786C3.71486 94.7913 3.85349 94.6214 3.98179 94.4618C4.02576 94.4066 4.06709 94.3498 4.10572 94.2918C4.41956 93.8111 4.55961 93.2947 4.54447 92.7277C4.54237 92.6731 4.53684 92.6192 4.52816 92.5664C4.39788 91.9456 4.06619 91.7435 3.88706 91.5931C3.85834 91.5719 3.82898 91.5518 3.79974 91.5332C2.91621 91.0741 2.46607 91.3116 2.04518 91.3715C1.7755 91.4358 1.57656 91.5719 1.44376 91.6901C1.11713 91.998 1.0286 92.234 0.930009 92.4364C0.87495 92.5594 0.834648 92.6823 0.805544 92.8003C0.66472 93.4177 0.752767 93.882 0.818444 94.2806C0.827973 94.3331 0.840188 94.3875 0.855929 94.4437C0.933111 94.7603 1.19643 95.1478 1.49973 95.3366C1.55084 95.3708 1.6027 95.4009 1.65511 95.4276C2.0195 95.6102 2.41978 95.6459 2.80868 95.5329C2.8914 95.5084 2.97246 95.4787 3.05113 95.4441C4.05211 94.9686 4.3145 94.0814 4.46644 93.4836C4.51239 93.2919 4.51368 93.0959 4.48147 92.9189C4.4316 92.6468 4.31167 92.4158 4.1472 92.2262C4.06684 92.1339 3.97368 92.0505 3.8766 91.9821C3.17821 91.5461 2.71704 91.6768 2.38295 91.6852C2.15561 91.7059 1.90052 91.7857 1.68433 91.9287C1.47636 92.0641 1.31559 92.2463 1.20832 92.4214C1.09057 92.6124 1.0192 92.8047 0.974029 92.9822C0.824571 93.6337 0.915429 94.1148 1.02319 94.5806C1.05697 94.7148 1.10584 94.8383 1.16244 94.9487C1.33247 95.2722 1.54006 95.483 1.78456 95.6653C1.90035 95.7484 2.06358 95.8502 2.30704 95.9047C2.74155 96.0117 3.18617 95.8101 3.35782 95.6758C3.47548 95.5924 3.57893 95.5002 3.66929 95.4052C4.02584 95.0207 4.19525 94.6316 4.31515 94.2304C4.36489 94.0573 4.38272 93.8753 4.37292 93.7068C4.36244 93.521 4.32109 93.3519 4.26579 93.204C4.22055 93.0833 4.16564 92.9774 4.10277 92.8791C3.97632 92.6838 3.81994 92.5144 3.60535 92.3699C3.49427 92.2957 3.3736 92.236 3.25372 92.1929C2.59432 91.9799 2.15733 92.1371 1.82234 92.2292C1.48756 92.3294 1.2117 92.5803 1.07201 92.7892C0.993202 92.9026 0.939368 93.0089 0.897352 93.1067C0.803165 93.3302 0.766638 93.5267 0.749989 93.7169C0.737276 93.8727 0.741088 94.0234 0.759407 94.1736C0.776849 94.3158 0.807569 94.4593 0.853009 94.6007C0.996723 95.0514 1.28613 95.4518 1.6676 95.7312C1.87409 95.8833 2.10938 95.9648 2.31806 95.994C2.53067 96.0237 2.72248 96.0088 2.904 95.9672C3.17322 95.9039 3.37364 95.7845 3.52383 95.6739C3.91342 95.3714 4.0764 95.1046 4.24287 94.8712C4.42321 94.5979 4.47309 94.3822 4.51229 94.194C4.54529 94.0188 4.55635 93.8649 4.55742 93.7098C4.55776 93.5342 4.53764 93.3177 4.44624 93.0808C4.38455 92.9196 4.28581 92.7565 4.17139 92.6271C4.02163 92.4545 3.82804 92.3198 3.64274 92.2373C3.10453 92.0125 2.71157 92.0767 2.37643 92.1373C1.71977 92.3094 1.56293 92.7007 1.44871 92.8781C1.40972 92.9507 1.38009 93.0157 1.35513 93.0741C1.23926 93.3497 1.21271 93.5925 1.20655 93.7978C1.20128 94.2623 1.28939 94.5936 1.37378 94.9083C1.40789 95.0298 1.45119 95.153 1.50688 95.2768C1.69009 95.6642 1.96157 96.0871 2.5708 96.3435C3.04312 96.5233 3.44162 96.3689 3.6368 96.2646C3.76773 96.1943 3.86233 96.1221 3.94443 96.0513C4.14021 95.8788 4.24812 95.7146 4.33362 95.5695C4.60896 95.0668 4.67874 94.6902 4.76483 94.314C4.79502 94.1715 4.80945 94.016 4.80372 93.8642C4.79607 93.6192 4.73275 93.3949 4.68498 93.2542C4.65631 93.1686 4.62069 93.0779 4.57228 92.9813C4.47996 92.7976 4.33301 92.5783 4.09187 92.3989C3.97405 92.3116 3.84829 92.2448 3.71569 92.196C3.46257 92.1049 3.17924 92.0679 2.85574 92.1476C2.61271 92.2075 2.38579 92.3468 2.23189 92.5C2.0582 92.6711 1.95828 92.8485 1.89023 93.0061C1.84084 93.1215 1.80155 93.2393 1.7717 93.3574C1.54989 94.3595 1.84803 95.1134 2.20523 95.7874C2.24953 95.8645 2.30724 95.9536 2.40569 96.0547C2.54278 96.2043 2.83765 96.3825 3.13523 96.4001C3.4307 96.4218 3.6318 96.3407 3.763 96.2793C3.84054 96.2418 3.91366 96.199 3.9816 96.1524C4.61388 95.6797 4.72958 95.1752 4.85665 94.7863C4.9675 94.3886 5.01428 94.0189 5.05697 93.7098C5.05885 93.6963 5.06056 93.6827 5.06211 93.669C5.08475 93.4758 5.07599 93.1918 4.94007 92.9103C4.8073 92.6275 4.57823 92.4391 4.44481 92.3526C4.44469 92.3525 4.44456 92.3525 4.44443 92.3524C3.79499 91.9125 3.0148 92.1258 2.63084 92.3963C2.54839 92.4504 2.48262 92.5078 2.42916 92.5623C2.36592 92.6268 2.31934 92.6874 2.28156 92.7426C2.01825 93.1747 2.02932 93.3699 1.98464 93.593C1.97825 93.6381 1.97312 93.6847 1.96965 93.7333C1.95259 94.0097 1.97121 94.4039 2.26055 94.8013C2.27848 94.8253 2.29717 94.8487 2.31667 94.8716C2.58347 95.2202 3.26682 95.5211 3.86248 95.2297L4.14524 95.033C4.17356 95.0049 4.20077 94.9767 4.22704 94.9482C4.36051 94.8035 4.41961 94.6138 4.43615 94.4188C4.44451 94.321 4.44272 94.2213 4.436 94.119C4.43095 94.0007 4.41227 93.9652 4.41765 93.7184L3.3469 93.5003C3.35219 93.5367 3.36251 93.5537 3.37067 93.5767C3.4468 93.7636 3.62246 93.9614 3.74896 94.1526C3.75015 94.1543 3.75257 94.1563 3.75483 94.1579C3.75715 94.1594 3.7591 94.1604 3.76115 94.1609C3.76319 94.1613 3.7654 94.1612 3.76815 94.1607C3.77085 94.1603 3.77387 94.1595 3.77568 94.1584C3.77568 94.1584 3.77568 94.1584 3.77568 94.1584C3.96987 94.0381 4.21231 93.9249 4.35829 93.8007C4.37451 93.7883 4.39284 93.7697 4.40687 93.7713L3.33612 93.5532C3.31597 93.4284 3.24219 93.5064 3.1833 93.5001C3.12134 93.5095 3.05817 93.5187 3.00088 93.5265C2.88572 93.5431 2.79493 93.554 2.75938 93.5924C2.75227 93.6001 2.74532 93.6073 2.73862 93.614L3.02138 93.4173C3.17013 93.343 3.39159 93.332 3.53584 93.3812C3.68428 93.4282 3.77238 93.5009 3.83799 93.5763C3.84631 93.5861 3.85425 93.5961 3.86185 93.6063C3.98195 93.7769 3.95978 93.8753 3.96264 93.8753C3.96256 93.8765 3.96257 93.8758 3.96286 93.8738C3.96352 93.8012 4.03169 93.6911 3.93246 93.8681C3.9157 93.8926 3.89235 93.9238 3.85522 93.9617C3.82382 93.9937 3.78215 94.0306 3.72603 94.0675C3.72496 94.0671 3.70824 94.0835 3.6359 94.0925C3.56766 94.1037 3.4255 94.0788 3.33732 94.0156C3.33729 94.0156 3.33725 94.0156 3.33721 94.0156C3.32555 94.0092 3.20843 93.9241 3.13867 93.7746C3.06695 93.6257 3.07064 93.4937 3.07661 93.4454C3.07702 93.4418 3.07746 93.4383 3.07791 93.4351C3.03439 93.7593 2.99477 94.027 2.93289 94.2465C2.88429 94.4645 2.75241 94.5999 2.8524 94.504C2.86371 94.4963 2.87765 94.488 2.89326 94.4805C2.95634 94.4519 3.08207 94.3935 3.30138 94.4089C3.52275 94.421 3.74695 94.5599 3.83151 94.655C3.89443 94.7198 3.92322 94.7674 3.94237 94.8003C3.74141 94.456 3.65187 94.0039 3.70881 93.8471C3.71408 93.8263 3.72023 93.8083 3.72734 93.7917C3.71759 93.813 3.69647 93.8612 3.62902 93.9284C3.57031 93.9878 3.46229 94.0564 3.34914 94.0838C3.20277 94.1186 3.10901 94.0999 3.02656 94.0714C2.98339 94.0554 2.94249 94.034 2.9012 94.0035C2.81878 93.9416 2.79101 93.8858 2.78658 93.8776C2.78395 93.8723 2.78632 93.8765 2.79002 93.8877C2.81414 93.9596 2.80723 93.9559 2.80697 93.9362C2.80639 93.9242 2.80813 93.9089 2.80945 93.9033C2.75244 94.1871 2.66078 94.4785 2.604 94.5692C2.59231 94.5916 2.58529 94.5873 2.63469 94.5424C2.6413 94.5371 2.65481 94.5242 2.69757 94.501C2.75181 94.4726 2.97735 94.363 3.29574 94.4816C3.42409 94.5438 3.35445 94.5328 3.32894 94.4568C3.31824 94.4331 3.30728 94.4033 3.2975 94.3684C3.23496 94.1515 3.1994 93.9371 3.20398 93.8472C3.20403 93.8094 3.21345 93.8068 3.19318 93.8575C3.20134 93.8383 3.20727 93.8265 3.20828 93.8247C3.20533 93.7978 3.20222 93.973 2.78518 94.0931C2.87931 94.0663 2.95116 94.1044 2.8218 94.059C2.77883 94.0404 2.71522 93.9981 2.66817 93.9433C2.63494 93.9063 2.6009 93.8501 2.5835 93.8036C2.55711 93.734 2.55979 93.6986 2.55939 93.7017C2.55938 93.748 2.55442 93.7959 2.5498 93.8187C2.54775 93.8428 2.5327 93.8393 2.59135 93.7466C2.47586 93.9223 2.34381 94.0685 2.33418 94.0686C2.33397 94.0695 2.36624 94.0417 2.45236 94.0209C2.49092 94.0124 2.53368 94.007 2.6008 94.016C2.66561 94.0248 2.76029 94.0543 2.84939 94.1201C2.80604 94.0881 2.77139 94.0413 2.75534 93.9897C2.74984 93.9726 2.74543 93.9533 2.74257 93.9301C2.74036 93.9127 2.74017 93.8937 2.74128 93.8811C2.74179 93.8663 2.74797 93.8585 2.73446 93.8923C2.73408 93.8929 2.72959 93.905 2.7113 93.9315C2.68344 93.9777 2.56696 94.0932 2.42277 94.1349C2.59614 94.0702 2.71905 94.1057 2.57643 94.0727C2.5524 94.0641 2.52343 94.0501 2.49719 94.0325C2.45139 94.0008 2.43737 93.982 2.42054 93.9572C2.4124 93.9443 2.40396 93.9293 2.39429 93.9037C2.38912 93.8898 2.38049 93.8618 2.37802 93.819C2.37564 93.7805 2.37994 93.7299 2.39381 93.6821C2.35183 93.8366 2.26446 93.9884 2.22135 94.0284C2.21093 94.0393 2.20423 94.0444 2.20246 94.0457C2.22602 94.0188 2.48187 93.8892 2.7333 93.9527C2.86903 93.9837 2.9338 94.0317 2.9608 94.0501C2.94271 94.0393 2.92087 94.0051 2.94071 94.0377C2.94625 94.0485 2.95429 94.067 2.96071 94.0925C2.89204 93.8369 2.88395 93.5527 2.91063 93.4739C2.91562 93.4537 2.91893 93.4537 2.90847 93.471C2.88957 93.5024 2.84526 93.5573 2.77881 93.6003C2.71007 93.6463 2.62745 93.6698 2.57549 93.6739C2.79385 93.6347 2.94313 93.726 2.7236 93.6139C2.69565 93.5942 2.66591 93.5678 2.64119 93.5393C2.58191 93.4704 2.53653 93.3877 2.51512 93.2734C2.50157 93.1993 2.50124 93.1102 2.52282 93.0204C2.44149 93.4312 2.24303 93.6438 2.24666 93.6152C2.24522 93.6158 2.24379 93.6164 2.24142 93.6171C2.35598 93.5856 2.45145 93.5934 2.5607 93.6465C2.57663 93.6546 2.59309 93.6641 2.61019 93.6756C2.67941 93.7122 2.77454 93.8562 2.77973 93.9041C2.78222 93.9129 2.78358 93.9195 2.78435 93.9237C2.72588 93.6234 2.71946 93.3605 2.74545 93.2788C2.74925 93.2634 2.75261 93.2552 2.75374 93.2526C2.78972 93.159 2.8555 93.0966 2.77195 93.1828C2.73546 93.215 2.65016 93.281 2.50695 93.3155C2.62716 93.2866 2.73902 93.2704 2.8035 93.2691C2.86927 93.2622 2.86721 93.298 2.7271 93.2189C2.71798 93.2131 2.70847 93.2066 2.69894 93.1995C2.74331 93.2162 2.63684 93.2257 2.5566 92.8907C2.552 92.8627 2.54902 92.8338 2.54789 92.8044C2.55455 92.9202 2.50694 93.0947 2.4428 93.1841C2.43498 93.1959 2.42692 93.2069 2.41862 93.2173C2.32244 93.3387 2.22847 93.445 2.1663 93.5009C2.11293 93.5698 2.05819 93.5045 2.37324 93.4774C2.39788 93.4776 2.42361 93.4792 2.44957 93.4826C2.72667 93.5331 2.75449 93.6355 2.75156 93.6196C2.75148 93.6195 2.75138 93.6193 2.75126 93.6192C2.69727 93.5462 2.72658 93.5701 2.73197 93.6185C2.73253 93.6224 2.73296 93.6262 2.73328 93.6298C2.71919 93.4704 2.72434 93.2849 2.74603 93.1593C2.75416 93.03 2.85009 92.9811 2.68044 93.1449C2.6506 93.1682 2.6128 93.1912 2.57275 93.2086C2.698 93.1489 2.78134 93.1875 2.70782 93.1599C2.70626 93.159 2.70405 93.1578 2.70113 93.1561C2.68419 93.1455 2.63277 93.1165 2.56569 93.0336C2.49816 92.9535 2.43791 92.8107 2.42776 92.7058C2.42812 92.7086 2.42846 92.7116 2.42877 92.7147C2.44137 92.8192 2.4103 93.0114 2.32826 93.1823C2.32221 93.1952 2.31591 93.2082 2.30931 93.2212C2.22591 93.3864 2.13863 93.536 2.06203 93.6384C1.99127 93.7435 1.90723 93.778 2.0089 93.7276C2.0172 93.7243 2.02676 93.721 2.03728 93.7179C2.04892 93.7161 2.09178 93.6964 2.21644 93.7107C2.33731 93.7188 2.54833 93.825 2.63718 93.9418C2.63642 93.9409 2.63566 93.94 2.6349 93.9391C2.53676 93.8209 2.49148 93.6854 2.49992 93.5543C2.50049 93.5446 2.50132 93.5348 2.50245 93.5248C2.54013 93.1059 2.67748 92.7202 2.74882 92.664C2.75562 92.6564 2.76001 92.6526 2.76218 92.6508C2.90294 92.5342 3.14893 92.4328 3.27972 92.4276C3.41955 92.4264 3.42425 92.4277 3.5276 92.5212C3.51985 92.5131 3.51323 92.5049 3.5082 92.4976C3.47007 92.4059 3.53509 92.5777 3.45363 92.7762C3.4525 92.7794 3.45138 92.7826 3.45026 92.7857C3.32346 93.1455 3.18113 93.4965 3.02248 93.8047C2.88409 94.1001 2.61981 94.4138 2.64092 94.3753C2.6449 94.3729 2.65134 94.3694 2.65982 94.3654C2.63184 94.3821 2.62574 94.3741 2.7191 94.3645C2.80364 94.3477 3.05164 94.4016 3.16197 94.5059C3.16023 94.5047 3.15848 94.5034 3.15673 94.5021C3.1301 94.4827 3.10361 94.4603 3.0783 94.4359C2.95935 94.3212 2.87531 94.1703 2.83975 94.0126C2.83881 94.0086 2.83788 94.0044 2.83695 94.0003C2.8098 93.8651 2.82552 93.9489 2.75904 94.0517C2.75158 94.0635 2.7441 94.0734 2.73774 94.081C2.69026 94.1084 2.98769 93.913 3.26776 93.781Z" fill="var(--stroke-0, #05030C)"/>
<path id="Vector 30" d="M2.05895 117.014C2.29166 117.014 2.51484 116.921 2.67939 116.757C2.84394 116.592 2.93639 116.369 2.93639 116.136C2.93639 115.903 2.84394 115.68 2.67939 115.516C2.51484 115.351 2.29166 115.259 2.05895 115.259C2.05895 115.259 2.05895 115.259 2.05895 115.259C1.88776 115.259 1.74991 115.308 1.65549 115.356C1.58184 115.393 1.53138 115.43 1.49022 115.464C1.40953 115.533 1.38826 115.562 1.35607 115.601C1.30898 115.66 1.28618 115.699 1.26901 115.728C1.23469 115.788 1.21993 115.822 1.20447 115.856C1.1768 115.92 1.16071 115.965 1.14528 116.01C1.1156 116.097 1.0943 116.171 1.07482 116.244C1.03628 116.389 1.00702 116.524 0.980527 116.66C0.928495 116.928 0.890804 117.191 0.86121 117.453C0.857353 117.488 0.854699 117.521 0.853171 117.557C0.843783 117.752 0.875798 117.979 0.96013 118.182C1.22653 118.781 1.66806 118.998 2.01031 119.129C2.0355 119.138 2.06083 119.146 2.08589 119.153C2.63684 119.308 3.12245 119.266 3.61307 119.087C3.61374 119.086 3.6144 119.086 3.61506 119.086C4.68888 118.792 5.48914 117.344 5.48324 116.496C5.48903 116.45 5.49233 116.403 5.49336 116.357C5.45549 115.547 5.09535 115.281 4.82277 115.011C4.7834 114.977 4.74257 114.946 4.70216 114.918C4.06796 114.535 3.70424 114.627 3.39603 114.617C3.08998 114.631 2.83624 114.667 2.59646 114.696C2.59448 114.696 2.5925 114.697 2.59052 114.697C1.88691 114.772 1.20761 115.215 0.830009 115.741C0.818433 115.756 0.807042 115.772 0.795912 115.787C0.459124 116.257 0.480764 116.77 0.527038 117.066C0.578047 117.38 0.662251 117.605 0.738002 117.809C0.739153 117.812 0.740304 117.815 0.741454 117.818C0.912087 118.236 1.12938 118.502 1.48738 118.758C1.49379 118.763 1.50026 118.767 1.50677 118.771C1.67663 118.888 1.96345 119.003 2.23676 119.008C2.50981 119.016 2.71174 118.951 2.85542 118.897C2.87574 118.889 2.89499 118.881 2.91383 118.873C3.79719 118.46 4.13566 117.823 4.42075 117.256C4.4277 117.241 4.43455 117.226 4.44132 117.211C4.75276 116.58 4.64497 115.744 4.35352 115.236C4.35029 115.23 4.34704 115.224 4.34379 115.218C4.07637 114.729 3.64418 114.532 3.36166 114.44C3.06358 114.346 2.81918 114.323 2.59109 114.311C2.57273 114.31 2.55439 114.309 2.53634 114.309C2.14977 114.293 1.77689 114.423 1.49709 114.62C1.45931 114.646 1.42276 114.674 1.3874 114.702C0.923809 115.101 0.833897 115.521 0.762977 115.814C0.700474 116.118 0.68752 116.369 0.678732 116.605C0.67831 116.618 0.67792 116.631 0.677558 116.644C0.659239 117.538 1.16185 118.218 1.71695 118.625C1.72732 118.633 1.73773 118.64 1.74818 118.648C1.97141 118.817 2.34162 118.909 2.61554 118.867C2.89327 118.831 3.07542 118.73 3.21016 118.643C3.47484 118.463 3.60143 118.298 3.71711 118.145C3.72989 118.127 3.74206 118.11 3.75427 118.093C3.99049 117.753 4.19441 117.382 4.34299 116.958C4.41661 116.744 4.47746 116.52 4.50905 116.255C4.52403 116.122 4.53299 115.98 4.51862 115.804C4.49179 115.624 4.50445 115.423 4.2455 115.047C4.24431 115.045 4.24312 115.044 4.24193 115.042C3.88861 114.61 3.54903 114.485 3.2189 114.379C3.21091 114.377 3.20289 114.374 3.19485 114.372C2.7591 114.264 2.43365 114.25 1.97341 114.349C1.9409 114.357 1.90711 114.366 1.87241 114.377C1.50784 114.459 1.04708 114.856 0.906976 115.155C0.8879 115.189 0.870867 115.221 0.855413 115.252C0.296274 116.369 0.755193 117.52 1.26462 118.21C1.2689 118.216 1.27324 118.222 1.27764 118.228C1.44878 118.471 1.79432 118.678 2.07029 118.722C2.34948 118.774 2.55291 118.74 2.71518 118.704C2.72216 118.702 2.72907 118.7 2.73591 118.699C3.64385 118.422 3.91173 117.851 4.15901 117.45C4.16283 117.443 4.16661 117.436 4.17035 117.429C4.571 116.626 4.28232 115.979 4.10489 115.592C4.10338 115.589 4.10187 115.586 4.10035 115.583C3.76512 114.971 3.28208 114.885 3.07246 114.817C3.06878 114.816 3.06513 114.815 3.06152 114.814C2.76438 114.74 2.47543 114.727 2.14725 114.8C2.12539 114.805 2.10335 114.811 2.08116 114.817C1.78376 114.881 1.34865 115.168 1.1725 115.506C1.1545 115.537 1.13826 115.567 1.1232 115.597C0.732002 116.304 0.793657 117.362 1.20384 118.011C1.21165 118.024 1.21972 118.038 1.22814 118.052C1.44967 118.456 2.01816 118.684 2.33397 118.662C2.33682 118.662 2.33967 118.662 2.34251 118.662C2.95742 118.644 3.26449 118.344 3.46439 118.161C3.66596 117.961 3.79294 117.776 3.90646 117.597C3.90837 117.594 3.91028 117.591 3.91218 117.588C4.03266 117.393 4.1356 117.182 4.20996 116.935C4.24672 116.811 4.27686 116.679 4.29219 116.521C4.29919 116.355 4.33425 116.205 4.21023 115.842C4.18117 115.767 4.14227 115.692 4.09127 115.62C3.89067 115.333 3.60103 115.228 3.45025 115.198C3.28789 115.166 3.19193 115.173 3.11256 115.179C2.95866 115.195 2.87396 115.224 2.79133 115.253C2.67468 115.297 2.58728 115.336 2.44904 115.434C2.43388 115.445 2.41901 115.457 2.40449 115.468C1.94027 115.879 1.95573 116.25 1.9251 116.434C1.90962 116.635 1.92069 116.767 1.92629 116.878C1.92781 116.903 1.92999 116.93 1.93313 116.958C1.94925 117.169 2.08674 117.658 2.54126 117.911C2.59692 117.943 2.64839 117.966 2.69518 117.985C3.09876 118.121 3.21993 118.072 3.31908 118.083C3.32477 118.083 3.3287 118.083 3.33087 118.083C3.34715 118.084 3.26792 118.059 3.23944 118.008C3.20761 117.958 3.21738 117.893 3.25717 117.82C3.3381 117.674 3.51972 117.489 3.75704 117.247C3.75812 117.246 3.75908 117.245 3.75977 117.244C3.76046 117.243 3.76089 117.243 3.76121 117.242C3.76153 117.242 3.76172 117.241 3.76201 117.24C3.76228 117.239 3.76268 117.238 3.76318 117.237C3.76318 117.237 3.76318 117.237 3.76318 117.237C3.86981 116.914 3.91864 116.653 3.85941 116.445C3.82935 116.342 3.76685 116.25 3.66044 116.182C3.5575 116.114 3.40143 116.084 3.34127 116.085C3.33212 116.085 3.32477 116.085 3.31908 116.085C3.24623 116.094 3.18976 116.051 3.4298 116.127C3.45857 116.138 3.49245 116.154 3.53127 116.176C3.67115 116.252 3.79664 116.398 3.84844 116.507C3.90371 116.619 3.91302 116.692 3.9186 116.734C3.91972 116.744 3.92039 116.752 3.92083 116.76C3.91489 116.67 3.91517 116.602 3.91603 116.602C3.90311 116.59 3.96141 116.745 3.65669 117.025C3.64726 117.033 3.6376 117.04 3.62774 117.047C3.54731 117.104 3.52435 117.111 3.47452 117.131C3.43875 117.142 3.40248 117.158 3.29832 117.169C3.2438 117.173 3.1729 117.18 3.03508 117.153C2.90854 117.128 2.64303 117.034 2.45678 116.769C2.40961 116.702 2.37373 116.632 2.34713 116.564C2.27526 116.343 2.30911 116.349 2.30305 116.333C2.30395 116.326 2.3019 116.342 2.2955 116.363C2.28281 116.406 2.25483 116.47 2.21564 116.532C2.21463 116.534 2.21362 116.536 2.21261 116.537C2.15467 116.631 2.09168 116.71 2.06371 116.736C2.03638 116.776 2.05832 116.68 2.34405 116.664C2.34532 116.664 2.34659 116.664 2.34786 116.664C2.45803 116.644 2.81231 116.778 2.92778 117.001C2.93221 117.008 2.9364 117.015 2.94042 117.022C2.82016 116.789 2.82036 116.696 2.91218 116.487C2.90836 116.495 2.9039 116.503 2.89859 116.512C2.85184 116.618 2.65096 116.745 2.60833 116.744C2.60503 116.745 2.60204 116.746 2.59932 116.746C2.55961 116.753 2.5745 116.75 2.56361 116.749C2.56474 116.749 2.56585 116.75 2.56692 116.75C2.65648 116.761 2.5028 116.799 2.31441 116.479C2.31364 116.477 2.31288 116.476 2.31213 116.474C2.41042 116.649 2.3247 116.699 2.41168 116.48C2.40965 116.484 2.40761 116.488 2.40557 116.492C2.2951 116.73 2.09078 116.837 2.25638 116.759C2.25695 116.759 2.25758 116.759 2.25827 116.759C2.27413 116.757 2.32402 116.738 2.45463 116.761C2.58223 116.778 2.79005 116.902 2.87158 117.023C2.87374 117.026 2.87586 117.029 2.87794 117.032C2.74712 116.854 2.6467 116.641 2.61435 116.486C2.58182 116.324 2.59635 116.243 2.64155 116.147C2.64365 116.143 2.64494 116.141 2.64515 116.14C2.66611 116.138 2.48518 116.298 2.45132 116.289C2.44848 116.29 2.44724 116.29 2.44721 116.29C2.45744 116.281 2.62898 116.282 2.65908 116.297C2.66049 116.297 2.66187 116.298 2.66324 116.298C2.71673 116.305 2.75653 116.369 2.65486 116.256C2.65451 116.256 2.65415 116.255 2.6538 116.255C2.4946 116.015 2.53925 115.987 2.52779 115.973C2.52747 115.965 2.52857 115.991 2.52434 116.025C2.51653 116.095 2.49233 116.197 2.45582 116.302C2.38251 116.513 2.26306 116.738 2.11497 116.95C2.11132 116.956 2.1079 116.96 2.10457 116.965C2.07868 117.004 2.04517 117.022 2.11058 116.975C2.14593 116.954 2.21649 116.905 2.37522 116.883C2.53045 116.857 2.77692 116.918 2.90303 117.017C2.90026 117.015 2.89748 117.013 2.8947 117.011C2.72468 116.89 2.66376 116.727 2.67481 116.7C2.67509 116.69 2.67539 116.68 2.67571 116.67C2.68116 116.493 2.69584 116.329 2.71799 116.226C2.73317 116.118 2.78819 116.121 2.64968 116.251C2.64608 116.254 2.64227 116.257 2.63812 116.26C2.61005 116.281 2.54442 116.309 2.46615 116.305C2.47598 116.306 2.48577 116.306 2.49535 116.307C2.6129 116.311 2.71569 116.33 2.74836 116.342C2.79217 116.354 2.68567 116.342 2.58358 116.164C2.58443 116.165 2.58528 116.167 2.58612 116.168C2.65758 116.324 2.64179 116.322 2.62214 116.385C2.61818 116.393 2.61417 116.402 2.61013 116.411C2.46267 116.751 2.19694 117.027 2.1346 117.033C2.13368 117.034 2.13342 117.034 2.1339 117.034C2.13557 117.034 2.18609 117.009 2.30584 117.011C2.42577 117.012 2.56399 117.071 2.60686 117.103C2.60774 117.104 2.60855 117.104 2.6093 117.105C2.63505 117.13 2.58528 117.067 2.60836 117.106C2.6075 117.104 2.60664 117.102 2.60579 117.1C2.54868 116.952 2.50952 116.819 2.50163 116.76C2.48963 116.689 2.52831 116.794 2.41781 116.954C2.42147 116.949 2.42519 116.944 2.42893 116.939C2.56435 116.765 2.67637 116.703 2.84067 116.679C2.84265 116.679 2.84462 116.679 2.84659 116.678C3.08297 116.649 3.30591 116.621 3.47941 116.614C3.6441 116.59 3.79298 116.678 3.56779 116.563C3.55393 116.553 3.53907 116.542 3.52422 116.529C3.58216 116.55 3.54203 116.667 3.50647 116.317C3.50696 116.298 3.50844 116.277 3.51104 116.257C3.42794 116.946 3.3364 117.057 2.90317 117.269C2.90305 117.269 2.90293 117.269 2.9028 117.269C2.81092 117.313 2.64278 117.331 2.58804 117.324C2.58559 117.324 2.58335 117.324 2.58136 117.325C2.49918 117.32 2.50592 117.294 2.58369 117.47C2.60383 117.528 2.60884 117.594 2.60651 117.631C2.60621 117.638 2.60573 117.644 2.60513 117.649C2.63026 117.426 2.66242 117.205 2.70318 116.995C2.72367 116.889 2.7463 116.787 2.77058 116.696C2.78246 116.651 2.79539 116.608 2.80518 116.579C2.80971 116.566 2.81444 116.554 2.81125 116.562C2.80872 116.567 2.80647 116.575 2.78763 116.608C2.77778 116.624 2.76389 116.649 2.72567 116.698C2.69904 116.729 2.68164 116.754 2.60749 116.817C2.56949 116.848 2.52202 116.883 2.45137 116.92C2.36083 116.966 2.22666 117.013 2.05895 117.014Z" fill="var(--stroke-0, #05030C)"/>
<path id="Vector 31" d="M2.77129 139.778C2.97213 139.615 3.09977 139.378 3.12613 139.12C3.1525 138.863 3.07544 138.605 2.91189 138.404C2.74835 138.203 2.51172 138.076 2.25406 138.049C1.99641 138.023 1.73883 138.1 1.538 138.264C1.538 138.264 1.538 138.264 1.538 138.264C1.41708 138.363 1.28097 138.471 1.12582 138.618C0.975324 138.775 0.776368 138.929 0.603258 139.375C0.599529 139.386 0.595926 139.396 0.592451 139.407C0.4497 139.83 0.555064 140.275 0.67775 140.527C0.802962 140.792 0.941988 140.963 1.07151 141.112C1.28396 141.35 1.48871 141.524 1.67618 141.677C1.69775 141.694 1.71961 141.711 1.74226 141.727C2.11627 142.014 2.63266 142.098 2.97373 142.068C3.03427 142.064 3.09375 142.056 3.15156 142.046C4.33693 141.722 4.56246 141.076 4.91792 140.602C4.95179 140.548 4.98252 140.493 5.01054 140.439C5.25377 139.954 5.32164 139.507 5.31175 139.035C5.31046 138.996 5.30825 138.958 5.30509 138.92C5.25847 138.475 5.14353 138.03 4.70565 137.583C4.67489 137.553 4.64328 137.525 4.61001 137.498C4.05306 137.063 3.49252 137.13 3.17426 137.173C2.83352 137.229 2.57948 137.319 2.35071 137.396C2.26608 137.425 2.18258 137.46 2.10202 137.5C1.43387 137.838 1.11491 138.4 0.915985 138.835C0.878747 138.918 0.846988 139.003 0.820514 139.088C0.582307 139.894 0.775851 140.565 0.941887 141.076C0.968016 141.154 1.0005 141.231 1.03994 141.307C1.22113 141.662 1.56941 141.975 2.00711 142.091C2.12233 142.122 2.23344 142.136 2.33702 142.139C2.78067 142.145 3.09264 142.007 3.37624 141.806C3.47431 141.733 3.55315 141.658 3.61929 141.586C4.22146 140.822 4.23335 140.364 4.40941 139.882C4.42608 139.828 4.44099 139.772 4.45418 139.716C4.60143 139.13 4.48507 138.409 4.11407 137.889C4.07923 137.838 4.04146 137.79 4.00032 137.744C3.61533 137.315 3.12625 137.222 2.82163 137.198C2.50083 137.175 2.25092 137.21 2.03632 137.24C1.87995 137.263 1.72943 137.313 1.60091 137.378C1.22091 137.574 1.0339 137.831 0.896804 138.05C0.836812 138.15 0.789031 138.251 0.751295 138.349C0.464958 139.216 0.638802 139.764 0.738489 140.289C0.752766 140.35 0.76926 140.409 0.787324 140.464C0.964486 140.95 1.14221 141.247 1.57134 141.63C1.63317 141.68 1.70742 141.734 1.80202 141.785C2.03778 141.933 2.52507 141.99 2.81223 141.874C3.10365 141.772 3.23736 141.65 3.34419 141.563C3.39088 141.523 3.43543 141.482 3.4779 141.441C3.98562 140.928 4.2109 140.372 4.37376 139.846C4.38686 139.802 4.39895 139.758 4.41037 139.712C4.47603 139.351 4.61623 138.922 4.23177 138.239C4.15866 138.126 4.07523 138.039 3.99689 137.973C3.61108 137.683 3.39926 137.674 3.09892 137.655C2.98158 137.653 2.84163 137.67 2.7042 137.715C2.25514 137.87 2.06963 138.179 1.97993 138.331C1.93973 138.402 1.90826 138.471 1.88291 138.537C1.61847 139.409 1.80074 139.814 1.89253 140.296C1.89808 140.318 1.90398 140.339 1.91022 140.361C2.04712 140.922 2.60361 141.491 3.19706 141.626C3.30199 141.654 3.41018 141.666 3.50933 141.665C3.89994 141.653 4.09973 141.514 4.24111 141.422C4.38152 141.323 4.47051 141.233 4.54867 141.148C4.57597 141.117 4.60214 141.087 4.6273 141.055C5.01566 140.565 5.13065 140.036 5.17035 139.585C5.17235 139.561 5.17389 139.537 5.17498 139.512C5.20157 138.866 4.92142 138.282 4.46085 137.882C4.44539 137.869 4.42992 137.856 4.41395 137.844C4.04739 137.559 3.66053 137.543 3.47353 137.541C3.43879 137.541 3.39919 137.542 3.35331 137.546C3.20621 137.555 2.93912 137.612 2.71758 137.781C2.49655 137.948 2.39079 138.139 2.33202 138.267C2.32058 138.292 2.30966 138.317 2.29926 138.342C1.89212 139.406 2.29227 140.301 2.69495 140.939C2.70049 140.948 2.70612 140.956 2.71185 140.965C2.94164 141.334 3.50645 141.629 3.99669 141.554C4.03627 141.55 4.07522 141.543 4.1137 141.535C4.73753 141.374 4.91709 141.028 5.05667 140.84C5.18909 140.632 5.2613 140.462 5.32653 140.304C5.33464 140.285 5.34238 140.265 5.34976 140.245C5.56284 139.651 5.50013 139.15 5.45785 138.78C5.45746 138.777 5.45707 138.773 5.45668 138.77C5.43431 138.509 5.25607 138.155 5.03482 137.976C4.81698 137.79 4.62872 137.726 4.48476 137.682C4.48212 137.681 4.47948 137.68 4.47685 137.68C4.02853 137.574 3.78241 137.579 3.34048 137.706C3.31382 137.715 3.28671 137.725 3.25919 137.736C2.83111 137.869 2.43497 138.424 2.38059 138.734C2.37609 138.751 2.37172 138.767 2.3675 138.783C2.30948 139.003 2.26911 139.247 2.27009 139.511C2.24726 140.028 2.53706 140.686 2.79864 140.983C2.81394 141.003 2.83018 141.023 2.84775 141.043C2.95417 141.167 3.14783 141.314 3.38173 141.373C3.61498 141.435 3.83223 141.403 3.97622 141.354C4.26701 141.248 4.3752 141.118 4.48415 140.975C4.5065 140.944 4.52658 140.913 4.54441 140.881C4.64125 140.712 4.51946 140.483 4.35147 140.352C4.18474 140.214 3.98668 140.154 3.94665 140.111C3.94168 140.106 3.93899 140.1 3.93889 140.095C3.9357 139.978 3.90953 139.873 3.88702 139.77C3.88313 139.752 3.87246 139.737 3.85738 139.727C3.84229 139.718 3.82402 139.715 3.80658 139.718C3.78913 139.722 3.77395 139.733 3.76437 139.748C3.75479 139.763 3.7516 139.781 3.7555 139.799C3.77822 139.902 3.8019 140.003 3.80415 140.098C3.80423 140.102 3.80163 140.106 3.79662 140.111C3.75626 140.146 3.55041 140.164 3.36446 140.102C3.17729 140.047 3.02445 139.892 3.07441 139.785C3.08327 139.765 3.09382 139.746 3.10609 139.726C3.164 139.639 3.20934 139.556 3.42723 139.472C3.53496 139.433 3.71292 139.405 3.90952 139.456C4.1067 139.505 4.26817 139.629 4.34967 139.725C4.36325 139.741 4.37561 139.756 4.38707 139.771C4.24707 139.581 4.28354 139.621 4.26812 139.503C4.26773 139.451 4.27661 139.378 4.29924 139.293C4.30087 139.287 4.30258 139.281 4.30438 139.274C4.32554 139.287 4.1334 139.566 4.00022 139.592C3.99253 139.595 3.98555 139.597 3.97932 139.599C3.88634 139.616 4.02157 139.614 3.92701 139.6C3.92664 139.6 3.92625 139.6 3.92586 139.6C3.90572 139.592 3.83953 139.581 3.71981 139.48C3.59739 139.385 3.48211 139.154 3.47443 139.021C3.47475 139.024 3.47507 139.026 3.47539 139.029C3.51673 139.317 3.49753 139.508 3.47726 139.548C3.47674 139.549 3.47625 139.55 3.47579 139.552C3.43673 139.649 3.39488 139.731 3.37819 139.756C3.36938 139.795 3.35647 139.68 3.70446 139.58C3.72542 139.575 3.74681 139.572 3.76855 139.569C3.98888 139.529 4.27593 139.688 4.35731 139.831C4.35943 139.834 4.3615 139.837 4.3635 139.84C4.1393 139.513 4.09817 139.156 4.14739 139.102C4.14842 139.099 4.14952 139.097 4.15068 139.094C4.12629 139.146 4.06759 139.265 3.91374 139.382C3.75907 139.5 3.57576 139.534 3.51148 139.537C3.49019 139.539 3.47528 139.539 3.46522 139.539C3.50737 139.537 3.36436 139.556 3.18222 139.417C3.17456 139.411 3.16713 139.405 3.1597 139.399C3.17091 139.406 3.18312 139.443 3.17892 139.423C3.17893 139.423 3.17895 139.423 3.17896 139.422C3.16439 139.629 3.10109 139.771 3.07077 139.803C3.06876 139.805 3.06687 139.807 3.06506 139.809C3.06086 139.815 3.06054 139.81 3.10009 139.782C3.14124 139.76 3.22573 139.678 3.49235 139.667C3.55959 139.667 3.63581 139.675 3.70988 139.695C3.74375 139.689 3.84007 139.8 3.82912 139.804C3.82908 139.804 3.82899 139.803 3.82884 139.803C3.79139 139.656 3.76511 139.511 3.75568 139.394C3.74147 139.282 3.77047 139.172 3.74601 139.258C3.74089 139.272 3.73303 139.29 3.72022 139.312C3.70586 139.33 3.6249 139.508 3.32654 139.614C3.2375 139.644 3.14872 139.653 3.08228 139.653C2.96782 139.637 2.94923 139.674 2.71033 139.502C2.6621 139.462 2.6057 139.404 2.55395 139.324C2.42118 139.055 2.51234 139.142 2.4702 139.235C2.467 139.248 2.46329 139.261 2.45893 139.276C2.36397 139.604 2.20826 139.893 2.07695 140.016C2.06633 140.026 2.05604 140.036 2.04613 140.044C2.03531 140.058 2.04162 140.03 2.18564 139.977C2.32594 139.913 2.64631 139.952 2.74696 140.024C2.79035 140.048 2.81661 140.068 2.8334 140.081C2.83459 140.094 2.69256 139.897 2.68803 139.848C2.68605 139.842 2.68492 139.838 2.68447 139.836C2.58935 139.476 2.59134 139.074 2.61607 139.066C2.61601 139.067 2.61375 139.072 2.60797 139.082C2.61555 139.063 2.6188 139.097 2.49148 139.166C2.44872 139.188 2.39049 139.208 2.32903 139.217C2.48621 139.193 2.6134 139.185 2.66872 139.19C2.73516 139.194 2.63809 139.211 2.50561 139.07C2.49283 139.055 2.48122 139.04 2.47091 139.026C2.51545 139.097 2.53173 139.149 2.50791 139.264C2.50529 139.275 2.50213 139.287 2.49829 139.299C2.42906 139.526 2.36192 139.742 2.29304 139.924C2.23106 140.1 2.13189 140.263 2.14685 140.236C2.15222 140.23 2.16496 140.216 2.19059 140.197C2.23545 140.17 2.25506 140.144 2.40069 140.142C2.43492 140.144 2.47672 140.148 2.5249 140.161C2.66927 140.199 2.76916 140.299 2.81272 140.385C2.82226 140.404 2.82948 140.421 2.83485 140.437C2.7053 140.074 2.68857 139.78 2.72804 139.682C2.73162 139.671 2.73542 139.661 2.73954 139.652C2.84634 139.404 2.96943 139.292 2.98886 139.291C2.99276 139.289 2.99645 139.287 3.00098 139.286C3.20032 139.216 3.37885 139.163 3.48581 139.147C3.60691 139.121 3.54645 139.189 3.34915 139.048C3.33893 139.04 3.32931 139.031 3.32019 139.023C3.25208 138.942 3.31645 139.017 3.31375 139.083C3.31425 139.089 3.31461 139.095 3.31483 139.102C3.32236 139.255 3.27902 139.445 3.23654 139.52C3.23215 139.528 3.22807 139.536 3.22458 139.541C3.1157 139.715 2.99852 139.874 2.89674 139.978C2.79943 140.088 2.70377 140.108 2.81152 140.078C2.82136 140.076 2.83255 140.074 2.84461 140.074C2.78306 140.073 2.87596 140.075 2.92287 140.115C2.92551 140.117 2.9279 140.119 2.93008 140.121C2.76747 139.991 2.62548 139.874 2.53354 139.779C2.47778 139.724 2.44501 139.674 2.45141 139.69C2.45528 139.695 2.50594 139.847 2.45156 140.006C2.45033 140.01 2.44905 140.013 2.44774 140.017C2.38192 140.168 2.40377 140.089 2.47499 140.03C2.54515 139.963 2.65125 139.876 2.77129 139.778Z" fill="var(--stroke-0, #05030C)"/>
<path id="Vector 32" d="M2.23516 163.358C2.17725 163.106 2.02153 162.887 1.80227 162.75C1.583 162.612 1.31815 162.568 1.06597 162.626C0.813793 162.684 0.59495 162.839 0.457585 163.059C0.320219 163.278 0.275583 163.543 0.333496 163.795C0.492532 164.419 0.56376 165.044 1.01911 165.875C1.03343 165.899 1.04855 165.924 1.06403 165.948C1.33015 166.389 1.86688 166.798 2.39462 166.915C2.50075 166.942 2.6049 166.961 2.70489 166.973C2.71688 166.974 2.72874 166.975 2.74045 166.977C3.93695 167.053 4.5694 166.392 5.05213 165.988C5.06399 165.978 5.07573 165.967 5.08734 165.956C5.91942 165.15 6.11 164.058 5.94308 163.083C5.94193 163.077 5.94076 163.07 5.93957 163.064C5.711 162.098 5.03946 161.793 4.64111 161.569C4.20349 161.352 3.80598 161.225 3.42882 161.104C3.39888 161.095 3.36895 161.086 3.33902 161.077C2.47237 160.812 1.37098 161.014 0.662396 161.733C0.604973 161.791 0.551675 161.85 0.500272 161.913C-0.194053 162.759 -0.0276719 163.849 0.210713 164.484C0.462757 165.169 0.805766 165.705 1.21442 166.227C1.34297 166.389 1.51804 166.532 1.69907 166.625C2.22624 166.884 2.64219 166.823 2.96685 166.762C3.13008 166.728 3.28156 166.675 3.41979 166.61C3.79536 166.434 4.07711 166.185 4.29955 165.916C4.39679 165.798 4.47926 165.675 4.54936 165.553C5.10384 164.494 5.0456 163.583 4.9942 162.722C4.98488 162.613 4.96849 162.505 4.94479 162.397C4.68441 161.297 3.88292 160.74 3.34633 160.347C3.23749 160.27 3.11576 160.2 2.98095 160.143C2.56647 159.956 1.98879 159.946 1.54685 160.166C1.36547 160.252 1.22499 160.356 1.10904 160.461C0.742789 160.802 0.57435 161.141 0.437386 161.48C0.394538 161.591 0.359517 161.701 0.330959 161.811C0.05852 162.989 0.308899 163.924 0.541001 164.799C0.561455 164.871 0.584944 164.942 0.611644 165.013C0.787868 165.496 1.1392 165.941 1.53927 166.228C1.60515 166.277 1.67718 166.324 1.75622 166.369C2.19245 166.644 2.90636 166.66 3.31387 166.488C3.41101 166.453 3.49873 166.415 3.58084 166.374C4.08898 166.111 4.44419 165.784 4.75858 165.346C4.8106 165.271 4.85905 165.195 4.90456 165.117C5.37789 164.301 5.43564 163.378 5.31543 162.595C5.29689 162.472 5.2626 162.35 5.21685 162.239C5.0099 161.755 4.68467 161.535 4.50785 161.399C4.44398 161.353 4.37297 161.306 4.29093 161.26C4.05991 161.127 3.6629 160.995 3.25422 161.07C3.09808 161.097 2.95276 161.149 2.82468 161.214C2.46188 161.402 2.24191 161.683 2.10381 161.941C2.05554 162.031 2.01671 162.12 1.98442 162.206C1.66877 163.19 1.80446 163.843 1.85236 164.511C1.85849 164.569 1.8669 164.627 1.8778 164.685C1.99506 165.181 2.1655 165.699 2.91969 166.075C3.01311 166.115 3.11133 166.144 3.20842 166.162C4.01255 166.269 4.41909 165.904 4.72608 165.602C4.77668 165.548 4.82355 165.492 4.86668 165.434C5.51402 164.462 5.37347 163.667 5.31912 162.981C5.31334 162.934 5.3058 162.888 5.29644 162.842C5.24708 162.606 5.15944 162.377 4.98759 162.145C4.80359 161.947 4.58126 161.549 3.7632 161.606C3.59996 161.632 3.47054 161.687 3.37206 161.741C2.89813 162.045 2.86197 162.243 2.74679 162.425C2.65364 162.606 2.5934 162.771 2.54413 162.945C2.53502 162.977 2.52653 163.01 2.5186 163.043C2.42583 163.435 2.4075 163.838 2.50205 164.27C2.50653 164.29 2.51125 164.309 2.51638 164.33C2.55576 164.478 2.60319 164.635 2.72181 164.837C2.78379 164.938 2.86272 165.055 3.01651 165.187C3.16343 165.315 3.43845 165.466 3.75724 165.47C3.84096 165.471 3.92055 165.463 3.99087 165.451C4.56913 165.303 4.66869 165.079 4.81542 164.93C4.94303 164.771 5.02444 164.626 5.09399 164.478C5.10355 164.457 5.11274 164.437 5.12151 164.416C5.28384 164.025 5.34604 163.688 5.35305 163.285C5.35308 163.278 5.35307 163.27 5.35303 163.263C5.36546 162.958 5.24183 162.389 4.90804 162.047C4.90664 162.045 4.90523 162.044 4.90382 162.042C4.56418 161.688 4.2743 161.554 3.91739 161.431C3.90969 161.429 3.9019 161.426 3.89404 161.424C3.73968 161.378 3.52406 161.327 3.24893 161.351C2.97399 161.373 2.69229 161.497 2.51489 161.629C2.49496 161.643 2.47547 161.657 2.45642 161.672C1.62611 162.413 1.56591 163.061 1.36771 163.622C1.36564 163.629 1.36361 163.636 1.36161 163.643C1.31974 163.795 1.29089 163.946 1.28196 164.13C1.27869 164.225 1.27695 164.322 1.30147 164.474C1.31653 164.553 1.33017 164.64 1.40154 164.797C1.43968 164.874 1.49103 164.977 1.62213 165.109C1.74415 165.238 2.01884 165.402 2.30862 165.409C2.32414 165.409 2.33972 165.41 2.35534 165.41C2.68815 165.418 3.00587 165.251 3.1639 165.108C3.33073 164.962 3.4116 164.837 3.47693 164.73C3.60091 164.518 3.65351 164.359 3.70251 164.21C3.7941 163.916 3.8406 163.662 3.88352 163.432C3.88595 163.419 3.88826 163.406 3.89052 163.393C3.91764 163.124 4.02027 162.757 3.67611 162.185C3.67012 162.176 3.66405 162.167 3.6579 162.159C3.32403 161.748 2.86315 161.393 2.02853 161.736C1.9877 161.758 1.94874 161.781 1.91207 161.806C1.57939 162.045 1.49391 162.285 1.42954 162.439C1.3705 162.6 1.34852 162.722 1.33175 162.833C1.30119 163.05 1.30027 163.221 1.30341 163.386C1.31211 163.713 1.34741 164.002 1.39181 164.288C1.39218 164.29 1.39255 164.292 1.39292 164.295C1.43613 164.615 1.63946 164.99 1.92777 165.204C2.23466 165.412 2.467 165.556 3.03989 165.481C3.06468 165.476 3.08935 165.47 3.11379 165.464C3.48046 165.366 3.70121 165.119 3.80413 164.968C3.91353 164.806 3.95785 164.688 3.99564 164.584C4.06568 164.38 4.09079 164.233 4.11445 164.093C4.15774 163.819 4.17493 163.59 4.19658 163.384C4.19717 163.378 4.19773 163.373 4.19827 163.367C4.2116 163.192 4.21934 163.01 4.13969 162.736C4.09341 162.599 4.03498 162.423 3.82112 162.207C3.62418 161.982 3.11965 161.826 2.81999 161.911C2.80708 161.913 2.7945 161.916 2.78222 161.919C2.41466 162.021 2.3303 162.129 2.21434 162.215C2.11061 162.304 2.03521 162.386 1.96597 162.471C1.83032 162.642 1.72116 162.817 1.63251 163.061C1.6303 163.067 1.62814 163.074 1.62602 163.08C1.55536 163.291 1.51978 163.511 1.53955 163.764C1.55085 163.892 1.574 164.027 1.63867 164.191C1.7097 164.35 1.79766 164.568 2.1306 164.784C2.13921 164.789 2.14795 164.794 2.15684 164.8C2.40873 164.949 2.72227 164.971 2.9201 164.932C3.12499 164.894 3.25728 164.825 3.36345 164.761C3.57125 164.63 3.68893 164.499 3.79685 164.35C3.8266 164.307 3.85451 164.263 3.88081 164.217C3.88543 164.208 3.88997 164.2 3.89442 164.192C4.13446 163.732 4.08792 163.328 4.05578 163.083C4.05524 163.079 4.05469 163.076 4.05414 163.072C4.03443 162.949 4.01053 162.807 3.93303 162.612C3.85703 162.429 3.69887 162.12 3.31715 161.919C3.29849 161.91 3.2795 161.901 3.26023 161.892C2.74807 161.686 2.45384 161.802 2.23636 161.86C2.01834 161.933 1.85996 162.024 1.71588 162.12C1.71038 162.123 1.70484 162.127 1.69928 162.131C1.04708 162.595 1.12101 163.358 1.59678 163.928C1.59947 163.932 1.60205 163.935 1.60417 163.937C1.60634 163.94 1.60816 163.941 1.61036 163.942C1.61256 163.943 1.61499 163.943 1.61824 163.943C1.62146 163.942 1.6255 163.941 1.62973 163.941C1.62973 163.941 1.62973 163.941 1.62973 163.941C2.38589 163.774 2.80986 163.768 2.83014 163.778C2.83103 163.778 2.83196 163.777 2.83292 163.776C2.85887 163.758 2.88233 163.75 2.85925 163.759C2.83427 163.755 2.75781 163.834 2.43652 163.712C2.42477 163.707 2.41317 163.701 2.40178 163.695C2.16424 163.569 2.09918 163.402 2.08256 163.366C2.06501 163.32 2.07407 163.335 2.07844 163.37C2.07861 163.371 2.07877 163.372 2.07893 163.373C2.09504 163.457 2.05503 163.408 2.13387 163.247C2.13531 163.244 2.13678 163.242 2.13829 163.239C2.1465 163.224 2.15463 163.212 2.16309 163.199C2.19526 163.157 2.21944 163.122 2.31565 163.06C2.36604 163.03 2.4373 162.989 2.57745 162.963C2.71093 162.936 2.9553 162.95 3.15014 163.066C3.15692 163.07 3.16358 163.074 3.17011 163.078C3.42174 163.244 3.45756 163.376 3.49339 163.448C3.52295 163.524 3.52737 163.566 3.53073 163.599C3.53515 163.663 3.52735 163.692 3.51752 163.724C3.51721 163.725 3.5169 163.726 3.51658 163.726C3.50439 163.757 3.51381 163.733 3.52032 163.727C3.52261 163.724 3.52535 163.723 3.5082 163.738C3.4789 163.751 3.48967 163.79 3.2331 163.865C3.2243 163.867 3.21517 163.869 3.20569 163.871C2.98662 163.937 2.5694 163.809 2.4301 163.642C2.27505 163.484 2.25248 163.384 2.23044 163.325C2.19813 163.208 2.21029 163.193 2.20891 163.181C2.20894 163.18 2.20897 163.18 2.209 163.18C2.18573 163.409 2.16767 163.616 2.14201 163.774C2.13028 163.851 2.11273 163.918 2.11084 163.921C2.11208 163.921 2.1129 163.903 2.15995 163.832C2.20171 163.771 2.3374 163.604 2.59717 163.533C2.61422 163.529 2.63142 163.525 2.64863 163.521C3.00578 163.482 3.01556 163.546 3.1509 163.624C3.26563 163.706 3.35519 163.877 3.36639 163.982C3.3661 163.981 3.36581 163.979 3.36552 163.977C3.33033 163.753 3.30546 163.529 3.3009 163.339C3.29836 163.246 3.30289 163.159 3.30891 163.121C3.3109 163.103 3.31574 163.098 3.30145 163.138C3.28209 163.173 3.26145 163.293 3.03596 163.458C3.01114 163.475 2.98438 163.491 2.9561 163.506C2.68014 163.644 2.46628 163.599 2.33992 163.554C2.20874 163.503 2.11448 163.433 2.0285 163.315C2.0253 163.31 2.02213 163.306 2.01899 163.301C1.8601 163.014 1.94437 163.007 1.91997 163.062C1.91952 163.065 1.91904 163.068 1.91849 163.071C1.88 163.282 1.84045 163.472 1.79742 163.607C1.77807 163.672 1.7513 163.726 1.76076 163.707C1.76836 163.697 1.78227 163.663 1.86377 163.591C1.93702 163.522 2.14668 163.406 2.36616 163.412C2.37632 163.412 2.38641 163.412 2.39642 163.413C2.66386 163.418 2.9178 163.572 3.02426 163.685C3.13963 163.802 3.17917 163.885 3.20798 163.943C3.26053 164.059 3.26369 164.103 3.27119 164.138C3.28113 164.203 3.27762 164.212 3.27807 164.218C3.2773 164.225 3.27995 164.201 3.28555 164.182C3.28581 164.181 3.28607 164.18 3.28634 164.179C3.40577 163.709 3.65523 163.23 3.67923 163.252C3.67869 163.253 3.67792 163.253 3.6769 163.254C3.64354 163.281 3.53148 163.334 3.4342 163.341C3.33674 163.349 3.29938 163.331 3.31475 163.336C3.31542 163.336 3.3162 163.337 3.31709 163.337C3.36754 163.347 3.46969 163.423 3.42434 163.385C3.42417 163.385 3.424 163.385 3.42382 163.384C3.36685 163.336 3.34562 163.183 3.35501 163.274C3.35502 163.275 3.35502 163.277 3.35502 163.279C3.35655 163.381 3.32165 163.55 3.28673 163.625C3.28505 163.629 3.28341 163.633 3.28187 163.636C3.27052 163.662 3.25465 163.684 3.26195 163.674C3.28838 163.67 3.24297 163.592 3.6307 163.485C3.67874 163.476 3.73528 163.471 3.7963 163.472C4.02848 163.474 4.22152 163.586 4.30326 163.658C4.39123 163.734 4.41779 163.782 4.4356 163.81C4.4663 163.864 4.45637 163.856 4.45321 163.839C4.45257 163.836 4.4519 163.833 4.4512 163.83C4.43288 163.754 4.4324 163.624 4.46084 163.512C4.46316 163.502 4.46566 163.493 4.46833 163.483C4.48284 163.43 4.50576 163.373 4.52074 163.344C4.5155 163.321 4.60768 163.307 4.33856 163.49C4.27924 163.522 4.19218 163.561 4.07322 163.58C3.78823 163.62 3.613 163.523 3.53063 163.472C3.44422 163.415 3.41301 163.374 3.38974 163.345C3.34778 163.287 3.34444 163.263 3.33843 163.24C3.33752 163.235 3.33684 163.231 3.33632 163.227C3.41186 163.706 3.32452 164.211 3.26707 164.237C3.26515 164.239 3.26392 164.241 3.26328 164.241C3.26477 164.265 3.2322 164.17 3.57649 164.199C3.61684 164.206 3.65944 164.219 3.69969 164.236C3.94545 164.378 3.8267 164.351 3.84148 164.316C3.84067 164.311 3.83998 164.307 3.83946 164.302C3.77423 163.74 3.76776 163.113 3.85549 162.907C3.86093 162.893 3.8655 162.883 3.86759 162.879C3.8638 162.884 3.8409 162.937 3.73543 162.993C3.6983 163.012 3.6508 163.029 3.59542 163.039C3.44926 163.067 3.32235 163.011 3.32033 163.007C3.3164 163.004 3.32025 163.006 3.32856 163.012C3.45279 163.096 3.43007 163.129 3.36804 162.997C3.35576 162.967 3.34533 162.93 3.34002 162.895C3.41415 163.375 3.35533 163.811 3.17547 164.115C3.15782 164.146 3.13912 164.175 3.11895 164.204C3.01899 164.353 2.82329 164.522 2.69025 164.585C2.67063 164.595 2.65397 164.602 2.64438 164.605C2.57802 164.613 2.73744 164.611 2.73347 164.626C2.73331 164.626 2.72913 164.623 2.72172 164.618C2.59653 164.524 2.53102 164.436 2.48158 164.309C2.47446 164.29 2.46786 164.27 2.46184 164.249C2.25297 163.533 2.1402 162.771 2.26428 162.315C2.27508 162.274 2.28733 162.236 2.30067 162.201C2.3492 162.067 2.43681 161.948 2.44808 161.944C2.44924 161.942 2.43862 161.954 2.40001 161.972C2.34177 162.006 2.22633 161.999 2.20092 161.982C2.19143 161.978 2.18858 161.976 2.19089 161.977C2.68483 162.313 2.96967 162.639 2.99351 162.827C2.99818 162.848 3.00144 162.87 3.00339 162.892C3.06567 163.548 3.00054 164.254 2.81461 164.561C2.79483 164.596 2.77531 164.624 2.75731 164.646C2.69019 164.728 2.61611 164.782 2.57758 164.799C2.56357 164.805 2.55504 164.807 2.55393 164.807C2.4829 164.829 2.46438 164.784 2.62387 164.854C2.67579 164.88 2.73581 164.929 2.77356 164.977C2.48912 164.62 2.22513 164.185 2.09251 163.812C2.02532 163.627 1.99523 163.456 1.99925 163.349C2.00526 163.239 2.01985 163.216 2.05338 163.17C2.0595 163.163 2.06662 163.155 2.07566 163.146C2.23379 162.991 2.49227 162.911 2.79304 162.999C2.80367 163.002 2.81447 163.005 2.82546 163.009C3.17211 163.118 3.49985 163.232 3.74301 163.354C4.00448 163.468 4.05139 163.633 3.97731 163.441C3.97773 163.443 3.97815 163.445 3.97856 163.447C4.05599 163.856 3.92821 164.324 3.71328 164.505C3.7101 164.508 3.70689 164.511 3.70363 164.514C3.33509 164.873 2.95502 165.043 2.94315 165.008C2.93978 165.008 2.93647 165.008 2.9332 165.007C2.90598 165.005 2.88365 165.001 2.86523 164.997C2.77813 164.974 2.77199 164.982 2.70356 164.89C2.70003 164.884 2.69618 164.878 2.69222 164.872C2.52545 164.597 2.37055 163.956 2.23516 163.358Z" fill="var(--stroke-0, #05030C)"/>
</g>
</svg>
