<svg width="12" height="15" viewBox="0 0 12 15" fill="none" xmlns="http://www.w3.org/2000/svg">
<path d="M10.1241 1.57529C8.98528 0.525037 7.49262 0 5.99996 0C4.5073 0 3.01464 0.525037 1.87583 1.57529C-0.401985 3.67563 -0.700912 6.6413 1.50716 9.65089C2.62838 11.179 5.99996 15 5.99996 15C5.99996 15 9.37154 11.179 10.4928 9.65089C12.701 6.6413 12.4019 3.67563 10.1241 1.57529ZM5.99996 8.76896C4.06158 8.76896 2.49008 7.31992 2.49008 5.53257C2.49008 3.74522 4.06158 2.29617 5.99996 2.29617C7.93835 2.29617 9.50984 3.74522 9.50984 5.53257C9.50984 7.31992 7.93835 8.76896 5.99996 8.76896Z" fill="#DDDDDD"/>
</svg>
